{
.appVersion = "895";
customParameters = (
{
name = preferredSubfamilyName;
value = Regular;
},
{
name = description;
value = "TAS School Handwriting (Beginner)";
},
{
name = sampleText;
value = "ABCDEFGHIJKLMNOPQRSTUVWXYZ abcdefghijklmnopqrstuvwyxz";
},
{
name = postscriptFontName;
value = "TASBeginner-Regular";
},
{
name = styleMapStyleName;
value = regular;
},
{
name = weightClass;
value = 400;
},
{
name = widthClass;
value = 5;
},
{
name = glyphOrder;
value = (
A,
B,
C,
D,
E,
F,
G,
H,
I,
J,
K,
L,
M,
N,
O,
P,
Q,
R,
S,
T,
U,
V,
W,
X,
Y,
Z,
a,
b,
c,
d,
e,
f,
g,
h,
i,
j,
k,
l,
m,
n,
o,
p,
q,
r,
s,
t,
u,
v,
w,
x,
y,
z,
zero,
one,
two,
three,
four,
five,
six,
seven,
eight,
nine,
.notdef,
.null,
space,
period,
comma,
colon,
semicolon,
ellipsis,
exclam,
exclamdown,
question,
questiondown,
periodcentered,
bullet,
asterisk,
numbersign,
slash,
backslash,
hyphen,
endash,
emdash,
underscore,
parenleft,
parenright,
braceleft,
braceright,
bracketleft,
bracketright,
quotedbl,
quotesingle,
at,
ampersand,
degree,
bar,
brokenbar,
dollar,
plus,
minus,
multiply,
divide,
equal,
notequal,
greater,
less,
greaterequal,
lessequal,
plusminus,
approxequal,
asciicircum,
"infinity",
percent,
grave,
tilde
);
},
{
name = "Disable Last Change";
value = 1;
},
{
name = Axes;
value = (
{
Name = wght;
Tag = wght;
}
);
}
);
date = "2022-02-28 16:51:29 +0000";
designer = "Tina & Corey Anderson";
familyName = "TAS Beginner";
fontMaster = (
{
alignmentZones = (
"{700, 4}",
"{650, 4}",
"{350, 4}",
"{0, -4}",
"{-300, -4}"
);
ascender = 700;
capHeight = 650;
customParameters = (
{
name = "UFO Filename";
value = "TAS-Beginner-Regular.ufo";
},
{
name = "Master Name";
value = Regular;
},
{
name = preferredSubfamilyName;
value = Regular;
},
{
name = description;
value = "TAS School Handwriting (Beginner)";
},
{
name = sampleText;
value = "ABCDEFGHIJKLMNOPQRSTUVWXYZ abcdefghijklmnopqrstuvwyxz";
},
{
name = postscriptFontName;
value = "TASBeginner-Regular";
},
{
name = styleMapStyleName;
value = regular;
},
{

glyphs = (
{
glyphname = A;
lastChange = "2022-03-24 05:04:50 +0000";
layers = (
{
layerId = m01;
paths = (
{
closed = 1;
nodes = (
"24 0 OFFCURVE",
"29 5 OFFCURVE",
"40 23 CURVE SMOOTH",
"380 575 LINE",
"364 579 LINE",
"370 21 LINE SMOOTH",
"370 11 OFFCURVE",
"373 0 OFFCURVE",
"394 0 CURVE SMOOTH",
"412 0 OFFCURVE",
"419 9 OFFCURVE",
"419 24 CURVE SMOOTH",
"411 630 LINE SMOOTH",
"411 640 OFFCURVE",
"402 650 OFFCURVE",
"388 650 CURVE SMOOTH",
"368 650 OFFCURVE",
"364 640 OFFCURVE",
"356 627 CURVE SMOOTH",
"-10 33 LINE SMOOTH",
"-22 14 OFFCURVE",
"-11 0 OFFCURVE",
"4 0 CURVE SMOOTH"
);
},
{
closed = 1;
nodes = (
"391 327 LINE",
"390 372 LINE",
"225 372 LINE",
"200 327 LINE"
);
}
);
vertWidth = 0;
width = 484;
},
{
layerId = "6449507E-FEE0-4D4A-A81F-7CAB6A5803D5";
paths = (
{
closed = 1;
nodes = (
"70 0 OFFCURVE",
"79 6 OFFCURVE",
"96 34 CURVE SMOOTH",
"393 516 LINE",
"342 530 LINE",
"347 46 LINE",
"347 26 OFFCURVE",
"350 0 OFFCURVE",
"397 0 CURVE SMOOTH",
"434 0 OFFCURVE",
"447 19 OFFCURVE",
"447 49 CURVE SMOOTH",
"440 605 LINE SMOOTH",
"440 625 OFFCURVE",
"423 650 OFFCURVE",
"391 650 CURVE SMOOTH",
"360 650 OFFCURVE",
"352 637 OFFCURVE",
"338 616 CURVE SMOOTH",
"3 72 LINE SMOOTH",
"-27 23 OFFCURVE",
"9 0 OFFCURVE",
"40 0 CURVE SMOOTH"
);
},
{
closed = 1;
nodes = (
"398 239 LINE",
"396 335 LINE",
"226 335 LINE",
"172 239 LINE"
);
}
);
vertWidth = 0;
width = 497;
}
);
note = "";
unicode = 0041;
},
{
glyphname = B;
lastChange = "2022-03-24 05:05:06 +0000";
layers = (
{
layerId = m01;
leftMetricsKey = N;
paths = (
{
closed = 1;
nodes = (
"338 333 OFFCURVE",
"438 366 OFFCURVE",
"460 458 CURVE SMOOTH",
"489 578 OFFCURVE",
"400 651 OFFCURVE",
"227 650 CURVE",
"238 605 LINE",
"367 605 OFFCURVE",
"433 551 OFFCURVE",
"411 463 CURVE SMOOTH",
"395 396 OFFCURVE",
"315 368 OFFCURVE",
"174 378 CURVE",
"163 345 LINE"
);
},
{
closed = 1;
nodes = (
"284 0 OFFCURVE",
"404 48 OFFCURVE",
"428 144 CURVE SMOOTH",
"459 269 OFFCURVE",
"362 350 OFFCURVE",
"174 363 CURVE",
"164 328 LINE",
"322 317 OFFCURVE",
"404 251 OFFCURVE",
"380 155 CURVE SMOOTH",
"362 81 OFFCURVE",
"267 44 OFFCURVE",
"98 44 CURVE",
"71 0 LINE"
);
},
{
closed = 1;
nodes = (
"85 -1 OFFCURVE",
"94 7 OFFCURVE",
"99 27 CURVE SMOOTH",
"246 617 LINE SMOOTH",
"252 639 OFFCURVE",
"246 648 OFFCURVE",
"227 650 CURVE SMOOTH",
"210 651 OFFCURVE",
"201 644 OFFCURVE",
"196 625 CURVE SMOOTH",
"49 33 LINE SMOOTH",
"45 16 OFFCURVE",
"54 1 OFFCURVE",
"71 0 CURVE SMOOTH"
);
}
);
vertWidth = 0;
width = 467;
},
{
layerId = "6449507E-FEE0-4D4A-A81F-7CAB6A5803D5";
leftMetricsKey = N;
paths = (
{
closed = 1;
nodes = (
"362 311 OFFCURVE",
"453 348 OFFCURVE",
"476 440 CURVE SMOOTH",
"505 564 OFFCURVE",
"429 650 OFFCURVE",
"238 650 CURVE",
"243 554 LINE",
"328 554 OFFCURVE",
"394 525 OFFCURVE",
"377 458 CURVE SMOOTH",
"364 404 OFFCURVE",
"290 382 OFFCURVE",
"189 387 CURVE",
"175 322 LINE"
);
},
{
closed = 1;
nodes = (
"311 0 OFFCURVE",
"422 58 OFFCURVE",
"446 153 CURVE SMOOTH",
"478 280 OFFCURVE",
"395 348 OFFCURVE",
"189 367 CURVE",
"176 300 LINE",
"283 291 OFFCURVE",
"368 253 OFFCURVE",
"349 176 CURVE SMOOTH",
"334 115 OFFCURVE",
"244 95 OFFCURVE",
"120 95 CURVE",
"91 0 LINE"
);
},
{
closed = 1;
nodes = (
"115 0 OFFCURVE",
"135 6 OFFCURVE",
"145 46 CURVE SMOOTH",
"280 586 LINE SMOOTH",
"292 632 OFFCURVE",
"275 646 OFFCURVE",
"238 650 CURVE SMOOTH",
"207 652 OFFCURVE",
"190 641 OFFCURVE",
"181 607 CURVE SMOOTH",
"46 64 LINE SMOOTH",
"38 29 OFFCURVE",
"59 0 OFFCURVE",
"91 0 CURVE SMOOTH"
);
}
);
vertWidth = 0;
width = 488;
}
);
leftKerningGroup = H_left;
note = "";
unicode = 0042;
},
{
glyphname = C;
lastChange = "2022-03-24 05:05:19 +0000";
layers = (
{
layerId = m01;
leftMetricsKey = O;
paths = (
{
closed = 1;
nodes = (
"268 0 OFFCURVE",
"339 47 OFFCURVE",
"400 140 CURVE SMOOTH",
"421 173 OFFCURVE",
"425 185 OFFCURVE",
"425 191 CURVE SMOOTH",
"426 203 OFFCURVE",
"416 209 OFFCURVE",
"405 210 CURVE SMOOTH",
"389 211 OFFCURVE",
"381 198 OFFCURVE",
"365 172 CURVE SMOOTH",
"309 88 OFFCURVE",
"254 46 OFFCURVE",
"210 46 CURVE SMOOTH",
"141 46 OFFCURVE",
"110 133 OFFCURVE",
"127 275 CURVE SMOOTH",
"151 478 OFFCURVE",
"232 604 OFFCURVE",
"345 604 CURVE SMOOTH",
"382 604 OFFCURVE",
"409 583 OFFCURVE",
"424 542 CURVE SMOOTH",
"430 528 OFFCURVE",
"443 521 OFFCURVE",
"458 526 CURVE SMOOTH",
"471 530 OFFCURVE",
"476 540 OFFCURVE",
"473 553 CURVE SMOOTH",
"456 617 OFFCURVE",
"415 650 OFFCURVE",
"351 650 CURVE SMOOTH",
"208 650 OFFCURVE",
"102 503 OFFCURVE",
"74 266 CURVE SMOOTH",
"55 102 OFFCURVE",
"106 0 OFFCURVE",
"209 0 CURVE SMOOTH"
);
}
);
vertWidth = 0;
width = 468;
},
{
layerId = "6449507E-FEE0-4D4A-A81F-7CAB6A5803D5";
leftMetricsKey = O;
paths = (
{
closed = 1;
nodes = (
"276 0 OFFCURVE",
"351 44 OFFCURVE",
"414 141 CURVE SMOOTH",
"440 181 OFFCURVE",
"442 195 OFFCURVE",
"442 202 CURVE SMOOTH",
"442 222 OFFCURVE",
"426 245 OFFCURVE",
"398 247 CURVE SMOOTH",
"376 248 OFFCURVE",
"362 239 OFFCURVE",
"336 199 CURVE SMOOTH",
"294 135 OFFCURVE",
"252 97 OFFCURVE",
"217 97 CURVE SMOOTH",
"163 97 OFFCURVE",
"159 193 OFFCURVE",
"169 276 CURVE SMOOTH",
"187 436 OFFCURVE",
"246 553 OFFCURVE",
"341 553 CURVE SMOOTH",
"364 553 OFFCURVE",
"379 538 OFFCURVE",
"387 514 CURVE",
"399 486 OFFCURVE",
"425 474 OFFCURVE",
"453 483 CURVE SMOOTH",
"480 491 OFFCURVE",
"492 512 OFFCURVE",
"485 540 CURVE SMOOTH",
"467 613 OFFCURVE",
"419 650 OFFCURVE",
"346 650 CURVE SMOOTH",
"206 650 OFFCURVE",
"94 515 OFFCURVE",
"65 274 CURVE SMOOTH",
"44 91 OFFCURVE",
"111 0 OFFCURVE",
"216 0 CURVE SMOOTH"
);
}
);
vertWidth = 0;
width = 473;
}
);
leftKerningGroup = O_left;
note = "";
unicode = 0043;
},
{
glyphname = D;
lastChange = "2022-03-24 05:06:24 +0000";
layers = (
{
layerId = m01;
leftMetricsKey = N;
paths = (
{
closed = 1;
nodes = (
"90 0 OFFCURVE",
"95 13 OFFCURVE",
"98 23 CURVE SMOOTH",
"247 618 LINE SMOOTH",
"252 636 OFFCURVE",
"250 650 OFFCURVE",
"229 650 CURVE SMOOTH",
"207 650 OFFCURVE",
"202 641 OFFCURVE",
"198 626 CURVE SMOOTH",
"47 28 LINE SMOOTH",
"43 14 OFFCURVE",
"50 0 OFFCURVE",
"68 0 CURVE SMOOTH"
);
},
{
closed = 1;
nodes = (
"339 0 OFFCURVE",
"472 131 OFFCURVE",
"526 388 CURVE SMOOTH",
"559 545 OFFCURVE",
"488 650 OFFCURVE",
"335 650 CURVE SMOOTH",
"229 650 LINE",
"221 604 LINE",
"328 604 LINE SMOOTH",
"447 604 OFFCURVE",
"503 520 OFFCURVE",
"474 384 CURVE SMOOTH",
"427 163 OFFCURVE",
"314 49 OFFCURVE",
"138 46 CURVE SMOOTH",
"82 45 LINE",
"68 0 LINE",
"134 0 LINE SMOOTH"
);
}
);
vertWidth = 0;
width = 520;
},
{
layerId = "6449507E-FEE0-4D4A-A81F-7CAB6A5803D5";
leftMetricsKey = N;
paths = (
{
closed = 1;
nodes = (
"130 0 OFFCURVE",
"139 23 OFFCURVE",
"145 41 CURVE SMOOTH",
"281 587 LINE SMOOTH",
"293 629 OFFCURVE",
"279 650 OFFCURVE",
"238 650 CURVE SMOOTH",
"199 650 OFFCURVE",
"190 634 OFFCURVE",
"183 608 CURVE SMOOTH",
"45 60 LINE SMOOTH",
"36 30 OFFCURVE",
"52 0 OFFCURVE",
"91 0 CURVE SMOOTH"
);
},
{
closed = 1;
nodes = (
"351 0 OFFCURVE",
"484 124 OFFCURVE",
"537 377 CURVE SMOOTH",
"572 543 OFFCURVE",
"494 650 OFFCURVE",
"335 650 CURVE SMOOTH",
"238 650 LINE",
"221 553 LINE",
"329 553 LINE SMOOTH",
"420 553 OFFCURVE",
"457 484 OFFCURVE",
"436 385 CURVE SMOOTH",
"396 200 OFFCURVE",
"304 102 OFFCURVE",
"154 97 CURVE SMOOTH",
"121 96 LINE",
"91 0 LINE",
"151 0 LINE SMOOTH"
);
}
);
vertWidth = 0;
width = 524;
}
);
leftKerningGroup = H_left;
note = "";
rightKerningGroup = O_right;
unicode = 0044;
},
{
glyphname = E;
lastChange = "2022-03-24 05:07:01 +0000";
layers = (
{
layerId = m01;
leftMetricsKey = N;
paths = (
{
closed = 1;
nodes = (
"91 0 OFFCURVE",
"96 16 OFFCURVE",
"99 26 CURVE SMOOTH",
"245 615 LINE SMOOTH",
"249 633 OFFCURVE",
"250 650 OFFCURVE",
"228 650 CURVE",
"207 650 OFFCURVE",
"200 641 OFFCURVE",
"196 625 CURVE SMOOTH",
"48 29 LINE SMOOTH",
"44 14 OFFCURVE",
"51 0 OFFCURVE",
"69 0 CURVE SMOOTH"
);
},
{
closed = 1;
nodes = (
"366 0 LINE SMOOTH",
"382 0 OFFCURVE",
"392 10 OFFCURVE",
"392 25 CURVE SMOOTH",
"392 37 OFFCURVE",
"382 45 OFFCURVE",
"366 45 CURVE SMOOTH",
"82 45 LINE",
"70 0 LINE"
);
},
{
closed = 1;
nodes = (
"351 308 LINE SMOOTH",
"367 308 OFFCURVE",
"377 317 OFFCURVE",
"377 331 CURVE SMOOTH",
"377 345 OFFCURVE",
"367 353 OFFCURVE",
"351 353 CURVE SMOOTH",
"154 353 LINE",
"143 308 LINE"
);
},
{
closed = 1;
nodes = (
"495 605 LINE SMOOTH",
"511 605 OFFCURVE",
"521 614 OFFCURVE",
"521 628 CURVE SMOOTH",
"521 642 OFFCURVE",
"511 650 OFFCURVE",
"495 650 CURVE SMOOTH",
"228 650 LINE",
"216 605 LINE"
);
}
);
vertWidth = 0;
width = 477;
},
{
layerId = "6449507E-FEE0-4D4A-A81F-7CAB6A5803D5";
leftMetricsKey = N;
paths = (
{
closed = 1;
nodes = (
"129 0 OFFCURVE",
"140 25 OFFCURVE",
"145 43 CURVE SMOOTH",
"279 584 LINE SMOOTH",
"289 629 OFFCURVE",
"276 650 OFFCURVE",
"237 650 CURVE SMOOTH",
"200 650 OFFCURVE",
"188 634 OFFCURVE",
"181 606 CURVE SMOOTH",
"45 61 LINE SMOOTH",
"37 28 OFFCURVE",
"54 0 OFFCURVE",
"91 0 CURVE SMOOTH"
);
},
{
closed = 1;
nodes = (
"363 0 LINE SMOOTH",
"395 0 OFFCURVE",
"414 21 OFFCURVE",
"414 50 CURVE SMOOTH",
"414 74 OFFCURVE",
"400 96 OFFCURVE",
"363 96 CURVE SMOOTH",
"111 96 LINE",
"91 0 LINE"
);
},
{
closed = 1;
nodes = (
"349 282 LINE SMOOTH",
"383 282 OFFCURVE",
"401 303 OFFCURVE",
"401 330 CURVE SMOOTH",
"401 358 OFFCURVE",
"384 378 OFFCURVE",
"349 378 CURVE SMOOTH",
"155 378 LINE",
"131 282 LINE"
);
},
{
closed = 1;
nodes = (
"481 554 LINE SMOOTH",
"515 554 OFFCURVE",
"532 575 OFFCURVE",
"532 602 CURVE SMOOTH",
"532 630 OFFCURVE",
"516 650 OFFCURVE",
"481 650 CURVE SMOOTH",
"237 650 LINE",
"214 554 LINE"
);
}
);
vertWidth = 0;
width = 483;
}
);
leftKerningGroup = H_left;
note = "";
unicode = 0045;
},
{
glyphname = F;
lastChange = "2022-03-24 05:07:18 +0000";
layers = (
{
layerId = m01;
leftMetricsKey = N;
paths = (
{
closed = 1;
nodes = (
"91 0 OFFCURVE",
"96 16 OFFCURVE",
"99 26 CURVE SMOOTH",
"245 615 LINE SMOOTH",
"249 633 OFFCURVE",
"250 650 OFFCURVE",
"228 650 CURVE",
"207 650 OFFCURVE",
"200 641 OFFCURVE",
"196 625 CURVE SMOOTH",
"48 29 LINE SMOOTH",
"44 14 OFFCURVE",
"51 0 OFFCURVE",
"69 0 CURVE SMOOTH"
);
},
{
closed = 1;
nodes = (
"351 300 LINE SMOOTH",
"367 300 OFFCURVE",
"377 309 OFFCURVE",
"377 323 CURVE SMOOTH",
"377 337 OFFCURVE",
"367 345 OFFCURVE",
"351 345 CURVE SMOOTH",
"152 345 LINE",
"141 300 LINE"
);
},
{
closed = 1;
nodes = (
"495 605 LINE SMOOTH",
"511 605 OFFCURVE",
"521 614 OFFCURVE",
"521 628 CURVE SMOOTH",
"521 642 OFFCURVE",
"511 650 OFFCURVE",
"495 650 CURVE SMOOTH",
"228 650 LINE",
"216 605 LINE"
);
}
);
vertWidth = 0;
width = 455;
},
{
layerId = "6449507E-FEE0-4D4A-A81F-7CAB6A5803D5";
leftMetricsKey = N;
paths = (
{
closed = 1;
nodes = (
"129 0 OFFCURVE",
"140 25 OFFCURVE",
"145 43 CURVE SMOOTH",
"279 584 LINE SMOOTH",
"290 629 OFFCURVE",
"277 650 OFFCURVE",
"237 650 CURVE SMOOTH",
"201 650 OFFCURVE",
"188 634 OFFCURVE",
"181 606 CURVE SMOOTH",
"46 61 LINE SMOOTH",
"37 28 OFFCURVE",
"54 0 OFFCURVE",
"92 0 CURVE SMOOTH"
);
},
{
closed = 1;
nodes = (
"351 275 LINE SMOOTH",
"385 275 OFFCURVE",
"402 296 OFFCURVE",
"402 323 CURVE SMOOTH",
"402 351 OFFCURVE",
"386 371 OFFCURVE",
"351 371 CURVE SMOOTH",
"173 371 LINE",
"149 275 LINE"
);
},
{
closed = 1;
nodes = (
"482 554 LINE SMOOTH",
"515 554 OFFCURVE",
"533 575 OFFCURVE",
"533 602 CURVE SMOOTH",
"533 630 OFFCURVE",
"516 650 OFFCURVE",
"482 650 CURVE",
"237 650 LINE",
"214 554 LINE"
);
}
);
vertWidth = 0;
width = 465;
}
);
leftKerningGroup = H_left;
note = "";
unicode = 0046;
},
{
glyphname = G;
lastChange = "2022-03-24 05:07:34 +0000";
layers = (
{
layerId = m01;
leftMetricsKey = O;
rightMetricsKey = O;
paths = (
{
closed = 1;
nodes = (
"258 0 OFFCURVE",
"326 47 OFFCURVE",
"386 157 CURVE",
"380 160 LINE",
"345 28 LINE SMOOTH",
"342 16 OFFCURVE",
"345 0 OFFCURVE",
"364 0 CURVE SMOOTH",
"387 0 OFFCURVE",
"393 14 OFFCURVE",
"396 25 CURVE SMOOTH",
"468 307 LINE SMOOTH",
"473 327 OFFCURVE",
"458 336 OFFCURVE",
"445 336 CURVE SMOOTH",
"427 336 OFFCURVE",
"423 333 OFFCURVE",
"389 247 CURVE SMOOTH",
"340 122 OFFCURVE",
"262 45 OFFCURVE",
"184 45 CURVE SMOOTH",
"108 45 OFFCURVE",
"93 169 OFFCURVE",
"144 370 CURVE SMOOTH",
"183 525 OFFCURVE",
"258 604 OFFCURVE",
"347 604 CURVE SMOOTH",
"379 604 OFFCURVE",
"403 583 OFFCURVE",
"419 542 CURVE SMOOTH",
"424 528 OFFCURVE",
"437 521 OFFCURVE",
"453 526 CURVE SMOOTH",
"467 530 OFFCURVE",
"472 541 OFFCURVE",
"468 553 CURVE SMOOTH",
"445 617 OFFCURVE",
"406 650 OFFCURVE",
"351 650 CURVE SMOOTH",
"226 650 OFFCURVE",
"135 540 OFFCURVE",
"90 362 CURVE SMOOTH",
"34 138 OFFCURVE",
"68 0 OFFCURVE",
"178 0 CURVE SMOOTH"
);
}
);
vertWidth = 0;
width = 481;
},
{
layerId = "6449507E-FEE0-4D4A-A81F-7CAB6A5803D5";
leftMetricsKey = O;
rightMetricsKey = O;
paths = (
{
closed = 1;
nodes = (
"271 0 OFFCURVE",
"307 61 OFFCURVE",
"355 148 CURVE",
"339 154 LINE",
"315 60 LINE SMOOTH",
"308 32 OFFCURVE",
"319 0 OFFCURVE",
"359 0 CURVE SMOOTH",
"398 0 OFFCURVE",
"409 24 OFFCURVE",
"414 43 CURVE SMOOTH",
"480 302 LINE SMOOTH",
"491 343 OFFCURVE",
"460 363 OFFCURVE",
"433 363 CURVE SMOOTH",
"406 363 OFFCURVE",
"393 354 OFFCURVE",
"356 264 CURVE SMOOTH",
"316 165 OFFCURVE",
"258 96 OFFCURVE",
"194 96 CURVE SMOOTH",
"131 96 OFFCURVE",
"171 309 OFFCURVE",
"184 359 CURVE SMOOTH",
"214 481 OFFCURVE",
"270 553 OFFCURVE",
"343 553 CURVE SMOOTH",
"363 553 OFFCURVE",
"374 537 OFFCURVE",
"383 514 CURVE SMOOTH",
"393 488 OFFCURVE",
"417 473 OFFCURVE",
"448 483 CURVE SMOOTH",
"479 492 OFFCURVE",
"489 516 OFFCURVE",
"480 542 CURVE SMOOTH",
"454 616 OFFCURVE",
"408 650 OFFCURVE",
"347 650 CURVE SMOOTH",
"223 650 OFFCURVE",
"127 547 OFFCURVE",
"81 366 CURVE SMOOTH",
"13 93 OFFCURVE",
"79 0 OFFCURVE",
"188 0 CURVE SMOOTH"
);
}
);
vertWidth = 0;
width = 485;
}
);
leftKerningGroup = O_left;
note = "";
unicode = 0047;
},
{
glyphname = H;
lastChange = "2022-03-24 05:09:51 +0000";
layers = (
{
layerId = m01;
leftMetricsKey = N;
rightMetricsKey = N;
paths = (
{
closed = 1;
nodes = (
"91 0 OFFCURVE",
"97 13 OFFCURVE",
"99 23 CURVE SMOOTH",
"245 617 LINE SMOOTH",
"249 635 OFFCURVE",
"244 650 OFFCURVE",
"227 650 CURVE SMOOTH",
"208 650 OFFCURVE",
"200 641 OFFCURVE",
"196 625 CURVE SMOOTH",
"48 29 LINE SMOOTH",
"44 14 OFFCURVE",
"51 0 OFFCURVE",
"69 0 CURVE SMOOTH"
);
},
{
closed = 1;
nodes = (
"485 328 LINE",
"496 373 LINE",
"162 373 LINE",
"151 328 LINE"
);
},
{
closed = 1;
nodes = (
"427 0 OFFCURVE",
"435 11 OFFCURVE",
"437 20 CURVE SMOOTH",
"583 620 LINE SMOOTH",
"587 637 OFFCURVE",
"582 650 OFFCURVE",
"563 650 CURVE SMOOTH",
"545 650 OFFCURVE",
"536 640 OFFCURVE",
"534 630 CURVE SMOOTH",
"387 28 LINE SMOOTH",
"384 16 OFFCURVE",
"386 0 OFFCURVE",
"408 0 CURVE SMOOTH"
);
}
);
vertWidth = 0;
width = 567;
},
{
layerId = "6449507E-FEE0-4D4A-A81F-7CAB6A5803D5";
leftMetricsKey = N;
rightMetricsKey = N;
paths = (
{
closed = 1;
nodes = (
"133 0 OFFCURVE",
"142 25 OFFCURVE",
"146 43 CURVE SMOOTH",
"280 586 LINE SMOOTH",
"289 630 OFFCURVE",
"268 650 OFFCURVE",
"236 650 CURVE SMOOTH",
"203 650 OFFCURVE",
"189 635 OFFCURVE",
"181 606 CURVE SMOOTH",
"46 61 LINE SMOOTH",
"37 28 OFFCURVE",
"54 0 OFFCURVE",
"92 0 CURVE SMOOTH"
);
},
{
closed = 1;
nodes = (
"494 300 LINE",
"518 396 LINE",
"155 396 LINE",
"132 300 LINE"
);
},
{
closed = 1;
nodes = (
"439 0 OFFCURVE",
"452 23 OFFCURVE",
"456 40 CURVE SMOOTH",
"589 589 LINE SMOOTH",
"598 627 OFFCURVE",
"582 650 OFFCURVE",
"544 650 CURVE SMOOTH",
"508 650 OFFCURVE",
"495 628 OFFCURVE",
"491 610 CURVE SMOOTH",
"356 60 LINE SMOOTH",
"350 34 OFFCURVE",
"355 0 OFFCURVE",
"402 0 CURVE SMOOTH"
);
}
);
vertWidth = 0;
width = 566;
}
);
leftKerningGroup = H_left;
note = "";
rightKerningGroup = H_right;
unicode = 0048;
},
{
glyphname = I;
lastChange = "2022-03-24 05:10:12 +0000";
layers = (
{
layerId = m01;
paths = (
{
closed = 1;
nodes = (
"186 24 LINE",
"336 626 LINE",
"285 626 LINE",
"134 24 LINE"
);
},
{
closed = 1;
nodes = (
"436 605 LINE SMOOTH",
"456 605 OFFCURVE",
"462 615 OFFCURVE",
"462 627 CURVE SMOOTH",
"462 639 OFFCURVE",
"456 650 OFFCURVE",
"436 650 CURVE SMOOTH",
"183 650 LINE SMOOTH",
"163 650 OFFCURVE",
"157 639 OFFCURVE",
"157 627 CURVE SMOOTH",
"157 615 OFFCURVE",
"163 605 OFFCURVE",
"183 605 CURVE SMOOTH"
);
},
{
closed = 1;
nodes = (
"287 0 LINE SMOOTH",
"307 0 OFFCURVE",
"313 11 OFFCURVE",
"313 23 CURVE SMOOTH",
"313 35 OFFCURVE",
"307 45 OFFCURVE",
"287 45 CURVE SMOOTH",
"34 45 LINE SMOOTH",
"14 45 OFFCURVE",
"8 35 OFFCURVE",
"8 23 CURVE SMOOTH",
"8 11 OFFCURVE",
"14 0 OFFCURVE",
"34 0 CURVE SMOOTH"
);
}
);
vertWidth = 0;
width = 398;
},
{
layerId = "6449507E-FEE0-4D4A-A81F-7CAB6A5803D5";
paths = (
{
closed = 1;
nodes = (
"238 22 LINE",
"388 626 LINE",
"285 628 LINE",
"133 22 LINE"
);
},
{
closed = 1;
nodes = (
"445 554 LINE SMOOTH",
"488 554 OFFCURVE",
"496 578 OFFCURVE",
"496 601 CURVE SMOOTH",
"496 625 OFFCURVE",
"487 650 OFFCURVE",
"445 650 CURVE SMOOTH",
"213 650 LINE SMOOTH",
"171 650 OFFCURVE",
"162 625 OFFCURVE",
"162 601 CURVE SMOOTH",
"162 578 OFFCURVE",
"170 554 OFFCURVE",
"213 554 CURVE SMOOTH"
);
},
{
closed = 1;
nodes = (
"309 0 LINE SMOOTH",
"351 0 OFFCURVE",
"360 25 OFFCURVE",
"360 49 CURVE SMOOTH",
"360 72 OFFCURVE",
"352 96 OFFCURVE",
"309 96 CURVE SMOOTH",
"77 96 LINE SMOOTH",
"34 96 OFFCURVE",
"26 72 OFFCURVE",
"26 49 CURVE SMOOTH",
"26 25 OFFCURVE",
"35 0 OFFCURVE",
"77 0 CURVE SMOOTH"
);
}
);
vertWidth = 0;
width = 440;
}
);
note = "";
unicode = 0049;
},
{
glyphname = J;
lastChange = "2022-03-24 05:10:21 +0000";
layers = (
{
layerId = m01;
leftMetricsKey = "=N/2";
rightMetricsKey = N;
paths = (
{
closed = 1;
nodes = (
"248 0 OFFCURVE",
"311 65 OFFCURVE",
"342 192 CURVE SMOOTH",
"448 618 LINE SMOOTH",
"452 635 OFFCURVE",
"450 649 OFFCURVE",
"430 650 CURVE SMOOTH",
"410 651 OFFCURVE",
"402 641 OFFCURVE",
"398 625 CURVE SMOOTH",
"291 195 LINE SMOOTH",
"265 96 OFFCURVE",
"220 46 OFFCURVE",
"165 46 CURVE SMOOTH",
"110 46 OFFCURVE",
"90 87 OFFCURVE",
"90 150 CURVE SMOOTH",
"90 178 OFFCURVE",
"84 192 OFFCURVE",
"67 192 CURVE SMOOTH",
"52 192 OFFCURVE",
"40 179 OFFCURVE",
"40 150 CURVE SMOOTH",
"39 57 OFFCURVE",
"83 0 OFFCURVE",
"162 0 CURVE SMOOTH"
);
}
);
vertWidth = 0;
width = 429;
},
{
layerId = "6449507E-FEE0-4D4A-A81F-7CAB6A5803D5";
leftMetricsKey = "=N/2";
rightMetricsKey = N;
paths = (
{
closed = 1;
nodes = (
"273 0 OFFCURVE",
"343 62 OFFCURVE",
"375 197 CURVE SMOOTH",
"473 587 LINE SMOOTH",
"482 626 OFFCURVE",
"469 648 OFFCURVE",
"431 650 CURVE SMOOTH",
"396 652 OFFCURVE",
"381 635 OFFCURVE",
"373 606 CURVE SMOOTH",
"275 213 LINE SMOOTH",
"257 143 OFFCURVE",
"229 97 OFFCURVE",
"187 97 CURVE SMOOTH",
"151 97 OFFCURVE",
"146 130 OFFCURVE",
"146 165 CURVE SMOOTH",
"146 224 OFFCURVE",
"124 231 OFFCURVE",
"97 231 CURVE SMOOTH",
"74 231 OFFCURVE",
"45 221 OFFCURVE",
"45 165 CURVE SMOOTH",
"45 59 OFFCURVE",
"97 0 OFFCURVE",
"184 0 CURVE SMOOTH"
);
}
);
vertWidth = 0;
width = 447;
}
);
note = "";
rightKerningGroup = H_right;
unicode = 004A;
},
{
glyphname = K;
lastChange = "2022-03-24 05:10:36 +0000";
layers = (
{
layerId = m01;
leftMetricsKey = N;
paths = (
{
closed = 1;
nodes = (
"549 602 LINE SMOOTH",
"561 611 OFFCURVE",
"568 620 OFFCURVE",
"568 631 CURVE SMOOTH",
"568 641 OFFCURVE",
"561 650 OFFCURVE",
"548 650 CURVE SMOOTH",
"540 651 OFFCURVE",
"529 646 OFFCURVE",
"517 637 CURVE SMOOTH",
"156 350 LINE",
"156 338 LINE",
"214 336 LINE"
);
},
{
closed = 1;
nodes = (
"449.38508 0 OFFCURVE",
"468 19 OFFCURVE",
"450 42 CURVE SMOOTH",
"214 344 LINE",
"156 346 LINE",
"156 335 LINE",
"403 19 LINE SMOOTH",
"411 9 OFFCURVE",
"420 0 OFFCURVE",
"433 0 CURVE SMOOTH"
);
},
{
closed = 1;
nodes = (
"88 0 OFFCURVE",
"95 16 OFFCURVE",
"98 29 CURVE SMOOTH",
"246 617 LINE SMOOTH",
"251 635 OFFCURVE",
"247 650 OFFCURVE",
"228 650 CURVE SMOOTH",
"208 650 OFFCURVE",
"201 639 OFFCURVE",
"197 625 CURVE SMOOTH",
"48 34 LINE SMOOTH",
"44 19 OFFCURVE",
"50 0 OFFCURVE",
"68 0 CURVE SMOOTH"
);
}
);
vertWidth = 0;
width = 522;
},
{
layerId = "6449507E-FEE0-4D4A-A81F-7CAB6A5803D5";
leftMetricsKey = N;
paths = (
{
closed = 1;
nodes = (
"549 557 LINE SMOOTH",
"566 570 OFFCURVE",
"576 583 OFFCURVE",
"576 606 CURVE SMOOTH",
"576 628 OFFCURVE",
"560 650 OFFCURVE",
"531 650 CURVE SMOOTH",
"519 650 OFFCURVE",
"505 647 OFFCURVE",
"486 633 CURVE SMOOTH",
"144 361 LINE",
"144 310 LINE",
"234 307 LINE"
);
},
{
closed = 1;
nodes = (
"458.01658 0 OFFCURVE",
"499 35 OFFCURVE",
"462 83 CURVE SMOOTH",
"239 369 LINE",
"144 373 LINE",
"144 325 LINE",
"376 28 LINE SMOOTH",
"390 11 OFFCURVE",
"405 0 OFFCURVE",
"425 0 CURVE SMOOTH"
);
},
{
closed = 1;
nodes = (
"125 0 OFFCURVE",
"140 24 OFFCURVE",
"145 48 CURVE SMOOTH",
"281 586 LINE SMOOTH",
"293 628 OFFCURVE",
"274 650 OFFCURVE",
"238 650 CURVE SMOOTH",
"203 650 OFFCURVE",
"190 632 OFFCURVE",
"183 607 CURVE SMOOTH",
"46 65 LINE SMOOTH",
"37 32 OFFCURVE",
"57 0 OFFCURVE",
"91 0 CURVE SMOOTH"
);
}
);
vertWidth = 0;
width = 516;
}
);
leftKerningGroup = H_left;
note = "";
unicode = 004B;
},
{
glyphname = L;
lastChange = "2022-03-24 05:12:57 +0000";
layers = (
{
layerId = m01;
leftMetricsKey = N;
paths = (
{
closed = 1;
nodes = (
"91 0 OFFCURVE",
"96 16 OFFCURVE",
"99 26 CURVE SMOOTH",
"245 615 LINE SMOOTH",
"249 633 OFFCURVE",
"250 650 OFFCURVE",
"228 650 CURVE",
"207 650 OFFCURVE",
"200 641 OFFCURVE",
"196 625 CURVE SMOOTH",
"48 29 LINE SMOOTH",
"44 14 OFFCURVE",
"51 0 OFFCURVE",
"69 0 CURVE SMOOTH"
);
},
{
closed = 1;
nodes = (
"336 0 LINE SMOOTH",
"358 0 OFFCURVE",
"372 11 OFFCURVE",
"372 28 CURVE SMOOTH",
"372 39 OFFCURVE",
"362 45 OFFCURVE",
"346 45 CURVE SMOOTH",
"89 45 LINE",
"70 0 LINE"
);
}
);
vertWidth = 0;
width = 436;
},
{
layerId = "6449507E-FEE0-4D4A-A81F-7CAB6A5803D5";
leftMetricsKey = N;
paths = (
{
closed = 1;
nodes = (
"129 0 OFFCURVE",
"141 25 OFFCURVE",
"146 43 CURVE SMOOTH",
"280 584 LINE SMOOTH",
"290 629 OFFCURVE",
"277 650 OFFCURVE",
"237 650 CURVE SMOOTH",
"201 650 OFFCURVE",
"188 634 OFFCURVE",
"181 606 CURVE SMOOTH",
"46 61 LINE SMOOTH",
"37 28 OFFCURVE",
"54 0 OFFCURVE",
"92 0 CURVE SMOOTH"
);
},
{
closed = 1;
nodes = (
"336 0 LINE SMOOTH",
"378 0 OFFCURVE",
"397 25 OFFCURVE",
"397 53 CURVE SMOOTH",
"397 75 OFFCURVE",
"386 96 OFFCURVE",
"345 96 CURVE SMOOTH",
"117 96 LINE",
"93 0 LINE"
);
}
);
vertWidth = 0;
width = 436;
}
);
leftKerningGroup = H_left;
note = "";
unicode = 004C;
},
{
glyphname = M;
lastChange = "2022-03-24 05:13:27 +0000";
layers = (
{
guideLines = (
{
name = " [#uzSYBaR9Es]";
position = "{305, 548}";
}
);
layerId = m01;
leftMetricsKey = N;
rightMetricsKey = N;
paths = (
{
closed = 1;
nodes = (
"87 0 OFFCURVE",
"95 12 OFFCURVE",
"98 24 CURVE SMOOTH",
"234 575 LINE",
"225 576 LINE",
"279 18 LINE SMOOTH",
"280 6 OFFCURVE",
"288 0 OFFCURVE",
"302 0 CURVE SMOOTH",
"314 0 OFFCURVE",
"325 6 OFFCURVE",
"332 18 CURVE SMOOTH",
"680 595 LINE",
"661 595 LINE",
"519 30 LINE SMOOTH",
"516 19 OFFCURVE",
"520 0 OFFCURVE",
"540 0 CURVE SMOOTH",
"561 0 OFFCURVE",
"566 11 OFFCURVE",
"569 21 CURVE SMOOTH",
"713 602 LINE SMOOTH",
"720 632 OFFCURVE",
"708 650 OFFCURVE",
"680 650 CURVE SMOOTH",
"661 650 OFFCURVE",
"647 637 OFFCURVE",
"626 601 CURVE SMOOTH",
"305 61 LINE",
"323 57 LINE",
"273 599 LINE SMOOTH",
"270 631 OFFCURVE",
"257 650 OFFCURVE",
"235 650 CURVE SMOOTH",
"213 650 OFFCURVE",
"196 632 OFFCURVE",
"190 603 CURVE SMOOTH",
"48 30 LINE SMOOTH",
"45 16 OFFCURVE",
"52 0 OFFCURVE",
"69 0 CURVE SMOOTH"
);
}
);
vertWidth = 0;
width = 699;
},
{
guideLines = (
{
name = " [#uzSYBaR9Es]";
position = "{305, 548}";
}
);
layerId = "6449507E-FEE0-4D4A-A81F-7CAB6A5803D5";
leftMetricsKey = N;
rightMetricsKey = N;
paths = (
{
closed = 1;
nodes = (
"125 0 OFFCURVE",
"140 21 OFFCURVE",
"146 43 CURVE SMOOTH",
"278 578 LINE",
"205 586 LINE",
"257 41 LINE SMOOTH",
"259 16 OFFCURVE",
"274 0 OFFCURVE",
"306 0 CURVE SMOOTH",
"326 0 OFFCURVE",
"345 10 OFFCURVE",
"357 30 CURVE SMOOTH",
"700 600 LINE",
"613 600 LINE",
"478 62 LINE SMOOTH",
"471 38 OFFCURVE",
"483 0 OFFCURVE",
"524 0 CURVE SMOOTH",
"562 0 OFFCURVE",
"571 21 OFFCURVE",
"576 39 CURVE SMOOTH",
"709 572 LINE SMOOTH",
"721 624 OFFCURVE",
"696 650 OFFCURVE",
"652 650 CURVE SMOOTH",
"628 650 OFFCURVE",
"607 640 OFFCURVE",
"579 592 CURVE SMOOTH",
"299 121 LINE",
"350 110 LINE",
"307 578 LINE SMOOTH",
"302 631 OFFCURVE",
"276 650 OFFCURVE",
"244 650 CURVE SMOOTH",
"214 650 OFFCURVE",
"185 629 OFFCURVE",
"176 585 CURVE SMOOTH",
"47 62 LINE SMOOTH",
"40 30 OFFCURVE",
"59 0 OFFCURVE",
"92 0 CURVE SMOOTH"
);
}
);
vertWidth = 0;
width = 686;
}
);
leftKerningGroup = H_left;
note = "";
rightKerningGroup = H_right;
unicode = 004D;
},
{
glyphname = N;
lastChange = "2022-03-24 05:15:48 +0000";
layers = (
{
layerId = m01;
paths = (
{
closed = 1;
nodes = (
"90 0 OFFCURVE",
"97 14 OFFCURVE",
"100 26 CURVE SMOOTH",
"237 585 LINE",
"221 584 LINE",
"384 18 LINE SMOOTH",
"387 8 OFFCURVE",
"397 0 OFFCURVE",
"411 0 CURVE SMOOTH",
"427 0 OFFCURVE",
"436 13 OFFCURVE",
"438 23 CURVE SMOOTH",
"583 619 LINE SMOOTH",
"587 637 OFFCURVE",
"584 650 OFFCURVE",
"564 650 CURVE SMOOTH",
"546 650 OFFCURVE",
"536 640 OFFCURVE",
"533 626 CURVE SMOOTH",
"399 74 LINE",
"416 75 LINE",
"257 630 LINE SMOOTH",
"254 639 OFFCURVE",
"245 650 OFFCURVE",
"227 650 CURVE SMOOTH",
"206 650 OFFCURVE",
"200 641 OFFCURVE",
"196 625 CURVE SMOOTH",
"48 29 LINE SMOOTH",
"44 14 OFFCURVE",
"50 0 OFFCURVE",
"69 0 CURVE SMOOTH"
);
}
);
vertWidth = 0;
width = 567;
},
{
layerId = "6449507E-FEE0-4D4A-A81F-7CAB6A5803D5";
paths = (
{
closed = 1;
nodes = (
"128 0 OFFCURVE",
"141 23 OFFCURVE",
"146 45 CURVE SMOOTH",
"252 472 LINE",
"235 471 LINE",
"354 34 LINE SMOOTH",
"359 14 OFFCURVE",
"378 0 OFFCURVE",
"404 0 CURVE SMOOTH",
"435 0 OFFCURVE",
"451 24 OFFCURVE",
"456 43 CURVE SMOOTH",
"589 587 LINE SMOOTH",
"600 630 OFFCURVE",
"585 650 OFFCURVE",
"546 650 CURVE SMOOTH",
"515 650 OFFCURVE",
"497 633 OFFCURVE",
"491 608 CURVE SMOOTH",
"388 187 LINE",
"405 188 LINE",
"290 614 LINE SMOOTH",
"286 629 OFFCURVE",
"268 650 OFFCURVE",
"237 650 CURVE SMOOTH",
"199 650 OFFCURVE",
"188 634 OFFCURVE",
"181 606 CURVE SMOOTH",
"46 61 LINE SMOOTH",
"37 28 OFFCURVE",
"52 0 OFFCURVE",
"92 0 CURVE SMOOTH"
);
}
);
vertWidth = 0;
width = 565;
}
);
leftKerningGroup = H_left;
note = "";
rightKerningGroup = H_right;
unicode = 004E;
},
{
glyphname = O;
layers = (
{
layerId = m01;
paths = (
{
closed = 1;
nodes = (
"331 0 OFFCURVE",
"433 135 OFFCURVE",
"480 353 CURVE SMOOTH",
"519 534 OFFCURVE",
"470 650 OFFCURVE",
"351 650 CURVE SMOOTH",
"208 650 OFFCURVE",
"102 503 OFFCURVE",
"74 266 CURVE SMOOTH",
"55 102 OFFCURVE",
"106 0 OFFCURVE",
"209 0 CURVE SMOOTH"
);
},
{
closed = 1;
nodes = (
"141 46 OFFCURVE",
"110 133 OFFCURVE",
"127 275 CURVE SMOOTH",
"151 478 OFFCURVE",
"232 604 OFFCURVE",
"345 604 CURVE SMOOTH",
"428 604 OFFCURVE",
"461 507 OFFCURVE",
"427 350 CURVE SMOOTH",
"386 162 OFFCURVE",
"304 46 OFFCURVE",
"210 46 CURVE SMOOTH"
);
}
);
vertWidth = 0;
width = 483;
},
{
layerId = "6449507E-FEE0-4D4A-A81F-7CAB6A5803D5";
paths = (
{
closed = 1;
nodes = (
"336 0 OFFCURVE",
"443 124 OFFCURVE",
"491 345 CURVE SMOOTH",
"535 548 OFFCURVE",
"467 650 OFFCURVE",
"346 650 CURVE SMOOTH",
"206 650 OFFCURVE",
"94 515 OFFCURVE",
"65 274 CURVE SMOOTH",
"44 91 OFFCURVE",
"111 0 OFFCURVE",
"216 0 CURVE SMOOTH"
);
},
{
closed = 1;
nodes = (
"163 97 OFFCURVE",
"158 193 OFFCURVE",
"168 276 CURVE SMOOTH",
"187 436 OFFCURVE",
"246 553 OFFCURVE",
"341 553 CURVE SMOOTH",
"407 553 OFFCURVE",
"409 446 OFFCURVE",
"389 354 CURVE SMOOTH",
"356 205 OFFCURVE",
"296 97 OFFCURVE",
"217 97 CURVE SMOOTH"
);
}
);
vertWidth = 0;
width = 485;
}
);
leftKerningGroup = O_left;
note = "";
rightKerningGroup = O_right;
unicode = 004F;
},
{
glyphname = P;
lastChange = "2022-03-24 05:16:07 +0000";
layers = (
{
layerId = m01;
leftMetricsKey = N;
paths = (
{
closed = 1;
nodes = (
"358 332 OFFCURVE",
"515 344 OFFCURVE",
"547 471 CURVE SMOOTH",
"577 591 OFFCURVE",
"439 650 OFFCURVE",
"227 650 CURVE",
"215 600 LINE",
"426 600 OFFCURVE",
"517 555 OFFCURVE",
"498 480 CURVE SMOOTH",
"476 393 OFFCURVE",
"333 381 OFFCURVE",
"162 381 CURVE",
"150 332 LINE"
);
},
{
closed = 1;
nodes = (
"90 0 OFFCURVE",
"97 17 OFFCURVE",
"99 26 CURVE SMOOTH",
"245 618 LINE SMOOTH",
"249 636 OFFCURVE",
"248 650 OFFCURVE",
"227 650 CURVE SMOOTH",
"205 650 OFFCURVE",
"200 641 OFFCURVE",
"196 625 CURVE SMOOTH",
"48 32 LINE SMOOTH",
"44 17 OFFCURVE",
"51 0 OFFCURVE",
"69 0 CURVE SMOOTH"
);
}
);
vertWidth = 0;
width = 520;
},
{
layerId = "6449507E-FEE0-4D4A-A81F-7CAB6A5803D5";
leftMetricsKey = N;
paths = (
{
closed = 1;
nodes = (
"378 304 OFFCURVE",
"524 327 OFFCURVE",
"556 452 CURVE SMOOTH",
"586 572 OFFCURVE",
"490 650 OFFCURVE",
"236 650 CURVE",
"212 549 LINE",
"320 549 OFFCURVE",
"473 535 OFFCURVE",
"458 474 CURVE SMOOTH",
"439 401 OFFCURVE",
"310 404 OFFCURVE",
"192 404 CURVE",
"167 304 LINE"
);
},
{
closed = 1;
nodes = (
"128 0 OFFCURVE",
"142 29 OFFCURVE",
"146 45 CURVE SMOOTH",
"279 587 LINE SMOOTH",
"289 631 OFFCURVE",
"276 650 OFFCURVE",
"236 650 CURVE SMOOTH",
"198 650 OFFCURVE",
"188 635 OFFCURVE",
"181 606 CURVE SMOOTH",
"46 63 LINE SMOOTH",
"37 31 OFFCURVE",
"56 0 OFFCURVE",
"91 0 CURVE SMOOTH"
);
}
);
vertWidth = 0;
width = 523;
}
);
leftKerningGroup = H_left;
note = "";
unicode = 0050;
},
{
glyphname = Q;
lastChange = "2022-03-24 05:16:19 +0000";
layers = (
{
layerId = m01;
leftMetricsKey = O;
paths = (
{
closed = 1;
nodes = (
"331 0 OFFCURVE",
"433 135 OFFCURVE",
"480 353 CURVE SMOOTH",
"519 534 OFFCURVE",
"470 650 OFFCURVE",
"351 650 CURVE SMOOTH",
"208 650 OFFCURVE",
"102 503 OFFCURVE",
"74 266 CURVE SMOOTH",
"55 102 OFFCURVE",
"106 0 OFFCURVE",
"209 0 CURVE SMOOTH"
);
},
{
closed = 1;
nodes = (
"141 46 OFFCURVE",
"110 133 OFFCURVE",
"127 275 CURVE SMOOTH",
"151 478 OFFCURVE",
"232 604 OFFCURVE",
"345 604 CURVE SMOOTH",
"428 604 OFFCURVE",
"461 507 OFFCURVE",
"427 350 CURVE SMOOTH",
"386 162 OFFCURVE",
"304 46 OFFCURVE",
"210 46 CURVE SMOOTH"
);
},
{
closed = 1;
nodes = (
"413 -26 OFFCURVE",
"416 -12 OFFCURVE",
"406 3 CURVE SMOOTH",
"303 166 LINE SMOOTH",
"292 183 OFFCURVE",
"278 187 OFFCURVE",
"265 178 CURVE SMOOTH",
"253 169 OFFCURVE",
"252 154 OFFCURVE",
"262 138 CURVE SMOOTH",
"365 -22 LINE SMOOTH",
"374 -36 OFFCURVE",
"387 -40 OFFCURVE",
"399 -34 CURVE SMOOTH"
);
}
);
vertWidth = 0;
width = 483;
},
{
layerId = "6449507E-FEE0-4D4A-A81F-7CAB6A5803D5";
leftMetricsKey = O;
paths = (
{
closed = 1;
nodes = (
"336 0 OFFCURVE",
"443 124 OFFCURVE",
"491 345 CURVE SMOOTH",
"535 548 OFFCURVE",
"467 650 OFFCURVE",
"346 650 CURVE SMOOTH",
"206 650 OFFCURVE",
"94 515 OFFCURVE",
"65 274 CURVE SMOOTH",
"44 91 OFFCURVE",
"111 0 OFFCURVE",
"216 0 CURVE SMOOTH"
);
},
{
closed = 1;
nodes = (
"163 97 OFFCURVE",
"158 193 OFFCURVE",
"168 276 CURVE SMOOTH",
"187 436 OFFCURVE",
"246 553 OFFCURVE",
"341 553 CURVE SMOOTH",
"407 553 OFFCURVE",
"409 446 OFFCURVE",
"389 354 CURVE SMOOTH",
"356 205 OFFCURVE",
"296 97 OFFCURVE",
"217 97 CURVE SMOOTH"
);
},
{
closed = 1;
nodes = (
"417 -18 OFFCURVE",
"425 17 OFFCURVE",
"409 44 CURVE SMOOTH",
"315 192 LINE SMOOTH",
"297 220 OFFCURVE",
"269 229 OFFCURVE",
"241 210 CURVE SMOOTH",
"215 193 OFFCURVE",
"213 165 OFFCURVE",
"231 137 CURVE SMOOTH",
"322 -5 LINE SMOOTH",
"342 -36 OFFCURVE",
"371 -43 OFFCURVE",
"393 -31 CURVE SMOOTH"
);
}
);
vertWidth = 0;
width = 485;
}
);
leftKerningGroup = O_left;
note = "";
rightKerningGroup = O_right;
unicode = 0051;
},
{
glyphname = R;
lastChange = "2022-03-24 05:17:25 +0000";
layers = (
{
layerId = m01;
leftMetricsKey = N;
paths = (
{
closed = 1;
nodes = (
"343 328 OFFCURVE",
"517 337 OFFCURVE",
"553 481 CURVE SMOOTH",
"583 600 OFFCURVE",
"445 650 OFFCURVE",
"226 650 CURVE",
"228 604 LINE",
"413 604 OFFCURVE",
"524 572 OFFCURVE",
"504 491 CURVE SMOOTH",
"477 383 OFFCURVE",
"324 374 OFFCURVE",
"158 374 CURVE",
"147 328 LINE"
);
},
{
closed = 1;
nodes = (
"437 0 OFFCURVE",
"447 26 OFFCURVE",
"435 42 CURVE SMOOTH",
"207 341 LINE",
"144 341 LINE",
"390 19 LINE SMOOTH",
"400 6 OFFCURVE",
"407 0 OFFCURVE",
"415 0 CURVE SMOOTH"
);
},
{
closed = 1;
nodes = (
"90 0 OFFCURVE",
"96 14 OFFCURVE",
"99 28 CURVE SMOOTH",
"245 618 LINE SMOOTH",
"249 636 OFFCURVE",
"248 650 OFFCURVE",
"227 650 CURVE SMOOTH",
"205 650 OFFCURVE",
"200 641 OFFCURVE",
"196 625 CURVE SMOOTH",
"49 34 LINE SMOOTH",
"45 17 OFFCURVE",
"50 0 OFFCURVE",
"68 0 CURVE SMOOTH"
);
}
);
vertWidth = 0;
width = 524;
},
{
layerId = "6449507E-FEE0-4D4A-A81F-7CAB6A5803D5";
leftMetricsKey = N;
paths = (
{
closed = 1;
nodes = (
"363 300 OFFCURVE",
"526 320 OFFCURVE",
"561 461 CURVE SMOOTH",
"591 580 OFFCURVE",
"505 650 OFFCURVE",
"237 650 CURVE",
"237 553 LINE",
"410 553 OFFCURVE",
"476 533 OFFCURVE",
"463 484 CURVE SMOOTH",
"440 393 OFFCURVE",
"304 397 OFFCURVE",
"178 397 CURVE",
"158 300 LINE"
);
},
{
closed = 1;
nodes = (
"451 0 OFFCURVE",
"473 50 OFFCURVE",
"449 82 CURVE SMOOTH",
"257 334 LINE",
"138 323 LINE",
"364 28 LINE SMOOTH",
"382 4 OFFCURVE",
"395 0 OFFCURVE",
"408 0 CURVE SMOOTH"
);
},
{
closed = 1;
nodes = (
"128 0 OFFCURVE",
"141 22 OFFCURVE",
"146 47 CURVE SMOOTH",
"280 587 LINE SMOOTH",
"289 629 OFFCURVE",
"278 650 OFFCURVE",
"238 650 CURVE SMOOTH",
"200 650 OFFCURVE",
"189 636 OFFCURVE",
"181 606 CURVE SMOOTH",
"47 65 LINE SMOOTH",
"37 25 OFFCURVE",
"58 0 OFFCURVE",
"91 0 CURVE SMOOTH"
);
}
);
vertWidth = 0;
width = 528;
}
);
leftKerningGroup = H_left;
note = "";
unicode = 0052;
},
{
glyphname = S;
lastChange = "2022-03-24 05:18:00 +0000";
layers = (
{
layerId = m01;
leftMetricsKey = O;
rightMetricsKey = O;
paths = (
{
closed = 1;
nodes = (
"299 0 OFFCURVE",
"372 63 OFFCURVE",
"398 164 CURVE SMOOTH",
"425 278 OFFCURVE",
"386 338 OFFCURVE",
"264 370 CURVE SMOOTH",
"192 389 OFFCURVE",
"162 424 OFFCURVE",
"175 473 CURVE SMOOTH",
"193 546 OFFCURVE",
"270 604 OFFCURVE",
"339 604 CURVE SMOOTH",
"381 604 OFFCURVE",
"408 573 OFFCURVE",
"429 509 CURVE SMOOTH",
"433 496 OFFCURVE",
"447 492 OFFCURVE",
"459 494 CURVE SMOOTH",
"475 497 OFFCURVE",
"481 512 OFFCURVE",
"478 522 CURVE SMOOTH",
"454 607 OFFCURVE",
"412 650 OFFCURVE",
"344 650 CURVE SMOOTH",
"249 650 OFFCURVE",
"149 579 OFFCURVE",
"126 484 CURVE SMOOTH",
"107 403 OFFCURVE",
"150 348 OFFCURVE",
"255 320 CURVE SMOOTH",
"340 297 OFFCURVE",
"367 254 OFFCURVE",
"348 172 CURVE SMOOTH",
"330 94 OFFCURVE",
"277 46 OFFCURVE",
"209 46 CURVE SMOOTH",
"144 46 OFFCURVE",
"100 93 OFFCURVE",
"92 168 CURVE SMOOTH",
"91 182 OFFCURVE",
"81 188 OFFCURVE",
"65 187 CURVE SMOOTH",
"49 186 OFFCURVE",
"41 178 OFFCURVE",
"42 163 CURVE SMOOTH",
"53 62 OFFCURVE",
"116 0 OFFCURVE",
"206 0 CURVE SMOOTH"
);
}
);
vertWidth = 0;
width = 447;
},
{
layerId = "6449507E-FEE0-4D4A-A81F-7CAB6A5803D5";
leftMetricsKey = O;
rightMetricsKey = O;
paths = (
{
closed = 1;
nodes = (
"322 0 OFFCURVE",
"403 64 OFFCURVE",
"427 171 CURVE SMOOTH",
"454 293 OFFCURVE",
"416 358 OFFCURVE",
"285 393 CURVE SMOOTH",
"239 404 OFFCURVE",
"215 425 OFFCURVE",
"223 453 CURVE SMOOTH",
"236 509 OFFCURVE",
"294 553 OFFCURVE",
"346 553 CURVE SMOOTH",
"376 553 OFFCURVE",
"390 525 OFFCURVE",
"403 485 CURVE SMOOTH",
"410 460 OFFCURVE",
"436 448 OFFCURVE",
"461 453 CURVE SMOOTH",
"496 459 OFFCURVE",
"506 493 OFFCURVE",
"500 513 CURVE SMOOTH",
"473 607 OFFCURVE",
"424 650 OFFCURVE",
"351 650 CURVE SMOOTH",
"252 650 OFFCURVE",
"149 576 OFFCURVE",
"125 477 CURVE SMOOTH",
"104 389 OFFCURVE",
"144 325 OFFCURVE",
"262 294 CURVE SMOOTH",
"321 278 OFFCURVE",
"341 249 OFFCURVE",
"328 191 CURVE SMOOTH",
"315 135 OFFCURVE",
"278 97 OFFCURVE",
"227 97 CURVE SMOOTH",
"181 97 OFFCURVE",
"153 133 OFFCURVE",
"148 184 CURVE SMOOTH",
"146 211 OFFCURVE",
"129 228 OFFCURVE",
"94 226 CURVE SMOOTH",
"60 224 OFFCURVE",
"45 205 OFFCURVE",
"47 175 CURVE SMOOTH",
"59 64 OFFCURVE",
"129 0 OFFCURVE",
"225 0 CURVE SMOOTH"
);
}
);
vertWidth = 0;
width = 464;
}
);
note = "";
unicode = 0053;
},
{
glyphname = T;
lastChange = "2022-03-24 05:18:14 +0000";
layers = (
{
layerId = m01;
paths = (
{
closed = 1;
nodes = (
"206 0 OFFCURVE",
"214 13 OFFCURVE",
"216 23 CURVE SMOOTH",
"367 626 LINE",
"315 626 LINE",
"166 31 LINE SMOOTH",
"163 17 OFFCURVE",
"170 0 OFFCURVE",
"188 0 CURVE SMOOTH"
);
},
{
closed = 1;
nodes = (
"517 605 LINE SMOOTH",
"537 605 OFFCURVE",
"543 615 OFFCURVE",
"543 627 CURVE SMOOTH",
"543 639 OFFCURVE",
"537 650 OFFCURVE",
"517 650 CURVE SMOOTH",
"163 650 LINE SMOOTH",
"143 650 OFFCURVE",
"137 639 OFFCURVE",
"137 627 CURVE SMOOTH",
"137 615 OFFCURVE",
"143 605 OFFCURVE",
"163 605 CURVE SMOOTH"
);
}
);
vertWidth = 0;
width = 458;
},
{
layerId = "6449507E-FEE0-4D4A-A81F-7CAB6A5803D5";
paths = (
{
closed = 1;
nodes = (
"240 0 OFFCURVE",
"253 24 OFFCURVE",
"258 43 CURVE SMOOTH",
"398 601 LINE",
"294 601 LINE",
"159 63 LINE SMOOTH",
"151 32 OFFCURVE",
"171 0 OFFCURVE",
"206 0 CURVE SMOOTH"
);
},
{
closed = 1;
nodes = (
"507 554 LINE SMOOTH",
"550 554 OFFCURVE",
"558 578 OFFCURVE",
"558 601 CURVE SMOOTH",
"558 625 OFFCURVE",
"549 650 OFFCURVE",
"507 650 CURVE SMOOTH",
"183 650 LINE SMOOTH",
"141 650 OFFCURVE",
"132 625 OFFCURVE",
"132 601 CURVE SMOOTH",
"132 578 OFFCURVE",
"140 554 OFFCURVE",
"183 554 CURVE SMOOTH"
);
}
);
vertWidth = 0;
width = 480;
}
);
note = "";
unicode = 0054;
},
{
glyphname = U;
lastChange = "2022-03-24 05:19:12 +0000";
layers = (
{
layerId = m01;
leftMetricsKey = N;
rightMetricsKey = N;
paths = (
{
closed = 1;
nodes = (
"306 0 OFFCURVE",
"422 131 OFFCURVE",
"465 307 CURVE",
"494 434 LINE",
"481 435 LINE",
"421 212 OFFCURVE",
"303 45 OFFCURVE",
"205 45 CURVE SMOOTH",
"141 45 OFFCURVE",
"120 115 OFFCURVE",
"149 229 CURVE SMOOTH",
"247 620 LINE SMOOTH",
"251 634 OFFCURVE",
"243 650 OFFCURVE",
"228 650 CURVE SMOOTH",
"212 650 OFFCURVE",
"200 638 OFFCURVE",
"196 622 CURVE SMOOTH",
"99 235 LINE SMOOTH",
"62 90 OFFCURVE",
"99 0 OFFCURVE",
"194 0 CURVE SMOOTH"
);
},
{
closed = 1;
nodes = (
"412 -1 OFFCURVE",
"425 6 OFFCURVE",
"429 21 CURVE SMOOTH",
"580 622 LINE SMOOTH",
"584 637 OFFCURVE",
"577 650 OFFCURVE",
"558 650 CURVE SMOOTH",
"540 650 OFFCURVE",
"532 639 OFFCURVE",
"529 627 CURVE SMOOTH",
"379 29 LINE SMOOTH",
"375 11 OFFCURVE",
"386 1 OFFCURVE",
"400 0 CURVE SMOOTH"
);
}
);
vertWidth = 0;
width = 560;
},
{
layerId = "6449507E-FEE0-4D4A-A81F-7CAB6A5803D5";
leftMetricsKey = N;
rightMetricsKey = N;
paths = (
{
closed = 1;
nodes = (
"316 0 OFFCURVE",
"389 123 OFFCURVE",
"429 302 CURVE SMOOTH",
"463 453 LINE",
"448 455 LINE",
"396 250 OFFCURVE",
"300 96 OFFCURVE",
"216 96 CURVE SMOOTH",
"168 96 OFFCURVE",
"178 180 OFFCURVE",
"191 230 CURVE SMOOTH",
"281 588 LINE SMOOTH",
"289 617 OFFCURVE",
"271 650 OFFCURVE",
"240 650 CURVE SMOOTH",
"212 650 OFFCURVE",
"188 633 OFFCURVE",
"181 604 CURVE SMOOTH",
"92 249 LINE SMOOTH",
"48 76 OFFCURVE",
"106 0 OFFCURVE",
"206 0 CURVE SMOOTH"
);
},
{
closed = 1;
nodes = (
"415 0 OFFCURVE",
"440 11 OFFCURVE",
"447 40 CURVE SMOOTH",
"586 590 LINE SMOOTH",
"594 620 OFFCURVE",
"583 650 OFFCURVE",
"542 650 CURVE SMOOTH",
"507 650 OFFCURVE",
"491 631 OFFCURVE",
"486 608 CURVE SMOOTH",
"348 61 LINE SMOOTH",
"340 22 OFFCURVE",
"364 0 OFFCURVE",
"392 0 CURVE SMOOTH"
);
}
);
vertWidth = 0;
width = 559;
}
);
leftKerningGroup = H_left;
note = "";
rightKerningGroup = H_right;
unicode = 0055;
},
{
glyphname = V;
lastChange = "2022-03-24 05:19:26 +0000";
layers = (
{
layerId = m01;
paths = (
{
closed = 1;
nodes = (
"216 0 OFFCURVE",
"222 11 OFFCURVE",
"229 25 CURVE SMOOTH",
"522 618 LINE SMOOTH",
"532 638 OFFCURVE",
"520 650 OFFCURVE",
"505 650 CURVE SMOOTH",
"486 650 OFFCURVE",
"478 642 OFFCURVE",
"470 625 CURVE SMOOTH",
"205 84 LINE",
"216 81 LINE",
"188 626 LINE SMOOTH",
"187 636 OFFCURVE",
"183 650 OFFCURVE",
"161 650 CURVE",
"143 650 OFFCURVE",
"137 639 OFFCURVE",
"138 624 CURVE SMOOTH",
"171 25 LINE SMOOTH",
"172 15 OFFCURVE",
"178 0 OFFCURVE",
"197 0 CURVE SMOOTH"
);
}
);
vertWidth = 0;
width = 459;
},
{
layerId = "6449507E-FEE0-4D4A-A81F-7CAB6A5803D5";
paths = (
{
closed = 1;
nodes = (
"245 0 OFFCURVE",
"257 15 OFFCURVE",
"268 38 CURVE SMOOTH",
"537 581 LINE SMOOTH",
"560 628 OFFCURVE",
"528 650 OFFCURVE",
"496 650 CURVE SMOOTH",
"466 650 OFFCURVE",
"454 639 OFFCURVE",
"440 611 CURVE SMOOTH",
"203 128 LINE",
"259 114 LINE",
"234 602 LINE SMOOTH",
"233 623 OFFCURVE",
"224 650 OFFCURVE",
"182 650 CURVE SMOOTH",
"145 650 OFFCURVE",
"131 629 OFFCURVE",
"133 597 CURVE SMOOTH",
"163 48 LINE SMOOTH",
"164 28 OFFCURVE",
"178 0 OFFCURVE",
"214 0 CURVE SMOOTH"
);
}
);
vertWidth = 0;
width = 474;
}
);
leftKerningGroup = V_left;
note = "";
rightKerningGroup = V_right;
unicode = 0056;
},
{
glyphname = W;
lastChange = "2022-03-24 05:19:46 +0000";
layers = (
{
layerId = m01;
paths = (
{
closed = 1;
nodes = (
"189 0 OFFCURVE",
"200 8 OFFCURVE",
"208 25 CURVE SMOOTH",
"446 552 LINE",
"441 555 LINE",
"449 28 LINE SMOOTH",
"449 9 OFFCURVE",
"457 0 OFFCURVE",
"474 0 CURVE",
"488 0 OFFCURVE",
"499 8 OFFCURVE",
"507 25 CURVE SMOOTH",
"780 618 LINE SMOOTH",
"788 635 OFFCURVE",
"778 650 OFFCURVE",
"760 650 CURVE SMOOTH",
"746 650 OFFCURVE",
"735 640 OFFCURVE",
"728 625 CURVE SMOOTH",
"486 89 LINE",
"494 86 LINE",
"486 625 LINE SMOOTH",
"486 640 OFFCURVE",
"478 650 OFFCURVE",
"461 650 CURVE SMOOTH",
"446 650 OFFCURVE",
"435 640 OFFCURVE",
"428 625 CURVE SMOOTH",
"187 89 LINE",
"195 86 LINE",
"187 625 LINE SMOOTH",
"187 640 OFFCURVE",
"177 650 OFFCURVE",
"162 650 CURVE SMOOTH",
"147 650 OFFCURVE",
"137 640 OFFCURVE",
"137 624 CURVE SMOOTH",
"150 28 LINE SMOOTH",
"150 9 OFFCURVE",
"158 0 OFFCURVE",
"175 0 CURVE"
);
}
);
vertWidth = 0;
width = 717;
},
{
layerId = "6449507E-FEE0-4D4A-A81F-7CAB6A5803D5";
paths = (
{
closed = 1;
nodes = (
"215 0 OFFCURVE",
"235 10 OFFCURVE",
"248 39 CURVE SMOOTH",
"459 508 LINE",
"410 509 LINE",
"416 53 LINE",
"416 15 OFFCURVE",
"435 0 OFFCURVE",
"467 0 CURVE SMOOTH",
"489 0 OFFCURVE",
"509 10 OFFCURVE",
"522 39 CURVE SMOOTH",
"772 582 LINE SMOOTH",
"789 618 OFFCURVE",
"767 650 OFFCURVE",
"729 650 CURVE SMOOTH",
"706 650 OFFCURVE",
"686 637 OFFCURVE",
"674 611 CURVE SMOOTH",
"464 145 LINE",
"512 135 LINE",
"505 600 LINE SMOOTH",
"505 630 OFFCURVE",
"489 650 OFFCURVE",
"455 650 CURVE SMOOTH",
"431 650 OFFCURVE",
"411 636 OFFCURVE",
"400 611 CURVE SMOOTH",
"186 136 LINE",
"238 123 LINE",
"232 600 LINE SMOOTH",
"232 630 OFFCURVE",
"211 650 OFFCURVE",
"181 650 CURVE SMOOTH",
"152 650 OFFCURVE",
"131 631 OFFCURVE",
"131 599 CURVE SMOOTH",
"143 52 LINE SMOOTH",
"144 14 OFFCURVE",
"161 0 OFFCURVE",
"193 0 CURVE SMOOTH"
);
}
);
vertWidth = 0;
width = 708;
}
);
leftKerningGroup = V_left;
note = "";
rightKerningGroup = V_right;
unicode = 0057;
},
{
glyphname = X;
lastChange = "2022-03-24 05:19:59 +0000";
layers = (
{
layerId = m01;
paths = (
{
closed = 1;
nodes = (
"6 -3 OFFCURVE",
"23 -3 OFFCURVE",
"36 12 CURVE SMOOTH",
"276 297 LINE",
"287 300 LINE",
"548 609 LINE SMOOTH",
"561 624 OFFCURVE",
"557 638 OFFCURVE",
"548 645 CURVE SMOOTH",
"538 653 OFFCURVE",
"521 652 OFFCURVE",
"508 637 CURVE SMOOTH",
"268 353 LINE",
"257 350 LINE",
"-6 38 LINE SMOOTH",
"-16 26 OFFCURVE",
"-14 13 OFFCURVE",
"-5 6 CURVE SMOOTH"
);
},
{
closed = 1;
nodes = (
"394 8 OFFCURVE",
"399 20 OFFCURVE",
"394 35 CURVE SMOOTH",
"189 631 LINE SMOOTH",
"182 650 OFFCURVE",
"163 654 OFFCURVE",
"151 649 CURVE SMOOTH",
"139 645 OFFCURVE",
"136 632 OFFCURVE",
"142 614 CURVE SMOOTH",
"346 21 LINE SMOOTH",
"353 2 OFFCURVE",
"371 -3 OFFCURVE",
"384 3 CURVE SMOOTH"
);
}
);
vertWidth = 0;
width = 481;
},
{
layerId = "6449507E-FEE0-4D4A-A81F-7CAB6A5803D5";
paths = (
{
closed = 1;
nodes = (
"52 -5 OFFCURVE",
"84 -8 OFFCURVE",
"108 21 CURVE SMOOTH",
"315 266 LINE",
"337 277 LINE",
"583 567 LINE SMOOTH",
"611 600 OFFCURVE",
"596 626 OFFCURVE",
"579 639 CURVE SMOOTH",
"562 653 OFFCURVE",
"527 657 OFFCURVE",
"503 628 CURVE SMOOTH",
"290 376 LINE",
"271 369 LINE",
"26 80 LINE SMOOTH",
"4 54 OFFCURVE",
"14 26 OFFCURVE",
"33 11 CURVE SMOOTH"
);
},
{
closed = 1;
nodes = (
"437 14 OFFCURVE",
"452 37 OFFCURVE",
"441 68 CURVE SMOOTH",
"254 614 LINE SMOOTH",
"240 650 OFFCURVE",
"204 655 OFFCURVE",
"182 647 CURVE SMOOTH",
"162 639 OFFCURVE",
"145 622 OFFCURVE",
"159 581 CURVE SMOOTH",
"345 38 LINE SMOOTH",
"359 1 OFFCURVE",
"394 -5 OFFCURVE",
"418 5 CURVE SMOOTH"
);
}
);
vertWidth = 0;
width = 516;
}
);
note = "";
unicode = 0058;
},
{
glyphname = Y;
lastChange = "2022-03-24 05:20:08 +0000";
layers = (
{
layerId = m01;
paths = (
{
closed = 1;
nodes = (
"327 309 LINE",
"189 631 LINE SMOOTH",
"181 650 OFFCURVE",
"163 654 OFFCURVE",
"151 649 CURVE SMOOTH",
"139 645 OFFCURVE",
"134 632 OFFCURVE",
"142 614 CURVE SMOOTH",
"294 257 LINE"
);
},
{
closed = 1;
nodes = (
"137 -3 OFFCURVE",
"154 -4 OFFCURVE",
"164 11 CURVE SMOOTH",
"554 609 LINE SMOOTH",
"564 624 OFFCURVE",
"560 638 OFFCURVE",
"551 645 CURVE SMOOTH",
"540 653 OFFCURVE",
"521 650 OFFCURVE",
"511 635 CURVE SMOOTH",
"121 38 LINE SMOOTH",
"113 26 OFFCURVE",
"115 13 OFFCURVE",
"125 6 CURVE SMOOTH"
);
}
);
vertWidth = 0;
width = 494;
},
{
layerId = "6449507E-FEE0-4D4A-A81F-7CAB6A5803D5";
paths = (
{
closed = 1;
nodes = (
"353 337 LINE",
"233 616 LINE SMOOTH",
"218 652 OFFCURVE",
"184 656 OFFCURVE",
"162 647 CURVE",
"142 640 OFFCURVE",
"122 620 OFFCURVE",
"140 578 CURVE SMOOTH",
"287 233 LINE"
);
},
{
closed = 1;
nodes = (
"155 -6 OFFCURVE",
"188 -7 OFFCURVE",
"208 22 CURVE SMOOTH",
"565 570 LINE SMOOTH",
"585 600 OFFCURVE",
"573 626 OFFCURVE",
"556 640 CURVE SMOOTH",
"535 655 OFFCURVE",
"499 653 OFFCURVE",
"479 624 CURVE SMOOTH",
"122 77 LINE SMOOTH",
"105 51 OFFCURVE",
"114 26 OFFCURVE",
"133 11 CURVE SMOOTH"
);
}
);
vertWidth = 0;
width = 507;
}
);
note = "";
unicode = 0059;
},
{
glyphname = Z;
lastChange = "2022-03-24 05:20:30 +0000";
layers = (
{
layerId = m01;
paths = (
{
closed = 1;
nodes = (
"410 0 LINE SMOOTH",
"430 0 OFFCURVE",
"436 11 OFFCURVE",
"436 23 CURVE SMOOTH",
"436 35 OFFCURVE",
"430 46 OFFCURVE",
"410 46 CURVE SMOOTH",
"53 46 LINE",
"64 23 LINE",
"548 609 LINE SMOOTH",
"560 624 OFFCURVE",
"557 638 OFFCURVE",
"550 644 CURVE SMOOTH",
"545 648 OFFCURVE",
"540 650 OFFCURVE",
"531 650 CURVE SMOOTH",
"183 650 LINE SMOOTH",
"163 650 OFFCURVE",
"157 639 OFFCURVE",
"157 627 CURVE SMOOTH",
"157 615 OFFCURVE",
"163 604 OFFCURVE",
"183 604 CURVE SMOOTH",
"510 604 LINE",
"499 627 LINE",
"12 38 LINE SMOOTH",
"5 29 OFFCURVE",
"4 16 OFFCURVE",
"10 8 CURVE SMOOTH",
"13 4 OFFCURVE",
"23 0 OFFCURVE",
"34 0 CURVE SMOOTH"
);
}
);
vertWidth = 0;
width = 521;
},
{
layerId = "6449507E-FEE0-4D4A-A81F-7CAB6A5803D5";
paths = (
{
closed = 1;
nodes = (
"411 0 LINE SMOOTH",
"453 0 OFFCURVE",
"462 25 OFFCURVE",
"462 49 CURVE SMOOTH",
"462 72 OFFCURVE",
"453 97 OFFCURVE",
"411 97 CURVE SMOOTH",
"111 97 LINE",
"132 52 LINE",
"558 567 LINE SMOOTH",
"586 601 OFFCURVE",
"570 626 OFFCURVE",
"557 638 CURVE SMOOTH",
"547 647 OFFCURVE",
"538 650 OFFCURVE",
"522 650 CURVE SMOOTH",
"203 650 LINE SMOOTH",
"161 650 OFFCURVE",
"152 625 OFFCURVE",
"152 601 CURVE SMOOTH",
"152 578 OFFCURVE",
"161 553 OFFCURVE",
"203 553 CURVE SMOOTH",
"475 553 LINE",
"454 598 LINE",
"25 80 LINE SMOOTH",
"9 61 OFFCURVE",
"11 34 OFFCURVE",
"22 18 CURVE SMOOTH",
"28 11 OFFCURVE",
"45 0 OFFCURVE",
"66 0 CURVE SMOOTH"
);
}
);
vertWidth = 0;
width = 532;
}
);
note = "";
unicode = 005A;
},
{
glyphname = a;
lastChange = "2022-03-24 04:43:21 +0000";
layers = (
{
layerId = m01;
leftMetricsKey = o;
rightMetricsKey = n;
paths = (
{
closed = 1;
nodes = (
"185 0 OFFCURVE",
"237 87 OFFCURVE",
"278 228 CURVE SMOOTH",
"298 297 OFFCURVE",
"277 354 OFFCURVE",
"214 354 CURVE SMOOTH",
"134 354 OFFCURVE",
"67 276 OFFCURVE",
"39 156 CURVE SMOOTH",
"20 76 OFFCURVE",
"38 0 OFFCURVE",
"114 0 CURVE SMOOTH"
);
},
{
closed = 1;
nodes = (
"84 45 OFFCURVE",
"73 87 OFFCURVE",
"93 169 CURVE SMOOTH",
"111 247 OFFCURVE",
"160 309 OFFCURVE",
"206 309 CURVE SMOOTH",
"252 309 OFFCURVE",
"269 281 OFFCURVE",
"257 234 CURVE SMOOTH",
"231 126 OFFCURVE",
"174 45 OFFCURVE",
"124 45 CURVE SMOOTH"
);
},
{
closed = 1;
nodes = (
"250 0 OFFCURVE",
"253 14 OFFCURVE",
"258 32 CURVE SMOOTH",
"331 322 LINE SMOOTH",
"335 338 OFFCURVE",
"331 350 OFFCURVE",
"314 350 CURVE SMOOTH",
"295 350 OFFCURVE",
"285 343 OFFCURVE",
"280 325 CURVE SMOOTH",
"207 35 LINE SMOOTH",
"203 18 OFFCURVE",
"203 0 OFFCURVE",
"225 0 CURVE SMOOTH"
);
}
);
vertWidth = 0;
width = 331;
},
{
layerId = "6449507E-FEE0-4D4A-A81F-7CAB6A5803D5";
leftMetricsKey = o;
rightMetricsKey = n;
paths = (
{
closed = 1;
nodes = (
"189 0 OFFCURVE",
"220 75 OFFCURVE",
"248 180 CURVE SMOOTH",
"277 288 OFFCURVE",
"281 359 OFFCURVE",
"212 359 CURVE SMOOTH",
"135 359 OFFCURVE",
"63 292 OFFCURVE",
"36 184 CURVE SMOOTH",
"8 70 OFFCURVE",
"43 0 OFFCURVE",
"123 0 CURVE SMOOTH"
);
},
{
closed = 1;
nodes = (
"123 90 OFFCURVE",
"117 118 OFFCURVE",
"129 164 CURVE SMOOTH",
"145 229 OFFCURVE",
"176 269 OFFCURVE",
"210 269 CURVE SMOOTH",
"230 269 OFFCURVE",
"236 243 OFFCURVE",
"225 200 CURVE SMOOTH",
"208 132 OFFCURVE",
"177 90 OFFCURVE",
"144 90 CURVE SMOOTH"
);
},
{
closed = 1;
nodes = (
"268 0 OFFCURVE",
"276 17 OFFCURVE",
"283 46 CURVE SMOOTH",
"347 303 LINE SMOOTH",
"356 340 OFFCURVE",
"342 359 OFFCURVE",
"309 359 CURVE SMOOTH",
"278 359 OFFCURVE",
"262 347 OFFCURVE",
"255 319 CURVE SMOOTH",
"191 62 LINE SMOOTH",
"181 23 OFFCURVE",
"194 0 OFFCURVE",
"231 0 CURVE SMOOTH"
);
}
);
vertWidth = 0;
width = 353;
}
);
leftKerningGroup = o_left;
note = "";
rightKerningGroup = n_right;
unicode = 0061;
},
{
glyphname = b;
lastChange = "2022-03-24 04:44:07 +0000";
layers = (
{
layerId = m01;
leftMetricsKey = n;
rightMetricsKey = o;
paths = (
{
closed = 1;
nodes = (
"72 0 OFFCURVE",
"76 14 OFFCURVE",
"80 32 CURVE SMOOTH",
"228 622 LINE SMOOTH",
"232 638 OFFCURVE",
"228 650 OFFCURVE",
"211 650 CURVE SMOOTH",
"192 650 OFFCURVE",
"182 643 OFFCURVE",
"177 625 CURVE SMOOTH",
"29 35 LINE SMOOTH",
"25 18 OFFCURVE",
"25 0 OFFCURVE",
"47 0 CURVE SMOOTH"
);
},
{
closed = 1;
nodes = (
"217 0 OFFCURVE",
"284 74 OFFCURVE",
"311 182 CURVE SMOOTH",
"337 286 OFFCURVE",
"304 354 OFFCURVE",
"237 354 CURVE SMOOTH",
"170 354 OFFCURVE",
"111 285 OFFCURVE",
"83 172 CURVE SMOOTH",
"56 66 OFFCURVE",
"77 0 OFFCURVE",
"137 0 CURVE SMOOTH"
);
},
{
closed = 1;
nodes = (
"108 45 OFFCURVE",
"94 85 OFFCURVE",
"113 163 CURVE SMOOTH",
"134 248 OFFCURVE",
"178 309 OFFCURVE",
"226 309 CURVE SMOOTH",
"266 309 OFFCURVE",
"280 269 OFFCURVE",
"261 191 CURVE SMOOTH",
"240 106 OFFCURVE",
"196 45 OFFCURVE",
"148 45 CURVE SMOOTH"
);
}
);
vertWidth = 0;
width = 336;
},
{
layerId = "6449507E-FEE0-4D4A-A81F-7CAB6A5803D5";
leftMetricsKey = n;
rightMetricsKey = o;
paths = (
{
closed = 1;
nodes = (
"109 0 OFFCURVE",
"111 20 OFFCURVE",
"119 51 CURVE SMOOTH",
"254 590 LINE SMOOTH",
"264 630 OFFCURVE",
"254 650 OFFCURVE",
"219 650 CURVE SMOOTH",
"187 650 OFFCURVE",
"170 637 OFFCURVE",
"162 607 CURVE SMOOTH",
"26 66 LINE SMOOTH",
"16 25 OFFCURVE",
"29 0 OFFCURVE",
"69 0 CURVE SMOOTH"
);
},
{
closed = 1;
nodes = (
"237 0 OFFCURVE",
"309 69 OFFCURVE",
"337 180 CURVE SMOOTH",
"364 291 OFFCURVE",
"329 359 OFFCURVE",
"263 359 CURVE SMOOTH",
"176 359 OFFCURVE",
"151 291 OFFCURVE",
"125 184 CURVE SMOOTH",
"95 63 OFFCURVE",
"94 0 OFFCURVE",
"172 0 CURVE SMOOTH"
);
},
{
closed = 1;
nodes = (
"142 90 OFFCURVE",
"136 118 OFFCURVE",
"148 164 CURVE SMOOTH",
"164 229 OFFCURVE",
"195 269 OFFCURVE",
"229 269 CURVE SMOOTH",
"249 269 OFFCURVE",
"255 243 OFFCURVE",
"244 200 CURVE SMOOTH",
"227 132 OFFCURVE",
"196 90 OFFCURVE",
"163 90 CURVE SMOOTH"
);
}
);
vertWidth = 0;
width = 362;
}
);
leftKerningGroup = h_left;
note = "";
rightKerningGroup = o_right;
unicode = 0062;
},
{
glyphname = c;
lastChange = "2022-03-24 04:45:07 +0000";
layers = (
{
layerId = m01;
leftMetricsKey = o;
paths = (
{
closed = 1;
nodes = (
"188 0 OFFCURVE",
"246 49 OFFCURVE",
"271 112 CURVE SMOOTH",
"278 129 OFFCURVE",
"267 141 OFFCURVE",
"257 145 CURVE SMOOTH",
"248 149 OFFCURVE",
"231 145 OFFCURVE",
"225 131 CURVE SMOOTH",
"204 82 OFFCURVE",
"161 45 OFFCURVE",
"129 45 CURVE SMOOTH",
"86 45 OFFCURVE",
"74 88 OFFCURVE",
"96 173 CURVE SMOOTH",
"115 251 OFFCURVE",
"162 309 OFFCURVE",
"206 309 CURVE SMOOTH",
"231 309 OFFCURVE",
"242 289 OFFCURVE",
"242 265 CURVE SMOOTH",
"242 252 OFFCURVE",
"259 249 OFFCURVE",
"273 254 CURVE SMOOTH",
"285 258 OFFCURVE",
"290 271 OFFCURVE",
"288 284 CURVE SMOOTH",
"281 324 OFFCURVE",
"261 354 OFFCURVE",
"217 354 CURVE SMOOTH",
"132 354 OFFCURVE",
"70 280 OFFCURVE",
"40 160 CURVE SMOOTH",
"17 68 OFFCURVE",
"51 0 OFFCURVE",
"120 0 CURVE SMOOTH"
);
}
);
vertWidth = 0;
width = 298;
},
{
layerId = "6449507E-FEE0-4D4A-A81F-7CAB6A5803D5";
leftMetricsKey = o;
paths = (
{
closed = 1;
nodes = (
"193 0 OFFCURVE",
"250 43 OFFCURVE",
"278 112 CURVE SMOOTH",
"288 136 OFFCURVE",
"277 162 OFFCURVE",
"252 173 CURVE SMOOTH",
"228 183 OFFCURVE",
"202 173 OFFCURVE",
"191 148 CURVE SMOOTH",
"177 115 OFFCURVE",
"155 90 OFFCURVE",
"140 90 CURVE SMOOTH",
"121 90 OFFCURVE",
"118 119 OFFCURVE",
"130 167 CURVE SMOOTH",
"139 203 OFFCURVE",
"170 268 OFFCURVE",
"201 268 CURVE SMOOTH",
"207 268 OFFCURVE",
"210 264 OFFCURVE",
"210 256 CURVE SMOOTH",
"210 232 OFFCURVE",
"233 210 OFFCURVE",
"270 224 CURVE SMOOTH",
"291 231 OFFCURVE",
"304 252 OFFCURVE",
"300 277 CURVE SMOOTH",
"292 326 OFFCURVE",
"263 359 OFFCURVE",
"212 359 CURVE SMOOTH",
"126 359 OFFCURVE",
"61 283 OFFCURVE",
"32 169 CURVE SMOOTH",
"8 72 OFFCURVE",
"50 0 OFFCURVE",
"130 0 CURVE SMOOTH"
);
}
);
vertWidth = 0;
width = 301;
}
);
leftKerningGroup = o_left;
note = "";
unicode = 0063;
},
{
glyphname = d;
lastChange = "2022-03-24 04:45:21 +0000";
layers = (
{
layerId = m01;
leftMetricsKey = o;
paths = (
{
closed = 1;
nodes = (
"305 0 OFFCURVE",
"339 26 OFFCURVE",
"379 77 CURVE SMOOTH",
"399 103 OFFCURVE",
"403 109 OFFCURVE",
"403 120 CURVE SMOOTH",
"403 134 OFFCURVE",
"395 143 OFFCURVE",
"383 143 CURVE SMOOTH",
"370 143 OFFCURVE",
"363 134 OFFCURVE",
"345 110 CURVE SMOOTH",
"314 67 OFFCURVE",
"293 45 OFFCURVE",
"282 45 CURVE SMOOTH",
"266 45 OFFCURVE",
"265 79 OFFCURVE",
"278 133 CURVE SMOOTH",
"401 622 LINE SMOOTH",
"405 638 OFFCURVE",
"401 650 OFFCURVE",
"384 650 CURVE SMOOTH",
"365 650 OFFCURVE",
"355 643 OFFCURVE",
"350 625 CURVE SMOOTH",
"229 144 LINE SMOOTH",
"207 55 OFFCURVE",
"226 0 OFFCURVE",
"277 0 CURVE SMOOTH"
);
},
{
closed = 1;
nodes = (
"184 0 OFFCURVE",
"243 69 OFFCURVE",
"271 182 CURVE SMOOTH",
"298 288 OFFCURVE",
"277 354 OFFCURVE",
"217 354 CURVE SMOOTH",
"137 354 OFFCURVE",
"70 280 OFFCURVE",
"43 172 CURVE SMOOTH",
"17 68 OFFCURVE",
"50 0 OFFCURVE",
"117 0 CURVE SMOOTH"
);
},
{
closed = 1;
nodes = (
"88 45 OFFCURVE",
"74 85 OFFCURVE",
"93 163 CURVE SMOOTH",
"114 248 OFFCURVE",
"158 309 OFFCURVE",
"206 309 CURVE SMOOTH",
"246 309 OFFCURVE",
"260 269 OFFCURVE",
"241 191 CURVE SMOOTH",
"220 106 OFFCURVE",
"176 45 OFFCURVE",
"128 45 CURVE SMOOTH"
);
}
);
vertWidth = 0;
width = 414;
},
{
layerId = "6449507E-FEE0-4D4A-A81F-7CAB6A5803D5";
leftMetricsKey = o;
paths = (
{
closed = 1;
nodes = (
"316 0 OFFCURVE",
"362 29 OFFCURVE",
"406 86 CURVE SMOOTH",
"423 109 OFFCURVE",
"428 126 OFFCURVE",
"428 143 CURVE SMOOTH",
"428 164 OFFCURVE",
"414 181 OFFCURVE",
"393 181 CURVE SMOOTH",
"371 181 OFFCURVE",
"357 167 OFFCURVE",
"344 141 CURVE SMOOTH",
"331 115 OFFCURVE",
"308 87 OFFCURVE",
"302 87 CURVE SMOOTH",
"294 87 OFFCURVE",
"299 115 OFFCURVE",
"303 130 CURVE SMOOTH",
"419 596 LINE SMOOTH",
"428 632 OFFCURVE",
"413 650 OFFCURVE",
"381 650 CURVE SMOOTH",
"351 650 OFFCURVE",
"335 639 OFFCURVE",
"328 611 CURVE SMOOTH",
"213 151 LINE SMOOTH",
"183 32 OFFCURVE",
"225 0 OFFCURVE",
"277 0 CURVE SMOOTH"
);
},
{
closed = 1;
nodes = (
"189 0 OFFCURVE",
"220 75 OFFCURVE",
"248 180 CURVE SMOOTH",
"277 288 OFFCURVE",
"281 359 OFFCURVE",
"212 359 CURVE SMOOTH",
"135 359 OFFCURVE",
"63 292 OFFCURVE",
"36 184 CURVE SMOOTH",
"8 70 OFFCURVE",
"43 0 OFFCURVE",
"123 0 CURVE SMOOTH"
);
},
{
closed = 1;
nodes = (
"123 90 OFFCURVE",
"117 118 OFFCURVE",
"129 164 CURVE SMOOTH",
"145 229 OFFCURVE",
"176 269 OFFCURVE",
"210 269 CURVE SMOOTH",
"230 269 OFFCURVE",
"236 243 OFFCURVE",
"225 200 CURVE SMOOTH",
"208 132 OFFCURVE",
"177 90 OFFCURVE",
"144 90 CURVE SMOOTH"
);
}
);
vertWidth = 0;
width = 455;
}
);
leftKerningGroup = o_left;
note = "";
unicode = 0064;
},
{
glyphname = e;
lastChange = "2022-03-24 04:45:29 +0000";
layers = (
{
layerId = m01;
leftMetricsKey = o;
rightMetricsKey = o;
paths = (
{
closed = 1;
nodes = (
"182 0 OFFCURVE",
"247 42 OFFCURVE",
"320 126 CURVE SMOOTH",
"330 138 OFFCURVE",
"329 153 OFFCURVE",
"319 161 CURVE SMOOTH",
"307 170 OFFCURVE",
"291 169 OFFCURVE",
"282 158 CURVE SMOOTH",
"215 83 OFFCURVE",
"166 45 OFFCURVE",
"128 45 CURVE SMOOTH",
"88 45 OFFCURVE",
"74 85 OFFCURVE",
"93 163 CURVE SMOOTH",
"114 248 OFFCURVE",
"158 309 OFFCURVE",
"206 309 CURVE SMOOTH",
"225 309 OFFCURVE",
"239 300 OFFCURVE",
"239 287 CURVE SMOOTH",
"239 245 OFFCURVE",
"165 194 OFFCURVE",
"66 166 CURVE",
"56 111 LINE",
"189 152 OFFCURVE",
"289 228 OFFCURVE",
"289 290 CURVE SMOOTH",
"289 327 OFFCURVE",
"258 354 OFFCURVE",
"217 354 CURVE SMOOTH",
"137 354 OFFCURVE",
"70 280 OFFCURVE",
"43 172 CURVE SMOOTH",
"17 68 OFFCURVE",
"50 0 OFFCURVE",
"117 0 CURVE SMOOTH"
);
}
);
vertWidth = 0;
width = 347;
},
{
layerId = "6449507E-FEE0-4D4A-A81F-7CAB6A5803D5";
leftMetricsKey = o;
rightMetricsKey = o;
paths = (
{
closed = 1;
nodes = (
"190 0 OFFCURVE",
"256 36 OFFCURVE",
"317 107 CURVE SMOOTH",
"337 131 OFFCURVE",
"331 159 OFFCURVE",
"313 173 CURVE SMOOTH",
"290 190 OFFCURVE",
"261 186 OFFCURVE",
"245 167 CURVE SMOOTH",
"201 116 OFFCURVE",
"164 90 OFFCURVE",
"139 90 CURVE SMOOTH",
"119 90 OFFCURVE",
"117 119 OFFCURVE",
"128 159 CURVE SMOOTH",
"141 213 OFFCURVE",
"165 269 OFFCURVE",
"196 269 CURVE SMOOTH",
"200 269 OFFCURVE",
"202 267 OFFCURVE",
"202 263 CURVE SMOOTH",
"202 234 OFFCURVE",
"138 194 OFFCURVE",
"90 183 CURVE",
"79 113 LINE",
"211 152 OFFCURVE",
"296 224 OFFCURVE",
"296 283 CURVE SMOOTH",
"296 323 OFFCURVE",
"260 359 OFFCURVE",
"209 359 CURVE SMOOTH",
"131 359 OFFCURVE",
"62 287 OFFCURVE",
"35 179 CURVE SMOOTH",
"4 55 OFFCURVE",
"55 0 OFFCURVE",
"123 0 CURVE SMOOTH"
);
}
);
vertWidth = 0;
width = 346;
}
);
leftKerningGroup = o_left;
note = "";
unicode = 0065;
},
{
glyphname = f;
lastChange = "2022-03-24 04:46:51 +0000";
layers = (
{
layerId = m01;
paths = (
{
closed = 1;
nodes = (
"227 305 LINE SMOOTH",
"247 305 OFFCURVE",
"253 316 OFFCURVE",
"253 328 CURVE SMOOTH",
"253 340 OFFCURVE",
"247 350 OFFCURVE",
"227 350 CURVE SMOOTH",
"69 350 LINE SMOOTH",
"49 350 OFFCURVE",
"43 340 OFFCURVE",
"43 328 CURVE SMOOTH",
"43 316 OFFCURVE",
"49 305 OFFCURVE",
"69 305 CURVE SMOOTH"
);
},
{
closed = 1;
nodes = (
"71 0 OFFCURVE",
"77 13 OFFCURVE",
"82 32 CURVE SMOOTH",
"202 514 LINE SMOOTH",
"217 574 OFFCURVE",
"235 604 OFFCURVE",
"256 604 CURVE SMOOTH",
"268 604 OFFCURVE",
"279 589 OFFCURVE",
"290 560 CURVE SMOOTH",
"296 544 OFFCURVE",
"309 539 OFFCURVE",
"323 545 CURVE SMOOTH",
"337 551 OFFCURVE",
"342 563 OFFCURVE",
"337 578 CURVE SMOOTH",
"320 625 OFFCURVE",
"294 650 OFFCURVE",
"260 650 CURVE SMOOTH",
"210 650 OFFCURVE",
"174 608 OFFCURVE",
"153 524 CURVE SMOOTH",
"32 38 LINE SMOOTH",
"28 22 OFFCURVE",
"26 0 OFFCURVE",
"49 0 CURVE SMOOTH"
);
}
);
vertWidth = 0;
width = 218;
},
{
layerId = "6449507E-FEE0-4D4A-A81F-7CAB6A5803D5";
paths = (
{
closed = 1;
nodes = (
"266 261 LINE SMOOTH",
"309 261 OFFCURVE",
"318 286 OFFCURVE",
"318 310 CURVE SMOOTH",
"318 333 OFFCURVE",
"310 357 OFFCURVE",
"266 357 CURVE SMOOTH",
"92 357 LINE SMOOTH",
"48 357 OFFCURVE",
"40 333 OFFCURVE",
"40 310 CURVE SMOOTH",
"40 286 OFFCURVE",
"50 261 OFFCURVE",
"92 261 CURVE SMOOTH"
);
},
{
closed = 1;
nodes = (
"123 0 OFFCURVE",
"137 17 OFFCURVE",
"145 50 CURVE SMOOTH",
"255 491 LINE SMOOTH",
"261 517 OFFCURVE",
"266 544 OFFCURVE",
"272 544 CURVE SMOOTH",
"278 544 OFFCURVE",
"281 535 OFFCURVE",
"283 530 CURVE SMOOTH",
"295 498 OFFCURVE",
"322 489 OFFCURVE",
"350 501 CURVE SMOOTH",
"377 513 OFFCURVE",
"388 536 OFFCURVE",
"378 565 CURVE SMOOTH",
"357 625 OFFCURVE",
"322 650 OFFCURVE",
"282 650 CURVE SMOOTH",
"227 650 OFFCURVE",
"181 612 OFFCURVE",
"157 514 CURVE SMOOTH",
"46 69 LINE SMOOTH",
"36 29 OFFCURVE",
"49 0 OFFCURVE",
"88 0 CURVE SMOOTH"
);
}
);
vertWidth = 0;
width = 288;
}
);
note = "";
unicode = 0066;
},
{
glyphname = g;
lastChange = "2022-03-24 04:47:07 +0000";
layers = (
{
layerId = m01;
leftMetricsKey = o;
rightMetricsKey = n;
paths = (
{
closed = 1;
nodes = (
"184 0 OFFCURVE",
"243 69 OFFCURVE",
"271 182 CURVE SMOOTH",
"298 288 OFFCURVE",
"277 354 OFFCURVE",
"217 354 CURVE SMOOTH",
"137 354 OFFCURVE",
"70 280 OFFCURVE",
"43 172 CURVE SMOOTH",
"17 68 OFFCURVE",
"50 0 OFFCURVE",
"117 0 CURVE SMOOTH"
);
},
{
closed = 1;
nodes = (
"88 45 OFFCURVE",
"74 85 OFFCURVE",
"93 163 CURVE SMOOTH",
"114 248 OFFCURVE",
"158 309 OFFCURVE",
"206 309 CURVE SMOOTH",
"246 309 OFFCURVE",
"260 269 OFFCURVE",
"241 191 CURVE SMOOTH",
"220 106 OFFCURVE",
"176 45 OFFCURVE",
"128 45 CURVE SMOOTH"
);
},
{
closed = 1;
nodes = (
"143 -300 OFFCURVE",
"180 -264 OFFCURVE",
"198 -193 CURVE SMOOTH",
"328 328 LINE SMOOTH",
"331 340 OFFCURVE",
"320 349 OFFCURVE",
"306 350 CURVE SMOOTH",
"292 350 OFFCURVE",
"279 341 OFFCURVE",
"277 331 CURVE SMOOTH",
"147 -189 LINE SMOOTH",
"136 -233 OFFCURVE",
"118 -255 OFFCURVE",
"92 -255 CURVE SMOOTH",
"67 -255 OFFCURVE",
"42 -236 OFFCURVE",
"20 -199 CURVE SMOOTH",
"16 -192 OFFCURVE",
"7 -188 OFFCURVE",
"-5 -190 CURVE SMOOTH",
"-18 -192 OFFCURVE",
"-34 -206 OFFCURVE",
"-25 -222 CURVE SMOOTH",
"3 -274 OFFCURVE",
"41 -300 OFFCURVE",
"88 -300 CURVE SMOOTH"
);
}
);
vertWidth = 0;
width = 326;
},
{
layerId = "6449507E-FEE0-4D4A-A81F-7CAB6A5803D5";
leftMetricsKey = o;
rightMetricsKey = n;
paths = (
{
closed = 1;
nodes = (
"189 0 OFFCURVE",
"220 75 OFFCURVE",
"248 180 CURVE SMOOTH",
"277 288 OFFCURVE",
"281 359 OFFCURVE",
"212 359 CURVE SMOOTH",
"135 359 OFFCURVE",
"63 292 OFFCURVE",
"36 184 CURVE SMOOTH",
"8 70 OFFCURVE",
"43 0 OFFCURVE",
"123 0 CURVE SMOOTH"
);
},
{
closed = 1;
nodes = (
"123 90 OFFCURVE",
"117 118 OFFCURVE",
"129 164 CURVE SMOOTH",
"145 229 OFFCURVE",
"176 269 OFFCURVE",
"210 269 CURVE SMOOTH",
"230 269 OFFCURVE",
"236 243 OFFCURVE",
"225 200 CURVE SMOOTH",
"208 132 OFFCURVE",
"177 90 OFFCURVE",
"144 90 CURVE SMOOTH"
);
},
{
closed = 1;
nodes = (
"169 -300 OFFCURVE",
"207 -263 OFFCURVE",
"227 -181 CURVE SMOOTH",
"347 305 LINE SMOOTH",
"353 330 OFFCURVE",
"347 359 OFFCURVE",
"310 359 CURVE SMOOTH",
"272 359 OFFCURVE",
"260 340 OFFCURVE",
"255 320 CURVE SMOOTH",
"135 -164 LINE SMOOTH",
"130 -185 OFFCURVE",
"123 -204 OFFCURVE",
"108 -204 CURVE SMOOTH",
"95 -204 OFFCURVE",
"82 -188 OFFCURVE",
"69 -166 CURVE SMOOTH",
"61 -152 OFFCURVE",
"44 -141 OFFCURVE",
"18 -145 CURVE SMOOTH",
"-13 -150 OFFCURVE",
"-38 -183 OFFCURVE",
"-20 -215 CURVE SMOOTH",
"11 -273 OFFCURVE",
"55 -300 OFFCURVE",
"107 -300 CURVE SMOOTH"
);
}
);
vertWidth = 0;
width = 351;
}
);
leftKerningGroup = o_left;
note = "";
unicode = 0067;
},
{
glyphname = h;
lastChange = "2022-03-24 04:48:29 +0000";
layers = (
{
layerId = m01;
leftMetricsKey = n;
rightMetricsKey = n;
paths = (
{
closed = 1;
nodes = (
"294 -1 OFFCURVE",
"297 13 OFFCURVE",
"302 31 CURVE SMOOTH",
"340 183 LINE SMOOTH",
"370 301 OFFCURVE",
"356 354 OFFCURVE",
"292 354 CURVE SMOOTH",
"240 354 OFFCURVE",
"167 290 OFFCURVE",
"120 209 CURVE",
"96 96 LINE",
"115 168 OFFCURVE",
"235 308 OFFCURVE",
"280 308 CURVE SMOOTH",
"307 308 OFFCURVE",
"310 270 OFFCURVE",
"290 188 CURVE SMOOTH",
"251 34 LINE SMOOTH",
"247 17 OFFCURVE",
"247 -1 OFFCURVE",
"269 -1 CURVE SMOOTH"
);
},
{
closed = 1;
nodes = (
"72 0 OFFCURVE",
"75 14 OFFCURVE",
"80 32 CURVE SMOOTH",
"228 622 LINE SMOOTH",
"232 638 OFFCURVE",
"228 649 OFFCURVE",
"211 650 CURVE SMOOTH",
"192 651 OFFCURVE",
"182 643 OFFCURVE",
"177 625 CURVE SMOOTH",
"29 35 LINE SMOOTH",
"25 18 OFFCURVE",
"25 0 OFFCURVE",
"47 0 CURVE SMOOTH"
);
}
);
vertWidth = 0;
width = 374;
},
{
layerId = "6449507E-FEE0-4D4A-A81F-7CAB6A5803D5";
leftMetricsKey = n;
rightMetricsKey = n;
paths = (
{
closed = 1;
nodes = (
"289 0 OFFCURVE",
"297 18 OFFCURVE",
"304 46 CURVE SMOOTH",
"338 184 LINE SMOOTH",
"378 345 OFFCURVE",
"338 359 OFFCURVE",
"295 359 CURVE SMOOTH",
"240 359 OFFCURVE",
"167 296 OFFCURVE",
"121 217 CURVE",
"122 64 LINE",
"152 163 OFFCURVE",
"217 266 OFFCURVE",
"246 266 CURVE SMOOTH",
"263 266 OFFCURVE",
"253 219 OFFCURVE",
"249 201 CURVE SMOOTH",
"215 61 LINE SMOOTH",
"206 25 OFFCURVE",
"215 0 OFFCURVE",
"254 0 CURVE SMOOTH"
);
},
{
closed = 1;
nodes = (
"101 0 OFFCURVE",
"111 18 OFFCURVE",
"118 46 CURVE SMOOTH",
"255 592 LINE SMOOTH",
"264 629 OFFCURVE",
"251 650 OFFCURVE",
"219 650 CURVE SMOOTH",
"187 650 OFFCURVE",
"170 640 OFFCURVE",
"162 607 CURVE SMOOTH",
"26 64 LINE SMOOTH",
"16 25 OFFCURVE",
"29 0 OFFCURVE",
"65 0 CURVE SMOOTH"
);
}
);
vertWidth = 0;
width = 373;
}
);
leftKerningGroup = h_left;
note = "";
rightKerningGroup = n_right;
unicode = 0068;
},
{
glyphname = i;
lastChange = "2022-03-24 04:48:35 +0000";
layers = (
{
layerId = m01;
leftMetricsKey = n;
rightMetricsKey = n;
paths = (
{
closed = 1;
nodes = (
"72 0 OFFCURVE",
"75 14 OFFCURVE",
"80 32 CURVE SMOOTH",
"153 322 LINE SMOOTH",
"157 338 OFFCURVE",
"153 350 OFFCURVE",
"136 350 CURVE SMOOTH",
"117 350 OFFCURVE",
"107 343 OFFCURVE",
"102 325 CURVE SMOOTH",
"29 35 LINE SMOOTH",
"25 18 OFFCURVE",
"25 0 OFFCURVE",
"47 0 CURVE SMOOTH"
);
},
{
closed = 1;
nodes = (
"181 438 OFFCURVE",
"195 453 OFFCURVE",
"195 468 CURVE SMOOTH",
"195 485 OFFCURVE",
"179 497 OFFCURVE",
"164 497 CURVE SMOOTH",
"146 497 OFFCURVE",
"134 482 OFFCURVE",
"134 468 CURVE SMOOTH",
"134 453 OFFCURVE",
"147 438 OFFCURVE",
"164 438 CURVE SMOOTH"
);
}
);
vertWidth = 0;
width = 163;
},
{
layerId = "6449507E-FEE0-4D4A-A81F-7CAB6A5803D5";
leftMetricsKey = n;
rightMetricsKey = n;
paths = (
{
closed = 1;
nodes = (
"101 0 OFFCURVE",
"111 18 OFFCURVE",
"118 46 CURVE SMOOTH",
"181 299 LINE SMOOTH",
"190 336 OFFCURVE",
"177 357 OFFCURVE",
"145 357 CURVE SMOOTH",
"113 357 OFFCURVE",
"96 347 OFFCURVE",
"88 314 CURVE SMOOTH",
"26 64 LINE SMOOTH",
"16 25 OFFCURVE",
"29 0 OFFCURVE",
"65 0 CURVE SMOOTH"
);
},
{
closed = 1;
nodes = (
"200 393 OFFCURVE",
"224 418 OFFCURVE",
"224 444 CURVE SMOOTH",
"224 472 OFFCURVE",
"199 494 OFFCURVE",
"172 494 CURVE SMOOTH",
"141 494 OFFCURVE",
"121 469 OFFCURVE",
"121 444 CURVE SMOOTH",
"121 418 OFFCURVE",
"144 393 OFFCURVE",
"172 393 CURVE SMOOTH"
);
}
);
vertWidth = 0;
width = 197;
}
);
note = "";
unicode = 0069;
},
{
glyphname = j;
lastChange = "2022-03-24 04:48:44 +0000";
layers = (
{
layerId = m01;
rightMetricsKey = n;
paths = (
{
closed = 1;
nodes = (
"-28 -300 OFFCURVE",
"4 -273 OFFCURVE",
"17 -220 CURVE SMOOTH",
"153 322 LINE SMOOTH",
"157 338 OFFCURVE",
"153 350 OFFCURVE",
"136 350 CURVE SMOOTH",
"117 350 OFFCURVE",
"107 343 OFFCURVE",
"102 325 CURVE SMOOTH",
"-33 -208 LINE SMOOTH",
"-41 -239 OFFCURVE",
"-53 -255 OFFCURVE",
"-70 -255 CURVE SMOOTH",
"-83 -255 OFFCURVE",
"-94 -240 OFFCURVE",
"-99 -225 CURVE SMOOTH",
"-104 -209 OFFCURVE",
"-113 -206 OFFCURVE",
"-128 -210 CURVE SMOOTH",
"-145 -215 OFFCURVE",
"-152 -225 OFFCURVE",
"-146 -243 CURVE SMOOTH",
"-134 -278 OFFCURVE",
"-106 -300 OFFCURVE",
"-74 -300 CURVE SMOOTH"
);
},
{
closed = 1;
nodes = (
"181 438 OFFCURVE",
"195 453 OFFCURVE",
"195 468 CURVE SMOOTH",
"195 485 OFFCURVE",
"179 497 OFFCURVE",
"164 497 CURVE SMOOTH",
"146 497 OFFCURVE",
"134 482 OFFCURVE",
"134 468 CURVE SMOOTH",
"134 453 OFFCURVE",
"147 438 OFFCURVE",
"164 438 CURVE SMOOTH"
);
}
);
vertWidth = 0;
width = 163;
},
{
layerId = "6449507E-FEE0-4D4A-A81F-7CAB6A5803D5";
rightMetricsKey = n;
paths = (
{
closed = 1;
nodes = (
"7 -300 OFFCURVE",
"39 -270 OFFCURVE",
"55 -205 CURVE SMOOTH",
"181 299 LINE SMOOTH",
"190 336 OFFCURVE",
"177 357 OFFCURVE",
"145 357 CURVE SMOOTH",
"113 357 OFFCURVE",
"96 347 OFFCURVE",
"88 314 CURVE SMOOTH",
"-35 -180 LINE SMOOTH",
"-38 -190 OFFCURVE",
"-42 -198 OFFCURVE",
"-45 -198 CURVE SMOOTH",
"-46 -198 OFFCURVE",
"-48 -196 OFFCURVE",
"-49 -193 CURVE SMOOTH",
"-60 -161 OFFCURVE",
"-74 -152 OFFCURVE",
"-106 -161 CURVE SMOOTH",
"-141 -171 OFFCURVE",
"-154 -192 OFFCURVE",
"-142 -228 CURVE SMOOTH",
"-126 -274 OFFCURVE",
"-89 -300 OFFCURVE",
"-48 -300 CURVE SMOOTH"
);
},
{
closed = 1;
nodes = (
"200 393 OFFCURVE",
"224 418 OFFCURVE",
"224 444 CURVE SMOOTH",
"224 472 OFFCURVE",
"199 494 OFFCURVE",
"172 494 CURVE SMOOTH",
"141 494 OFFCURVE",
"121 469 OFFCURVE",
"121 444 CURVE SMOOTH",
"121 418 OFFCURVE",
"144 393 OFFCURVE",
"172 393 CURVE SMOOTH"
);
}
);
vertWidth = 0;
width = 197;
}
);
note = "";
unicode = 006A;
},
{
glyphname = k;
lastChange = "2022-03-24 04:49:59 +0000";
layers = (
{
layerId = m01;
leftMetricsKey = n;
rightMetricsKey = o;
paths = (
{
closed = 1;
nodes = (
"72 0 OFFCURVE",
"76 14 OFFCURVE",
"80 32 CURVE SMOOTH",
"228 622 LINE SMOOTH",
"232 638 OFFCURVE",
"228 649 OFFCURVE",
"211 650 CURVE SMOOTH",
"192 651 OFFCURVE",
"182 643 OFFCURVE",
"177 625 CURVE SMOOTH",
"29 35 LINE SMOOTH",
"25 18 OFFCURVE",
"25 0 OFFCURVE",
"47 0 CURVE SMOOTH"
);
},
{
closed = 1;
nodes = (
"290 0 OFFCURVE",
"306 19 OFFCURVE",
"290 42 CURVE SMOOTH",
"121 288 LINE",
"104 226 LINE",
"252 8 LINE SMOOTH",
"256 2 OFFCURVE",
"262 0 OFFCURVE",
"267 0 CURVE SMOOTH"
);
},
{
closed = 1;
nodes = (
"263 186 OFFCURVE",
"331 237 OFFCURVE",
"331 307 CURVE SMOOTH",
"331 336 OFFCURVE",
"314 354 OFFCURVE",
"286 354 CURVE SMOOTH",
"199 354 OFFCURVE",
"123 287 OFFCURVE",
"123 243 CURVE SMOOTH",
"123 210 OFFCURVE",
"143 186 OFFCURVE",
"170 186 CURVE SMOOTH"
);
},
{
closed = 1;
nodes = (
"166 229 OFFCURVE",
"158 232 OFFCURVE",
"158 239 CURVE SMOOTH",
"158 264 OFFCURVE",
"227 303 OFFCURVE",
"267 303 CURVE SMOOTH",
"274 303 OFFCURVE",
"278 299 OFFCURVE",
"278 292 CURVE SMOOTH",
"278 260 OFFCURVE",
"231 229 OFFCURVE",
"176 229 CURVE SMOOTH"
);
}
);
vertWidth = 0;
width = 361;
},
{
layerId = "6449507E-FEE0-4D4A-A81F-7CAB6A5803D5";
leftMetricsKey = n;
rightMetricsKey = o;
paths = (
{
closed = 1;
nodes = (
"109 0 OFFCURVE",
"111 20 OFFCURVE",
"119 51 CURVE SMOOTH",
"254 590 LINE SMOOTH",
"264 628 OFFCURVE",
"256 648 OFFCURVE",
"221 650 CURVE SMOOTH",
"188 652 OFFCURVE",
"170 638 OFFCURVE",
"162 607 CURVE SMOOTH",
"26 66 LINE SMOOTH",
"16 25 OFFCURVE",
"29 0 OFFCURVE",
"69 0 CURVE SMOOTH"
);
},
{
closed = 1;
nodes = (
"316 0 OFFCURVE",
"344 38 OFFCURVE",
"314 82 CURVE SMOOTH",
"145 328 LINE",
"110 202 LINE",
"234 19 LINE SMOOTH",
"244 5 OFFCURVE",
"258 0 OFFCURVE",
"271 0 CURVE SMOOTH"
);
},
{
closed = 1;
nodes = (
"298 159 OFFCURVE",
"367 213 OFFCURVE",
"367 289 CURVE SMOOTH",
"367 333 OFFCURVE",
"340 359 OFFCURVE",
"298 359 CURVE SMOOTH",
"197 359 OFFCURVE",
"131 278 OFFCURVE",
"131 230 CURVE SMOOTH",
"131 188 OFFCURVE",
"164 159 OFFCURVE",
"192 159 CURVE SMOOTH"
);
},
{
closed = 1;
nodes = (
"215 226 OFFCURVE",
"209 232 OFFCURVE",
"209 240 CURVE SMOOTH",
"209 259 OFFCURVE",
"243 280 OFFCURVE",
"264 280 CURVE SMOOTH",
"273 280 OFFCURVE",
"279 275 OFFCURVE",
"279 267 CURVE SMOOTH",
"279 248 OFFCURVE",
"245 226 OFFCURVE",
"224 226 CURVE SMOOTH"
);
}
);
vertWidth = 0;
width = 366;
}
);
leftKerningGroup = h_left;
note = "";
unicode = 006B;
},
{
glyphname = l;
lastChange = "2022-03-24 04:50:15 +0000";
layers = (
{
layerId = m01;
leftMetricsKey = n;
rightMetricsKey = n;
paths = (
{
closed = 1;
nodes = (
"132 0 OFFCURVE",
"166 26 OFFCURVE",
"206 77 CURVE SMOOTH",
"226 103 OFFCURVE",
"230 109 OFFCURVE",
"230 120 CURVE SMOOTH",
"230 134 OFFCURVE",
"222 143 OFFCURVE",
"210 143 CURVE SMOOTH",
"197 143 OFFCURVE",
"190 134 OFFCURVE",
"172 110 CURVE SMOOTH",
"141 67 OFFCURVE",
"120 45 OFFCURVE",
"109 45 CURVE SMOOTH",
"93 45 OFFCURVE",
"92 79 OFFCURVE",
"105 133 CURVE SMOOTH",
"228 622 LINE SMOOTH",
"232 638 OFFCURVE",
"228 650 OFFCURVE",
"211 650 CURVE SMOOTH",
"192 650 OFFCURVE",
"182 643 OFFCURVE",
"177 625 CURVE SMOOTH",
"56 144 LINE SMOOTH",
"34 55 OFFCURVE",
"53 0 OFFCURVE",
"104 0 CURVE SMOOTH"
);
}
);
vertWidth = 0;
width = 241;
},
{
layerId = "6449507E-FEE0-4D4A-A81F-7CAB6A5803D5";
leftMetricsKey = n;
rightMetricsKey = n;
paths = (
{
closed = 1;
nodes = (
"151 0 OFFCURVE",
"197 29 OFFCURVE",
"241 86 CURVE SMOOTH",
"258 109 OFFCURVE",
"263 126 OFFCURVE",
"263 143 CURVE SMOOTH",
"263 164 OFFCURVE",
"249 181 OFFCURVE",
"228 181 CURVE SMOOTH",
"206 181 OFFCURVE",
"192 167 OFFCURVE",
"179 141 CURVE SMOOTH",
"166 115 OFFCURVE",
"143 87 OFFCURVE",
"137 87 CURVE SMOOTH",
"131 87 OFFCURVE",
"136 115 OFFCURVE",
"140 130 CURVE SMOOTH",
"256 596 LINE SMOOTH",
"265 632 OFFCURVE",
"248 650 OFFCURVE",
"216 650 CURVE SMOOTH",
"186 650 OFFCURVE",
"170 639 OFFCURVE",
"163 611 CURVE SMOOTH",
"48 151 LINE SMOOTH",
"18 32 OFFCURVE",
"60 0 OFFCURVE",
"112 0 CURVE SMOOTH"
);
}
);
vertWidth = 0;
width = 290;
}
);
leftKerningGroup = h_left;
note = "";
unicode = 006C;
},
{
glyphname = m;
lastChange = "2022-03-24 04:50:32 +0000";
layers = (
{
layerId = m01;
leftMetricsKey = n;
rightMetricsKey = n;
paths = (
{
closed = 1;
nodes = (
"264 -1 OFFCURVE",
"267 13 OFFCURVE",
"272 31 CURVE SMOOTH",
"310 183 LINE SMOOTH",
"340 301 OFFCURVE",
"326 354 OFFCURVE",
"262 354 CURVE SMOOTH",
"210 354 OFFCURVE",
"157 290 OFFCURVE",
"110 209 CURVE",
"86 96 LINE",
"105 168 OFFCURVE",
"205 308 OFFCURVE",
"250 308 CURVE SMOOTH",
"277 308 OFFCURVE",
"281 270 OFFCURVE",
"260 188 CURVE SMOOTH",
"221 34 LINE SMOOTH",
"217 17 OFFCURVE",
"217 -1 OFFCURVE",
"239 -1 CURVE SMOOTH"
);
},
{
closed = 1;
nodes = (
"62 0 OFFCURVE",
"65 14 OFFCURVE",
"70 32 CURVE SMOOTH",
"143 322 LINE SMOOTH",
"147 338 OFFCURVE",
"143 349 OFFCURVE",
"126 350 CURVE SMOOTH",
"107 351 OFFCURVE",
"97 343 OFFCURVE",
"92 325 CURVE SMOOTH",
"19 35 LINE SMOOTH",
"15 18 OFFCURVE",
"15 0 OFFCURVE",
"37 0 CURVE SMOOTH"
);
},
{
closed = 1;
nodes = (
"465 -1 OFFCURVE",
"468 13 OFFCURVE",
"473 31 CURVE SMOOTH",
"511 183 LINE SMOOTH",
"541 301 OFFCURVE",
"527 354 OFFCURVE",
"463 354 CURVE SMOOTH",
"411 354 OFFCURVE",
"358 290 OFFCURVE",
"311 209 CURVE",
"287 96 LINE",
"306 168 OFFCURVE",
"406 308 OFFCURVE",
"451 308 CURVE SMOOTH",
"478 308 OFFCURVE",
"482 270 OFFCURVE",
"461 188 CURVE SMOOTH",
"422 34 LINE SMOOTH",
"418 17 OFFCURVE",
"418 -1 OFFCURVE",
"440 -1 CURVE SMOOTH"
);
}
);
vertWidth = 0;
width = 545;
},
{
layerId = "6449507E-FEE0-4D4A-A81F-7CAB6A5803D5";
leftMetricsKey = n;
rightMetricsKey = n;
paths = (
{
closed = 1;
nodes = (
"269 0 OFFCURVE",
"277 18 OFFCURVE",
"284 46 CURVE SMOOTH",
"318 184 LINE SMOOTH",
"358 345 OFFCURVE",
"318 359 OFFCURVE",
"275 359 CURVE SMOOTH",
"220 359 OFFCURVE",
"157 296 OFFCURVE",
"111 217 CURVE",
"112 64 LINE",
"142 163 OFFCURVE",
"197 266 OFFCURVE",
"226 266 CURVE SMOOTH",
"243 266 OFFCURVE",
"233 219 OFFCURVE",
"229 201 CURVE SMOOTH",
"195 61 LINE SMOOTH",
"186 25 OFFCURVE",
"195 0 OFFCURVE",
"234 0 CURVE SMOOTH"
);
},
{
closed = 1;
nodes = (
"91 0 OFFCURVE",
"101 18 OFFCURVE",
"108 46 CURVE SMOOTH",
"171 299 LINE SMOOTH",
"180 336 OFFCURVE",
"167 357 OFFCURVE",
"135 357 CURVE SMOOTH",
"103 357 OFFCURVE",
"86 347 OFFCURVE",
"78 314 CURVE SMOOTH",
"16 64 LINE SMOOTH",
"6 25 OFFCURVE",
"19 0 OFFCURVE",
"55 0 CURVE SMOOTH"
);
},
{
closed = 1;
nodes = (
"445 0 OFFCURVE",
"453 18 OFFCURVE",
"460 46 CURVE SMOOTH",
"494 184 LINE SMOOTH",
"534 345 OFFCURVE",
"494 359 OFFCURVE",
"451 359 CURVE SMOOTH",
"396 359 OFFCURVE",
"333 296 OFFCURVE",
"287 217 CURVE",
"288 64 LINE",
"318 163 OFFCURVE",
"373 266 OFFCURVE",
"402 266 CURVE SMOOTH",
"419 266 OFFCURVE",
"409 219 OFFCURVE",
"405 201 CURVE SMOOTH",
"371 61 LINE SMOOTH",
"362 25 OFFCURVE",
"371 0 OFFCURVE",
"410 0 CURVE SMOOTH"
);
}
);
vertWidth = 0;
width = 529;
}
);
leftKerningGroup = n_left;
note = "";
rightKerningGroup = n_right;
unicode = 006D;
},
{
glyphname = n;
lastChange = "2022-03-24 04:50:45 +0000";
layers = (
{
layerId = m01;
paths = (
{
closed = 1;
nodes = (
"284 0 OFFCURVE",
"287 14 OFFCURVE",
"292 32 CURVE SMOOTH",
"330 183 LINE SMOOTH",
"360 301 OFFCURVE",
"346 354 OFFCURVE",
"282 354 CURVE SMOOTH",
"230 354 OFFCURVE",
"157 290 OFFCURVE",
"110 209 CURVE",
"86 96 LINE",
"105 168 OFFCURVE",
"225 308 OFFCURVE",
"270 308 CURVE SMOOTH",
"297 308 OFFCURVE",
"301 270 OFFCURVE",
"280 188 CURVE SMOOTH",
"241 35 LINE SMOOTH",
"237 18 OFFCURVE",
"237 0 OFFCURVE",
"259 0 CURVE SMOOTH"
);
},
{
closed = 1;
nodes = (
"62 0 OFFCURVE",
"65 14 OFFCURVE",
"70 32 CURVE SMOOTH",
"143 322 LINE SMOOTH",
"147 338 OFFCURVE",
"143 350 OFFCURVE",
"126 350 CURVE SMOOTH",
"107 350 OFFCURVE",
"97 343 OFFCURVE",
"92 325 CURVE SMOOTH",
"19 35 LINE SMOOTH",
"15 18 OFFCURVE",
"15 0 OFFCURVE",
"37 0 CURVE SMOOTH"
);
}
);
vertWidth = 0;
width = 364;
},
{
layerId = "6449507E-FEE0-4D4A-A81F-7CAB6A5803D5";
paths = (
{
closed = 1;
nodes = (
"279 0 OFFCURVE",
"287 18 OFFCURVE",
"294 46 CURVE SMOOTH",
"328 184 LINE SMOOTH",
"368 345 OFFCURVE",
"328 359 OFFCURVE",
"285 359 CURVE SMOOTH",
"230 359 OFFCURVE",
"157 296 OFFCURVE",
"111 217 CURVE",
"112 64 LINE",
"142 163 OFFCURVE",
"207 266 OFFCURVE",
"236 266 CURVE SMOOTH",
"253 266 OFFCURVE",
"243 219 OFFCURVE",
"239 201 CURVE SMOOTH",
"205 61 LINE SMOOTH",
"196 25 OFFCURVE",
"205 0 OFFCURVE",
"244 0 CURVE SMOOTH"
);
},
{
closed = 1;
nodes = (
"91 0 OFFCURVE",
"101 18 OFFCURVE",
"108 46 CURVE SMOOTH",
"171 299 LINE SMOOTH",
"180 336 OFFCURVE",
"167 357 OFFCURVE",
"135 357 CURVE SMOOTH",
"103 357 OFFCURVE",
"86 347 OFFCURVE",
"78 314 CURVE SMOOTH",
"16 64 LINE SMOOTH",
"6 25 OFFCURVE",
"19 0 OFFCURVE",
"55 0 CURVE SMOOTH"
);
}
);
vertWidth = 0;
width = 363;
}
);
leftKerningGroup = n_left;
note = "";
rightKerningGroup = n_right;
unicode = 006E;
},
{
glyphname = o;
lastChange = "2022-03-24 04:50:56 +0000";
layers = (
{
layerId = m01;
paths = (
{
closed = 1;
nodes = (
"197 0 OFFCURVE",
"264 74 OFFCURVE",
"291 182 CURVE SMOOTH",
"317 286 OFFCURVE",
"284 354 OFFCURVE",
"217 354 CURVE SMOOTH",
"137 354 OFFCURVE",
"70 280 OFFCURVE",
"43 172 CURVE SMOOTH",
"17 68 OFFCURVE",
"50 0 OFFCURVE",
"117 0 CURVE SMOOTH"
);
},
{
closed = 1;
nodes = (
"88 45 OFFCURVE",
"74 85 OFFCURVE",
"93 163 CURVE SMOOTH",
"114 248 OFFCURVE",
"158 309 OFFCURVE",
"206 309 CURVE SMOOTH",
"246 309 OFFCURVE",
"260 269 OFFCURVE",
"241 191 CURVE SMOOTH",
"220 106 OFFCURVE",
"176 45 OFFCURVE",
"128 45 CURVE SMOOTH"
);
}
);
vertWidth = 0;
width = 316;
},
{
layerId = "6449507E-FEE0-4D4A-A81F-7CAB6A5803D5";
paths = (
{
closed = 1;
nodes = (
"218 0 OFFCURVE",
"290 69 OFFCURVE",
"318 180 CURVE SMOOTH",
"345 291 OFFCURVE",
"310 359 OFFCURVE",
"225 359 CURVE SMOOTH",
"135 359 OFFCURVE",
"63 292 OFFCURVE",
"36 184 CURVE SMOOTH",
"8 70 OFFCURVE",
"43 0 OFFCURVE",
"129 0 CURVE SMOOTH"
);
},
{
closed = 1;
nodes = (
"123 90 OFFCURVE",
"117 118 OFFCURVE",
"129 164 CURVE SMOOTH",
"145 229 OFFCURVE",
"176 269 OFFCURVE",
"210 269 CURVE SMOOTH",
"230 269 OFFCURVE",
"236 243 OFFCURVE",
"225 200 CURVE SMOOTH",
"208 132 OFFCURVE",
"177 90 OFFCURVE",
"144 90 CURVE SMOOTH"
);
}
);
vertWidth = 0;
width = 343;
}
);
leftKerningGroup = o_left;
note = "";
rightKerningGroup = o_right;
unicode = 006F;
},
{
glyphname = p;
lastChange = "2022-03-24 04:53:18 +0000";
layers = (
{
layerId = m01;
leftMetricsKey = n;
rightMetricsKey = o;
paths = (
{
closed = 1;
nodes = (
"-13 -300 OFFCURVE",
"-9 -286 OFFCURVE",
"-5 -268 CURVE SMOOTH",
"143 322 LINE SMOOTH",
"147 338 OFFCURVE",
"143 350 OFFCURVE",
"126 350 CURVE SMOOTH",
"107 350 OFFCURVE",
"97 343 OFFCURVE",
"92 325 CURVE SMOOTH",
"-56 -265 LINE SMOOTH",
"-60 -282 OFFCURVE",
"-60 -300 OFFCURVE",
"-38 -300 CURVE SMOOTH"
);
},
{
closed = 1;
nodes = (
"207 0 OFFCURVE",
"274 74 OFFCURVE",
"301 182 CURVE SMOOTH",
"327 286 OFFCURVE",
"294 354 OFFCURVE",
"227 354 CURVE SMOOTH",
"160 354 OFFCURVE",
"101 285 OFFCURVE",
"73 172 CURVE SMOOTH",
"46 66 OFFCURVE",
"67 0 OFFCURVE",
"127 0 CURVE SMOOTH"
);
},
{
closed = 1;
nodes = (
"98 45 OFFCURVE",
"84 85 OFFCURVE",
"103 163 CURVE SMOOTH",
"124 248 OFFCURVE",
"168 309 OFFCURVE",
"216 309 CURVE SMOOTH",
"256 309 OFFCURVE",
"270 269 OFFCURVE",
"251 191 CURVE SMOOTH",
"230 106 OFFCURVE",
"186 45 OFFCURVE",
"138 45 CURVE SMOOTH"
);
}
);
vertWidth = 0;
width = 326;
},
{
layerId = "6449507E-FEE0-4D4A-A81F-7CAB6A5803D5";
leftMetricsKey = n;
rightMetricsKey = o;
paths = (
{
closed = 1;
nodes = (
"25 -300 OFFCURVE",
"27 -280 OFFCURVE",
"35 -249 CURVE SMOOTH",
"171 298 LINE SMOOTH",
"181 337 OFFCURVE",
"171 357 OFFCURVE",
"136 357 CURVE SMOOTH",
"103 357 OFFCURVE",
"86 345 OFFCURVE",
"78 314 CURVE SMOOTH",
"-58 -234 LINE SMOOTH",
"-68 -275 OFFCURVE",
"-55 -300 OFFCURVE",
"-15 -300 CURVE SMOOTH"
);
},
{
closed = 1;
nodes = (
"227 0 OFFCURVE",
"299 69 OFFCURVE",
"327 180 CURVE SMOOTH",
"354 291 OFFCURVE",
"319 359 OFFCURVE",
"253 359 CURVE SMOOTH",
"166 359 OFFCURVE",
"141 291 OFFCURVE",
"115 184 CURVE SMOOTH",
"85 63 OFFCURVE",
"84 0 OFFCURVE",
"162 0 CURVE SMOOTH"
);
},
{
closed = 1;
nodes = (
"132 90 OFFCURVE",
"126 118 OFFCURVE",
"138 164 CURVE SMOOTH",
"154 229 OFFCURVE",
"185 269 OFFCURVE",
"219 269 CURVE SMOOTH",
"239 269 OFFCURVE",
"245 243 OFFCURVE",
"234 200 CURVE SMOOTH",
"217 132 OFFCURVE",
"186 90 OFFCURVE",
"153 90 CURVE SMOOTH"
);
}
);
vertWidth = 0;
width = 352;
}
);
leftKerningGroup = n_left;
note = "";
rightKerningGroup = o_right;
unicode = 0070;
},
{
glyphname = q;
lastChange = "2022-03-24 04:53:37 +0000";
layers = (
{
layerId = m01;
leftMetricsKey = o;
paths = (
{
closed = 1;
nodes = (
"209 -300 OFFCURVE",
"260 -262 OFFCURVE",
"322 -200 CURVE SMOOTH",
"332 -190 OFFCURVE",
"337 -180 OFFCURVE",
"338 -169 CURVE SMOOTH",
"340 -157 OFFCURVE",
"331 -149 OFFCURVE",
"320 -147 CURVE SMOOTH",
"309 -145 OFFCURVE",
"300 -152 OFFCURVE",
"287 -165 CURVE SMOOTH",
"238 -214 OFFCURVE",
"207 -243 OFFCURVE",
"197 -243 CURVE SMOOTH",
"188 -243 OFFCURVE",
"187 -234 OFFCURVE",
"194 -206 CURVE SMOOTH",
"326 322 LINE SMOOTH",
"330 338 OFFCURVE",
"326 350 OFFCURVE",
"309 350 CURVE SMOOTH",
"290 350 OFFCURVE",
"280 343 OFFCURVE",
"275 325 CURVE SMOOTH",
"144 -197 LINE SMOOTH",
"127 -265 OFFCURVE",
"137 -300 OFFCURVE",
"173 -300 CURVE SMOOTH"
);
},
{
closed = 1;
nodes = (
"184 0 OFFCURVE",
"243 69 OFFCURVE",
"271 182 CURVE SMOOTH",
"298 288 OFFCURVE",
"277 354 OFFCURVE",
"217 354 CURVE SMOOTH",
"137 354 OFFCURVE",
"70 280 OFFCURVE",
"43 172 CURVE SMOOTH",
"17 68 OFFCURVE",
"50 0 OFFCURVE",
"117 0 CURVE SMOOTH"
);
},
{
closed = 1;
nodes = (
"88 45 OFFCURVE",
"74 85 OFFCURVE",
"93 163 CURVE SMOOTH",
"114 248 OFFCURVE",
"158 309 OFFCURVE",
"206 309 CURVE SMOOTH",
"246 309 OFFCURVE",
"260 269 OFFCURVE",
"241 191 CURVE SMOOTH",
"220 106 OFFCURVE",
"176 45 OFFCURVE",
"128 45 CURVE SMOOTH"
);
}
);
vertWidth = 0;
width = 326;
},
{
layerId = "6449507E-FEE0-4D4A-A81F-7CAB6A5803D5";
leftMetricsKey = o;
paths = (
{
closed = 1;
nodes = (
"241 -300 OFFCURVE",
"287 -271 OFFCURVE",
"331 -214 CURVE SMOOTH",
"348 -191 OFFCURVE",
"353 -174 OFFCURVE",
"353 -157 CURVE SMOOTH",
"353 -136 OFFCURVE",
"339 -119 OFFCURVE",
"318 -119 CURVE SMOOTH",
"296 -119 OFFCURVE",
"282 -133 OFFCURVE",
"269 -159 CURVE SMOOTH",
"256 -185 OFFCURVE",
"233 -213 OFFCURVE",
"227 -213 CURVE SMOOTH",
"219 -213 OFFCURVE",
"225 -185 OFFCURVE",
"229 -170 CURVE SMOOTH",
"347 305 LINE SMOOTH",
"356 341 OFFCURVE",
"340 359 OFFCURVE",
"308 359 CURVE SMOOTH",
"278 359 OFFCURVE",
"262 348 OFFCURVE",
"255 320 CURVE SMOOTH",
"138 -149 LINE SMOOTH",
"108 -268 OFFCURVE",
"150 -300 OFFCURVE",
"202 -300 CURVE SMOOTH"
);
},
{
closed = 1;
nodes = (
"189 0 OFFCURVE",
"220 75 OFFCURVE",
"248 180 CURVE SMOOTH",
"277 288 OFFCURVE",
"281 359 OFFCURVE",
"212 359 CURVE SMOOTH",
"135 359 OFFCURVE",
"63 292 OFFCURVE",
"36 184 CURVE SMOOTH",
"8 70 OFFCURVE",
"43 0 OFFCURVE",
"123 0 CURVE SMOOTH"
);
},
{
closed = 1;
nodes = (
"123 90 OFFCURVE",
"117 118 OFFCURVE",
"129 164 CURVE SMOOTH",
"145 229 OFFCURVE",
"176 269 OFFCURVE",
"210 269 CURVE SMOOTH",
"230 269 OFFCURVE",
"236 243 OFFCURVE",
"225 200 CURVE SMOOTH",
"208 132 OFFCURVE",
"177 90 OFFCURVE",
"144 90 CURVE SMOOTH"
);
}
);
vertWidth = 0;
width = 351;
}
);
leftKerningGroup = o_left;
note = "";
unicode = 0071;
},
{
glyphname = r;
lastChange = "2022-03-24 04:55:07 +0000";
layers = (
{
layerId = m01;
leftMetricsKey = n;
paths = (
{
closed = 1;
nodes = (
"62 0 OFFCURVE",
"65 14 OFFCURVE",
"70 32 CURVE SMOOTH",
"143 322 LINE SMOOTH",
"147 338 OFFCURVE",
"143 349 OFFCURVE",
"126 350 CURVE SMOOTH",
"107 351 OFFCURVE",
"97 343 OFFCURVE",
"92 325 CURVE SMOOTH",
"19 35 LINE SMOOTH",
"15 18 OFFCURVE",
"15 0 OFFCURVE",
"37 0 CURVE SMOOTH"
);
},
{
closed = 1;
nodes = (
"105 168 OFFCURVE",
"219 308 OFFCURVE",
"264 308 CURVE SMOOTH",
"275 308 OFFCURVE",
"283 299 OFFCURVE",
"287 280 CURVE SMOOTH",
"290 265 OFFCURVE",
"302 260 OFFCURVE",
"319 264 CURVE SMOOTH",
"331 267 OFFCURVE",
"341 277 OFFCURVE",
"338 290 CURVE SMOOTH",
"327 332 OFFCURVE",
"306 354 OFFCURVE",
"276 354 CURVE SMOOTH",
"224 354 OFFCURVE",
"157 290 OFFCURVE",
"110 209 CURVE",
"86 96 LINE"
);
}
);
vertWidth = 0;
width = 318;
},
{
layerId = "6449507E-FEE0-4D4A-A81F-7CAB6A5803D5";
leftMetricsKey = n;
paths = (
{
closed = 1;
nodes = (
"95 0 OFFCURVE",
"102 18 OFFCURVE",
"110 48 CURVE SMOOTH",
"175 302 LINE SMOOTH",
"183 335 OFFCURVE",
"167 357 OFFCURVE",
"134 357 CURVE SMOOTH",
"105 357 OFFCURVE",
"86 346 OFFCURVE",
"79 317 CURVE SMOOTH",
"17 63 LINE SMOOTH",
"8 26 OFFCURVE",
"17 0 OFFCURVE",
"57 0 CURVE SMOOTH"
);
},
{
closed = 1;
nodes = (
"139 155 OFFCURVE",
"213 274 OFFCURVE",
"243 274 CURVE SMOOTH",
"248 274 OFFCURVE",
"252 270 OFFCURVE",
"254 263 CURVE SMOOTH",
"261 236 OFFCURVE",
"284 223 OFFCURVE",
"314 230 CURVE SMOOTH",
"344 238 OFFCURVE",
"356 258 OFFCURVE",
"350 281 CURVE SMOOTH",
"337 333 OFFCURVE",
"310 359 OFFCURVE",
"272 359 CURVE SMOOTH",
"221 359 OFFCURVE",
"168 304 OFFCURVE",
"121 222 CURVE",
"110 51 LINE"
);
}
);
vertWidth = 0;
width = 335;
}
);
leftKerningGroup = n_left;
note = "";
unicode = 0072;
},
{
glyphname = s;
lastChange = "2022-03-24 04:55:21 +0000";
layers = (
{
layerId = m01;
leftMetricsKey = o;
rightMetricsKey = o;
paths = (
{
closed = 1;
nodes = (
"194 0 OFFCURVE",
"258 53 OFFCURVE",
"267 123 CURVE SMOOTH",
"274 177 OFFCURVE",
"252 208 OFFCURVE",
"175 208 CURVE SMOOTH",
"130 208 OFFCURVE",
"109 220 OFFCURVE",
"114 249 CURVE SMOOTH",
"121 287 OFFCURVE",
"149 309 OFFCURVE",
"185 309 CURVE SMOOTH",
"207 309 OFFCURVE",
"225 299 OFFCURVE",
"240 280 CURVE SMOOTH",
"250 267 OFFCURVE",
"266 254 OFFCURVE",
"279 263 CURVE SMOOTH",
"293 273 OFFCURVE",
"299 285 OFFCURVE",
"281 310 CURVE SMOOTH",
"258 339 OFFCURVE",
"230 354 OFFCURVE",
"196 354 CURVE SMOOTH",
"131 354 OFFCURVE",
"77 310 OFFCURVE",
"66 251 CURVE SMOOTH",
"55 190 OFFCURVE",
"86 160 OFFCURVE",
"156 160 CURVE SMOOTH",
"212 160 OFFCURVE",
"221 148 OFFCURVE",
"217 116 CURVE SMOOTH",
"212 75 OFFCURVE",
"174 45 OFFCURVE",
"129 45 CURVE SMOOTH",
"100 45 OFFCURVE",
"79 56 OFFCURVE",
"66 79 CURVE SMOOTH",
"56 96 OFFCURVE",
"46 106 OFFCURVE",
"32 98 CURVE SMOOTH",
"17 89 OFFCURVE",
"17 71 OFFCURVE",
"28 54 CURVE SMOOTH",
"50 18 OFFCURVE",
"81 0 OFFCURVE",
"122 0 CURVE SMOOTH"
);
}
);
vertWidth = 0;
width = 307;
},
{
layerId = "6449507E-FEE0-4D4A-A81F-7CAB6A5803D5";
leftMetricsKey = o;
rightMetricsKey = o;
paths = (
{
closed = 1;
nodes = (
"213 0 OFFCURVE",
"278 55 OFFCURVE",
"287 127 CURVE SMOOTH",
"295 188 OFFCURVE",
"276 230 OFFCURVE",
"183 230 CURVE",
"164 230 OFFCURVE",
"163 242 OFFCURVE",
"164 249 CURVE SMOOTH",
"166 261 OFFCURVE",
"179 269 OFFCURVE",
"196 269 CURVE SMOOTH",
"210 269 OFFCURVE",
"219 265 OFFCURVE",
"227 258 CURVE SMOOTH",
"253 236 OFFCURVE",
"280 234 OFFCURVE",
"298 252 CURVE SMOOTH",
"321 275 OFFCURVE",
"319 304 OFFCURVE",
"291 328 CURVE SMOOTH",
"267 349 OFFCURVE",
"238 359 OFFCURVE",
"205 359 CURVE SMOOTH",
"136 359 OFFCURVE",
"81 315 OFFCURVE",
"69 254 CURVE SMOOTH",
"57 184 OFFCURVE",
"84 136 OFFCURVE",
"167 136 CURVE SMOOTH",
"175 136 OFFCURVE",
"194 135 OFFCURVE",
"192 119 CURVE SMOOTH",
"190 105 OFFCURVE",
"168 90 OFFCURVE",
"144 90 CURVE SMOOTH",
"130 90 OFFCURVE",
"119 96 OFFCURVE",
"113 106 CURVE SMOOTH",
"91 142 OFFCURVE",
"71 144 OFFCURVE",
"49 132 CURVE SMOOTH",
"24 117 OFFCURVE",
"16 89 OFFCURVE",
"36 58 CURVE SMOOTH",
"60 19 OFFCURVE",
"94 0 OFFCURVE",
"138 0 CURVE SMOOTH"
);
}
);
vertWidth = 0;
width = 326;
}
);
note = "";
unicode = 0073;
},
{
glyphname = t;
lastChange = "2022-03-24 04:56:14 +0000";
layers = (
{
layerId = m01;
paths = (
{
closed = 1;
nodes = (
"253 305 LINE SMOOTH",
"273 305 OFFCURVE",
"279 316 OFFCURVE",
"279 328 CURVE SMOOTH",
"279 340 OFFCURVE",
"273 350 OFFCURVE",
"253 350 CURVE SMOOTH",
"67 350 LINE SMOOTH",
"47 350 OFFCURVE",
"41 340 OFFCURVE",
"41 328 CURVE SMOOTH",
"41 316 OFFCURVE",
"47 305 OFFCURVE",
"67 305 CURVE SMOOTH"
);
},
{
closed = 1;
nodes = (
"151 0 OFFCURVE",
"192 33 OFFCURVE",
"255 114 CURVE SMOOTH",
"277 142 OFFCURVE",
"286 163 OFFCURVE",
"286 171 CURVE SMOOTH",
"286 179 OFFCURVE",
"281 180 OFFCURVE",
"277 180 CURVE SMOOTH",
"265 180 OFFCURVE",
"254 170 OFFCURVE",
"233 147 CURVE SMOOTH",
"169 80 OFFCURVE",
"139 52 OFFCURVE",
"128 52 CURVE SMOOTH",
"112 52 OFFCURVE",
"111 76 OFFCURVE",
"125 133 CURVE SMOOTH",
"208 463 LINE SMOOTH",
"212 479 OFFCURVE",
"208 491 OFFCURVE",
"191 491 CURVE SMOOTH",
"172 491 OFFCURVE",
"162 484 OFFCURVE",
"157 466 CURVE SMOOTH",
"76 144 LINE SMOOTH",
"50 42 OFFCURVE",
"64 0 OFFCURVE",
"116 0 CURVE SMOOTH"
);
}
);
vertWidth = 0;
width = 299;
},
{
layerId = "6449507E-FEE0-4D4A-A81F-7CAB6A5803D5";
paths = (
{
closed = 1;
nodes = (
"266 263 LINE SMOOTH",
"305 263 OFFCURVE",
"316 288 OFFCURVE",
"316 310 CURVE SMOOTH",
"316 333 OFFCURVE",
"308 357 OFFCURVE",
"266 357 CURVE SMOOTH",
"90 357 LINE SMOOTH",
"49 357 OFFCURVE",
"40 333 OFFCURVE",
"40 310 CURVE SMOOTH",
"40 288 OFFCURVE",
"50 263 OFFCURVE",
"90 263 CURVE SMOOTH"
);
},
{
closed = 1;
nodes = (
"179 0 OFFCURVE",
"242 29 OFFCURVE",
"308 113 CURVE SMOOTH",
"334 146 OFFCURVE",
"342 171 OFFCURVE",
"342 180 CURVE SMOOTH",
"342 211 OFFCURVE",
"322 215 OFFCURVE",
"307 215 CURVE SMOOTH",
"292 215 OFFCURVE",
"274 209 OFFCURVE",
"248 176 CURVE SMOOTH",
"211 130 OFFCURVE",
"184 100 OFFCURVE",
"176 100 CURVE SMOOTH",
"169 100 OFFCURVE",
"174 125 OFFCURVE",
"178 139 CURVE",
"251 433 LINE SMOOTH",
"261 472 OFFCURVE",
"245 491 OFFCURVE",
"210 491 CURVE SMOOTH",
"179 491 OFFCURVE",
"163 478 OFFCURVE",
"155 450 CURVE SMOOTH",
"81 162 LINE SMOOTH",
"42 6 OFFCURVE",
"87 0 OFFCURVE",
"144 0 CURVE SMOOTH"
);
}
);
vertWidth = 0;
width = 370;
}
);
note = "";
unicode = 0074;
},
{
glyphname = u;
lastChange = "2022-03-24 04:56:28 +0000";
layers = (
{
layerId = m01;
leftMetricsKey = n;
rightMetricsKey = n;
paths = (
{
closed = 1;
nodes = (
"151 0 OFFCURVE",
"214 59 OFFCURVE",
"261 140 CURVE",
"285 253 LINE",
"266 181 OFFCURVE",
"156 46 OFFCURVE",
"111 46 CURVE SMOOTH",
"84 46 OFFCURVE",
"80 79 OFFCURVE",
"101 161 CURVE SMOOTH",
"142 322 LINE SMOOTH",
"146 338 OFFCURVE",
"142 350 OFFCURVE",
"125 350 CURVE SMOOTH",
"106 350 OFFCURVE",
"96 343 OFFCURVE",
"91 325 CURVE SMOOTH",
"51 166 LINE SMOOTH",
"21 48 OFFCURVE",
"35 0 OFFCURVE",
"99 0 CURVE SMOOTH"
);
},
{
closed = 1;
nodes = (
"273 0 OFFCURVE",
"276 14 OFFCURVE",
"281 32 CURVE SMOOTH",
"354 322 LINE SMOOTH",
"358 338 OFFCURVE",
"354 350 OFFCURVE",
"337 350 CURVE SMOOTH",
"318 350 OFFCURVE",
"308 343 OFFCURVE",
"303 325 CURVE SMOOTH",
"230 35 LINE SMOOTH",
"226 18 OFFCURVE",
"226 0 OFFCURVE",
"248 0 CURVE SMOOTH"
);
}
);
vertWidth = 0;
width = 354;
},
{
layerId = "6449507E-FEE0-4D4A-A81F-7CAB6A5803D5";
leftMetricsKey = n;
rightMetricsKey = n;
paths = (
{
closed = 1;
nodes = (
"142 0 OFFCURVE",
"215 63 OFFCURVE",
"261 142 CURVE",
"260 293 LINE",
"230 194 OFFCURVE",
"165 93 OFFCURVE",
"136 93 CURVE SMOOTH",
"119 93 OFFCURVE",
"129 140 OFFCURVE",
"133 158 CURVE SMOOTH",
"167 296 LINE SMOOTH",
"176 332 OFFCURVE",
"167 357 OFFCURVE",
"128 357 CURVE SMOOTH",
"93 357 OFFCURVE",
"85 339 OFFCURVE",
"78 311 CURVE SMOOTH",
"44 175 LINE SMOOTH",
"4 14 OFFCURVE",
"44 0 OFFCURVE",
"87 0 CURVE SMOOTH"
);
},
{
closed = 1;
nodes = (
"268 0 OFFCURVE",
"285 10 OFFCURVE",
"293 43 CURVE SMOOTH",
"356 293 LINE SMOOTH",
"366 332 OFFCURVE",
"353 357 OFFCURVE",
"317 357 CURVE SMOOTH",
"281 357 OFFCURVE",
"271 339 OFFCURVE",
"264 311 CURVE SMOOTH",
"200 58 LINE SMOOTH",
"191 21 OFFCURVE",
"204 0 OFFCURVE",
"236 0 CURVE SMOOTH"
);
}
);
vertWidth = 0;
width = 363;
}
);
leftKerningGroup = n_left;
note = "";
rightKerningGroup = n_right;
unicode = 0075;
},
{
glyphname = v;
lastChange = "2022-03-24 04:56:44 +0000";
layers = (
{
layerId = m01;
rightMetricsKey = n;
paths = (
{
closed = 1;
nodes = (
"138 0 OFFCURVE",
"143 4 OFFCURVE",
"149 16 CURVE SMOOTH",
"315 318 LINE SMOOTH",
"323 333 OFFCURVE",
"313 350 OFFCURVE",
"293 350 CURVE SMOOTH",
"282 350 OFFCURVE",
"273 346 OFFCURVE",
"267 334 CURVE SMOOTH",
"122 59 LINE",
"139 56 LINE",
"112 328 LINE SMOOTH",
"110 345 OFFCURVE",
"99 350 OFFCURVE",
"88 350 CURVE SMOOTH",
"67 350 OFFCURVE",
"60 333 OFFCURVE",
"62 320 CURVE SMOOTH",
"97 19 LINE SMOOTH",
"99 6 OFFCURVE",
"109 0 OFFCURVE",
"122 0 CURVE SMOOTH"
);
}
);
vertWidth = 0;
width = 306;
},
{
layerId = "6449507E-FEE0-4D4A-A81F-7CAB6A5803D5";
rightMetricsKey = n;
paths = (
{
closed = 1;
nodes = (
"155 0 OFFCURVE",
"163 8 OFFCURVE",
"174 28 CURVE SMOOTH",
"320 292 LINE SMOOTH",
"335 320 OFFCURVE",
"321 357 OFFCURVE",
"279 357 CURVE SMOOTH",
"260 357 OFFCURVE",
"245 350 OFFCURVE",
"234 329 CURVE SMOOTH",
"114 104 LINE",
"165 104 LINE",
"144 315 LINE SMOOTH",
"141 348 OFFCURVE",
"119 357 OFFCURVE",
"98 357 CURVE SMOOTH",
"59 357 OFFCURVE",
"47 326 OFFCURVE",
"50 302 CURVE SMOOTH",
"81 39 LINE SMOOTH",
"84 14 OFFCURVE",
"102 0 OFFCURVE",
"128 0 CURVE SMOOTH"
);
}
);
vertWidth = 0;
width = 318;
}
);
leftKerningGroup = v_left;
note = "";
rightKerningGroup = v_right;
unicode = 0076;
},
{
glyphname = w;
lastChange = "2022-03-24 04:58:11 +0000";
layers = (
{
layerId = m01;
rightMetricsKey = o;
paths = (
{
closed = 1;
nodes = (
"138 0 OFFCURVE",
"143 4 OFFCURVE",
"149 16 CURVE SMOOTH",
"288 272 LINE",
"276 276 LINE",
"302 19 LINE SMOOTH",
"303 6 OFFCURVE",
"314 0 OFFCURVE",
"327 0 CURVE SMOOTH",
"343 0 OFFCURVE",
"348 4 OFFCURVE",
"354 16 CURVE SMOOTH",
"520 318 LINE SMOOTH",
"528 333 OFFCURVE",
"518 350 OFFCURVE",
"498 350 CURVE SMOOTH",
"487 350 OFFCURVE",
"478 346 OFFCURVE",
"472 334 CURVE SMOOTH",
"327 59 LINE",
"344 56 LINE",
"317 328 LINE SMOOTH",
"315 345 OFFCURVE",
"304 350 OFFCURVE",
"293 350 CURVE SMOOTH",
"281 350 OFFCURVE",
"273 345 OFFCURVE",
"267 334 CURVE SMOOTH",
"122 59 LINE",
"139 56 LINE",
"112 328 LINE SMOOTH",
"110 345 OFFCURVE",
"99 350 OFFCURVE",
"88 350 CURVE SMOOTH",
"67 350 OFFCURVE",
"60 333 OFFCURVE",
"62 320 CURVE SMOOTH",
"97 19 LINE SMOOTH",
"99 6 OFFCURVE",
"109 0 OFFCURVE",
"122 0 CURVE SMOOTH"
);
}
);
vertWidth = 0;
width = 511;
},
{
layerId = "6449507E-FEE0-4D4A-A81F-7CAB6A5803D5";
rightMetricsKey = o;
paths = (
{
closed = 1;
nodes = (
"155 0 OFFCURVE",
"163 8 OFFCURVE",
"174 28 CURVE SMOOTH",
"309 281 LINE",
"232 307 LINE",
"256 39 LINE SMOOTH",
"258 15 OFFCURVE",
"276 0 OFFCURVE",
"303 0 CURVE SMOOTH",
"330 0 OFFCURVE",
"338 8 OFFCURVE",
"349 28 CURVE SMOOTH",
"495 292 LINE SMOOTH",
"510 320 OFFCURVE",
"496 357 OFFCURVE",
"454 357 CURVE SMOOTH",
"435 357 OFFCURVE",
"420 350 OFFCURVE",
"409 329 CURVE SMOOTH",
"277 82 LINE",
"343 79 LINE",
"322 315 LINE SMOOTH",
"319 348 OFFCURVE",
"297 357 OFFCURVE",
"276 357 CURVE SMOOTH",
"255 357 OFFCURVE",
"241 349 OFFCURVE",
"231 330 CURVE SMOOTH",
"102 82 LINE",
"167 79 LINE",
"144 315 LINE SMOOTH",
"141 348 OFFCURVE",
"119 357 OFFCURVE",
"98 357 CURVE SMOOTH",
"59 357 OFFCURVE",
"47 326 OFFCURVE",
"50 302 CURVE SMOOTH",
"81 39 LINE SMOOTH",
"84 14 OFFCURVE",
"102 0 OFFCURVE",
"128 0 CURVE SMOOTH"
);
}
);
vertWidth = 0;
width = 493;
}
);
leftKerningGroup = v_left;
note = "";
rightKerningGroup = v_right;
unicode = 0077;
},
{
glyphname = x;
lastChange = "2022-03-24 04:59:04 +0000";
layers = (
{
layerId = m01;
paths = (
{
closed = 1;
nodes = (
"34 0 OFFCURVE",
"42 4 OFFCURVE",
"59 24 CURVE SMOOTH",
"162 147 LINE",
"179 157 LINE",
"306 308 LINE SMOOTH",
"322 327 OFFCURVE",
"317 350 OFFCURVE",
"293 350 CURVE SMOOTH",
"284 350 OFFCURVE",
"277 346 OFFCURVE",
"267 335 CURVE SMOOTH",
"159 207 LINE",
"144 198 LINE",
"15 44 LINE SMOOTH",
"0 27 OFFCURVE",
"3 0 OFFCURVE",
"25 0 CURVE SMOOTH"
);
},
{
closed = 1;
nodes = (
"228 0 OFFCURVE",
"239 15 OFFCURVE",
"230 42 CURVE SMOOTH",
"133 329 LINE SMOOTH",
"128 344 OFFCURVE",
"118 350 OFFCURVE",
"108 350 CURVE SMOOTH",
"85 350 OFFCURVE",
"80 329 OFFCURVE",
"87 309 CURVE SMOOTH",
"184 25 LINE SMOOTH",
"192 3 OFFCURVE",
"200 0 OFFCURVE",
"209 0 CURVE SMOOTH"
);
}
);
vertWidth = 0;
width = 298;
},
{
layerId = "6449507E-FEE0-4D4A-A81F-7CAB6A5803D5";
paths = (
{
closed = 1;
nodes = (
"63 0 OFFCURVE",
"75 1 OFFCURVE",
"100 30 CURVE SMOOTH",
"187 128 LINE",
"211 142 LINE",
"323 268 LINE SMOOTH",
"372 323 OFFCURVE",
"342 357 OFFCURVE",
"308 357 CURVE SMOOTH",
"287 357 OFFCURVE",
"272 349 OFFCURVE",
"255 330 CURVE SMOOTH",
"165 228 LINE",
"142 214 LINE",
"23 80 LINE SMOOTH",
"-18 33 OFFCURVE",
"16 0 OFFCURVE",
"51 0 CURVE SMOOTH"
);
},
{
closed = 1;
nodes = (
"258 0 OFFCURVE",
"292 17 OFFCURVE",
"270 70 CURVE SMOOTH",
"164 322 LINE SMOOTH",
"153 348 OFFCURVE",
"135 357 OFFCURVE",
"118 357 CURVE SMOOTH",
"81 357 OFFCURVE",
"59 327 OFFCURVE",
"76 288 CURVE SMOOTH",
"183 39 LINE SMOOTH",
"200 0 OFFCURVE",
"214 0 OFFCURVE",
"228 0 CURVE SMOOTH"
);
}
);
vertWidth = 0;
width = 339;
}
);
note = "";
unicode = 0078;
},
{
glyphname = y;
lastChange = "2022-03-24 05:00:24 +0000";
layers = (
{
layerId = m01;
leftMetricsKey = n;
rightMetricsKey = n;
paths = (
{
closed = 1;
nodes = (
"151 -1 OFFCURVE",
"214 59 OFFCURVE",
"261 140 CURVE",
"285 253 LINE",
"266 181 OFFCURVE",
"156 45 OFFCURVE",
"111 45 CURVE SMOOTH",
"84 45 OFFCURVE",
"80 79 OFFCURVE",
"101 161 CURVE SMOOTH",
"142 322 LINE SMOOTH",
"146 338 OFFCURVE",
"142 349 OFFCURVE",
"125 350 CURVE SMOOTH",
"106 351 OFFCURVE",
"96 343 OFFCURVE",
"91 325 CURVE SMOOTH",
"51 166 LINE SMOOTH",
"21 48 OFFCURVE",
"35 -1 OFFCURVE",
"99 -1 CURVE SMOOTH"
);
},
{
closed = 1;
nodes = (
"165 -300 OFFCURVE",
"206 -266 OFFCURVE",
"221 -207 CURVE SMOOTH",
"354 322 LINE SMOOTH",
"358 338 OFFCURVE",
"354 349 OFFCURVE",
"337 350 CURVE SMOOTH",
"318 351 OFFCURVE",
"308 343 OFFCURVE",
"303 325 CURVE SMOOTH",
"170 -203 LINE SMOOTH",
"162 -234 OFFCURVE",
"143 -250 OFFCURVE",
"116 -250 CURVE SMOOTH",
"88 -250 OFFCURVE",
"56 -232 OFFCURVE",
"32 -203 CURVE SMOOTH",
"23 -191 OFFCURVE",
"9 -182 OFFCURVE",
"-4 -192 CURVE SMOOTH",
"-16 -201 OFFCURVE",
"-21 -213 OFFCURVE",
"-8 -231 CURVE SMOOTH",
"23 -274 OFFCURVE",
"69 -300 OFFCURVE",
"112 -300 CURVE SMOOTH"
);
}
);
vertWidth = 0;
width = 354;
},
{
layerId = "6449507E-FEE0-4D4A-A81F-7CAB6A5803D5";
leftMetricsKey = n;
rightMetricsKey = n;
paths = (
{
closed = 1;
nodes = (
"142 0 OFFCURVE",
"215 63 OFFCURVE",
"261 142 CURVE",
"260 293 LINE",
"230 194 OFFCURVE",
"165 93 OFFCURVE",
"136 93 CURVE SMOOTH",
"119 93 OFFCURVE",
"129 140 OFFCURVE",
"133 158 CURVE SMOOTH",
"167 296 LINE SMOOTH",
"176 332 OFFCURVE",
"167 357 OFFCURVE",
"128 357 CURVE SMOOTH",
"93 357 OFFCURVE",
"85 339 OFFCURVE",
"78 311 CURVE SMOOTH",
"44 175 LINE SMOOTH",
"4 14 OFFCURVE",
"44 0 OFFCURVE",
"87 0 CURVE SMOOTH"
);
},
{
closed = 1;
nodes = (
"179 -300 OFFCURVE",
"215 -262 OFFCURVE",
"233 -191 CURVE SMOOTH",
"355 296 LINE SMOOTH",
"364 333 OFFCURVE",
"361 357 OFFCURVE",
"325 357 CURVE SMOOTH",
"290 357 OFFCURVE",
"272 344 OFFCURVE",
"264 311 CURVE SMOOTH",
"143 -176 LINE SMOOTH",
"140 -188 OFFCURVE",
"133 -196 OFFCURVE",
"120 -196 CURVE SMOOTH",
"102 -196 OFFCURVE",
"77 -183 OFFCURVE",
"61 -163 CURVE SMOOTH",
"44 -138 OFFCURVE",
"13 -130 OFFCURVE",
"-10 -148 CURVE SMOOTH",
"-32 -166 OFFCURVE",
"-45 -188 OFFCURVE",
"-20 -224 CURVE SMOOTH",
"16 -272 OFFCURVE",
"70 -300 OFFCURVE",
"118 -300 CURVE SMOOTH"
);
}
);
vertWidth = 0;
width = 361;
}
);
leftKerningGroup = n_left;
note = "";
rightKerningGroup = n_right;
unicode = 0079;
},
{
glyphname = z;
lastChange = "2022-03-24 05:01:12 +0000";
layers = (
{
layerId = m01;
paths = (
{
closed = 1;
nodes = (
"259 0 LINE SMOOTH",
"279 0 OFFCURVE",
"285 11 OFFCURVE",
"285 23 CURVE SMOOTH",
"285 35 OFFCURVE",
"279 45 OFFCURVE",
"259 45 CURVE SMOOTH",
"68 45 LINE",
"71 28 LINE",
"316 308 LINE SMOOTH",
"332 326 OFFCURVE",
"325 350 OFFCURVE",
"301 350 CURVE SMOOTH",
"108 350 LINE SMOOTH",
"88 350 OFFCURVE",
"82 339 OFFCURVE",
"82 327 CURVE SMOOTH",
"82 315 OFFCURVE",
"88 305 OFFCURVE",
"108 305 CURVE SMOOTH",
"270 305 LINE",
"266 322 LINE",
"22 44 LINE SMOOTH",
"10 30 OFFCURVE",
"13 0 OFFCURVE",
"35 0 CURVE SMOOTH"
);
}
);
vertWidth = 0;
width = 350;
},
{
layerId = "6449507E-FEE0-4D4A-A81F-7CAB6A5803D5";
paths = (
{
closed = 1;
nodes = (
"255 0 LINE SMOOTH",
"294 0 OFFCURVE",
"302 23 OFFCURVE",
"302 45 CURVE SMOOTH",
"302 67 OFFCURVE",
"295 90 OFFCURVE",
"255 90 CURVE SMOOTH",
"109 90 LINE",
"119 42 LINE",
"329 278 LINE SMOOTH",
"363 317 OFFCURVE",
"339 357 OFFCURVE",
"297 357 CURVE SMOOTH",
"126 357 LINE SMOOTH",
"86 357 OFFCURVE",
"78 334 OFFCURVE",
"78 312 CURVE",
"78 290 OFFCURVE",
"85 267 OFFCURVE",
"126 267 CURVE SMOOTH",
"264 267 LINE",
"247 316 LINE",
"33 81 LINE SMOOTH",
"3 49 OFFCURVE",
"27 0 OFFCURVE",
"63 0 CURVE SMOOTH"
);
}
);
vertWidth = 0;
width = 363;
}
);
note = "";
unicode = 007A;
},
{
glyphname = zero;
layers = (
{
layerId = m01;
paths = (
{
closed = 1;
nodes = (
"282 0 OFFCURVE",
"374 135 OFFCURVE",
"421 353 CURVE SMOOTH",
"461 537 OFFCURVE",
"423 650 OFFCURVE",
"322 650 CURVE SMOOTH",
"197 650 OFFCURVE",
"103 503 OFFCURVE",
"75 266 CURVE SMOOTH",
"56 102 OFFCURVE",
"96 0 OFFCURVE",
"180 0 CURVE SMOOTH"
);
},
{
closed = 1;
nodes = (
"131 46 OFFCURVE",
"111 133 OFFCURVE",
"128 275 CURVE SMOOTH",
"152 478 OFFCURVE",
"224 604 OFFCURVE",
"316 604 CURVE SMOOTH",
"382 604 OFFCURVE",
"402 507 OFFCURVE",
"368 350 CURVE SMOOTH",
"327 162 OFFCURVE",
"256 46 OFFCURVE",
"181 46 CURVE SMOOTH"
);
}
);
vertWidth = 0;
width = 424;
},
{
layerId = "6449507E-FEE0-4D4A-A81F-7CAB6A5803D5";
paths = (
{
closed = 1;
nodes = (
"300 0 OFFCURVE",
"398 121 OFFCURVE",
"447 345 CURVE SMOOTH",
"494 563 OFFCURVE",
"432 650 OFFCURVE",
"329 650 CURVE SMOOTH",
"207 650 OFFCURVE",
"105 517 OFFCURVE",
"76 274 CURVE SMOOTH",
"54 81 OFFCURVE",
"113 0 OFFCURVE",
"199 0 CURVE SMOOTH"
);
},
{
closed = 1;
nodes = (
"161 97 OFFCURVE",
"172 219 OFFCURVE",
"179 276 CURVE SMOOTH",
"197 432 OFFCURVE",
"247 553 OFFCURVE",
"324 553 CURVE SMOOTH",
"377 553 OFFCURVE",
"358 416 OFFCURVE",
"345 354 CURVE SMOOTH",
"313 209 OFFCURVE",
"263 97 OFFCURVE",
"200 97 CURVE SMOOTH"
);
}
);
vertWidth = 0;
width = 451;
}
);
note = "";
unicode = 0030;
},
{
glyphname = one;
layers = (
{
layerId = m01;
paths = (
{
closed = 1;
nodes = (
"91 0 OFFCURVE",
"97 13 OFFCURVE",
"99 23 CURVE SMOOTH",
"245 617 LINE SMOOTH",
"249 635 OFFCURVE",
"244 650 OFFCURVE",
"227 650 CURVE SMOOTH",
"208 650 OFFCURVE",
"200 641 OFFCURVE",
"196 625 CURVE SMOOTH",
"48 29 LINE SMOOTH",
"44 14 OFFCURVE",
"51 0 OFFCURVE",
"69 0 CURVE SMOOTH"
);
}
);
vertWidth = 0;
width = 228;
},
{
layerId = "6449507E-FEE0-4D4A-A81F-7CAB6A5803D5";
paths = (
{
closed = 1;
nodes = (
"143 0 OFFCURVE",
"152 25 OFFCURVE",
"156 43 CURVE SMOOTH",
"289 586 LINE SMOOTH",
"299 630 OFFCURVE",
"278 650 OFFCURVE",
"246 650 CURVE SMOOTH",
"213 650 OFFCURVE",
"198 635 OFFCURVE",
"191 606 CURVE SMOOTH",
"56 61 LINE SMOOTH",
"47 28 OFFCURVE",
"64 0 OFFCURVE",
"102 0 CURVE SMOOTH"
);
}
);
vertWidth = 0;
width = 280;
}
);
note = "";
unicode = 0031;
},
{
glyphname = two;
layers = (
{
layerId = m01;
paths = (
{
closed = 1;
nodes = (
"298 0 LINE SMOOTH",
"318 0 OFFCURVE",
"324 12 OFFCURVE",
"324 24 CURVE SMOOTH",
"324 36 OFFCURVE",
"318 45 OFFCURVE",
"298 45 CURVE SMOOTH",
"65 45 LINE",
"69 29 LINE",
"153 113 OFFCURVE",
"294 270 OFFCURVE",
"307 285 CURVE SMOOTH",
"393 390 OFFCURVE",
"455 465 OFFCURVE",
"455 540 CURVE SMOOTH",
"455 600 OFFCURVE",
"406 650 OFFCURVE",
"338 650 CURVE SMOOTH",
"276 650 OFFCURVE",
"207 623 OFFCURVE",
"164 587 CURVE SMOOTH",
"140 567 OFFCURVE",
"144 552 OFFCURVE",
"152 543 CURVE SMOOTH",
"160 534 OFFCURVE",
"176 532 OFFCURVE",
"201 553 CURVE SMOOTH",
"236 582 OFFCURVE",
"292 605 OFFCURVE",
"338 605 CURVE SMOOTH",
"381 605 OFFCURVE",
"405 570 OFFCURVE",
"405 538 CURVE SMOOTH",
"405 493 OFFCURVE",
"354 409 OFFCURVE",
"272 317 CURVE SMOOTH",
"245 286 OFFCURVE",
"151 178 OFFCURVE",
"21 48 CURVE SMOOTH",
"-6 21 OFFCURVE",
"7 0 OFFCURVE",
"34 0 CURVE SMOOTH"
);
}
);
vertWidth = 0;
width = 415;
},
{
layerId = "6449507E-FEE0-4D4A-A81F-7CAB6A5803D5";
paths = (
{
closed = 1;
nodes = (
"314 0 LINE SMOOTH",
"355 0 OFFCURVE",
"365 26 OFFCURVE",
"365 49 CURVE SMOOTH",
"365 73 OFFCURVE",
"358 96 OFFCURVE",
"314 96 CURVE SMOOTH",
"110 96 LINE",
"140 48 LINE",
"218 125 OFFCURVE",
"335 257 OFFCURVE",
"347 270 CURVE SMOOTH",
"432 374 OFFCURVE",
"485 449 OFFCURVE",
"485 522 CURVE SMOOTH",
"485 591 OFFCURVE",
"430 650 OFFCURVE",
"350 650 CURVE SMOOTH",
"287 650 OFFCURVE",
"217 623 OFFCURVE",
"174 586 CURVE SMOOTH",
"125 546 OFFCURVE",
"146 521 OFFCURVE",
"160 506 CURVE SMOOTH",
"172 492 OFFCURVE",
"192 470 OFFCURVE",
"243 513 CURVE SMOOTH",
"270 535 OFFCURVE",
"314 554 OFFCURVE",
"350 554 CURVE SMOOTH",
"372 554 OFFCURVE",
"384 536 OFFCURVE",
"384 520 CURVE SMOOTH",
"384 482 OFFCURVE",
"338 413 OFFCURVE",
"270 336 CURVE SMOOTH",
"245 307 OFFCURVE",
"159 209 OFFCURVE",
"41 91 CURVE SMOOTH",
"-24 26 OFFCURVE",
"26 0 OFFCURVE",
"72 0 CURVE SMOOTH"
);
}
);
vertWidth = 0;
width = 450;
}
);
note = "";
unicode = 0032;
},
{
glyphname = three;
layers = (
{
layerId = m01;
paths = (
{
closed = 1;
nodes = (
"284 0 OFFCURVE",
"364 56 OFFCURVE",
"391 165 CURVE SMOOTH",
"420 280 OFFCURVE",
"348 362 OFFCURVE",
"214 377 CURVE",
"214 369 LINE",
"450 600 LINE SMOOTH",
"464 614 OFFCURVE",
"468 619 OFFCURVE",
"468 629 CURVE SMOOTH",
"468 642 OFFCURVE",
"458 650 OFFCURVE",
"444 650 CURVE SMOOTH",
"197 650 LINE SMOOTH",
"177 650 OFFCURVE",
"171 639 OFFCURVE",
"171 627 CURVE SMOOTH",
"171 615 OFFCURVE",
"177 605 OFFCURVE",
"197 605 CURVE SMOOTH",
"406 605 LINE",
"405 620 LINE",
"156 377 LINE SMOOTH",
"138 359 OFFCURVE",
"145 335 OFFCURVE",
"172 333 CURVE SMOOTH",
"304 325 OFFCURVE",
"367 273 OFFCURVE",
"340 163 CURVE SMOOTH",
"322 85 OFFCURVE",
"259 45 OFFCURVE",
"195 45 CURVE SMOOTH",
"145 45 OFFCURVE",
"100 87 OFFCURVE",
"88 155 CURVE SMOOTH",
"84 178 OFFCURVE",
"74 182 OFFCURVE",
"61 182 CURVE SMOOTH",
"50 182 OFFCURVE",
"35 173 OFFCURVE",
"41 141 CURVE SMOOTH",
"56 54 OFFCURVE",
"118 0 OFFCURVE",
"194 0 CURVE SMOOTH"
);
}
);
vertWidth = 0;
width = 440;
},
{
layerId = "6449507E-FEE0-4D4A-A81F-7CAB6A5803D5";
paths = (
{
closed = 1;
nodes = (
"311 0 OFFCURVE",
"396 57 OFFCURVE",
"424 172 CURVE SMOOTH",
"454 293 OFFCURVE",
"384 383 OFFCURVE",
"238 399 CURVE",
"239 325 LINE",
"471 557 LINE SMOOTH",
"493 580 OFFCURVE",
"495 588 OFFCURVE",
"495 603 CURVE SMOOTH",
"495 630 OFFCURVE",
"477 650 OFFCURVE",
"446 650 CURVE SMOOTH",
"220 650 LINE SMOOTH",
"178 650 OFFCURVE",
"168 625 OFFCURVE",
"168 601 CURVE SMOOTH",
"168 578 OFFCURVE",
"176 554 OFFCURVE",
"220 554 CURVE SMOOTH",
"397 554 LINE",
"376 605 LINE",
"163 392 LINE SMOOTH",
"127 356 OFFCURVE",
"142 309 OFFCURVE",
"195 305 CURVE SMOOTH",
"288 299 OFFCURVE",
"345 267 OFFCURVE",
"324 183 CURVE SMOOTH",
"311 126 OFFCURVE",
"265 96 OFFCURVE",
"218 96 CURVE SMOOTH",
"183 96 OFFCURVE",
"155 129 OFFCURVE",
"147 174 CURVE SMOOTH",
"139 218 OFFCURVE",
"118 222 OFFCURVE",
"95 222 CURVE SMOOTH",
"77 222 OFFCURVE",
"36 224 OFFCURVE",
"50 151 CURVE SMOOTH",
"66 57 OFFCURVE",
"135 0 OFFCURVE",
"217 0 CURVE SMOOTH"
);
}
);
vertWidth = 0;
width = 471;
}
);
note = "";
unicode = 0033;
},
{
glyphname = four;
layers = (
{
layerId = m01;
paths = (
{
closed = 1;
nodes = (
"356 135 LINE SMOOTH",
"372 135 OFFCURVE",
"382 146 OFFCURVE",
"382 158 CURVE SMOOTH",
"382 170 OFFCURVE",
"372 180 OFFCURVE",
"356 180 CURVE SMOOTH",
"69 180 LINE",
"85 153 LINE",
"322 610 LINE SMOOTH",
"337 638 OFFCURVE",
"318 650 OFFCURVE",
"306 650 CURVE SMOOTH",
"294 650 OFFCURVE",
"287 646 OFFCURVE",
"278 628 CURVE SMOOTH",
"47 181 LINE SMOOTH",
"33 154 OFFCURVE",
"41 135 OFFCURVE",
"67 135 CURVE SMOOTH"
);
},
{
closed = 1;
nodes = (
"238 0 OFFCURVE",
"251 4 OFFCURVE",
"256 23 CURVE SMOOTH",
"341 360 LINE SMOOTH",
"346 379 OFFCURVE",
"335 391 OFFCURVE",
"319 391 CURVE SMOOTH",
"307 391 OFFCURVE",
"295 384 OFFCURVE",
"292 371 CURVE SMOOTH",
"206 32 LINE SMOOTH",
"201 12 OFFCURVE",
"213 0 OFFCURVE",
"226 0 CURVE SMOOTH"
);
}
);
vertWidth = 0;
width = 433;
},
{
layerId = "6449507E-FEE0-4D4A-A81F-7CAB6A5803D5";
paths = (
{
closed = 1;
nodes = (
"383 124 LINE SMOOTH",
"416 124 OFFCURVE",
"434 148 OFFCURVE",
"434 172 CURVE SMOOTH",
"434 196 OFFCURVE",
"417 220 OFFCURVE",
"383 220 CURVE SMOOTH",
"127 220 LINE",
"152 180 LINE",
"356 573 LINE SMOOTH",
"392 641 OFFCURVE",
"338 650 OFFCURVE",
"317 650 CURVE SMOOTH",
"297 650 OFFCURVE",
"283 647 OFFCURVE",
"267 615 CURVE SMOOTH",
"55 206 LINE SMOOTH",
"25 148 OFFCURVE",
"54 124 OFFCURVE",
"98 124 CURVE SMOOTH"
);
},
{
closed = 1;
nodes = (
"285 0 OFFCURVE",
"309 7 OFFCURVE",
"318 42 CURVE SMOOTH",
"395 350 LINE SMOOTH",
"405 390 OFFCURVE",
"381 413 OFFCURVE",
"349 413 CURVE SMOOTH",
"325 413 OFFCURVE",
"303 398 OFFCURVE",
"297 373 CURVE SMOOTH",
"219 64 LINE SMOOTH",
"207 18 OFFCURVE",
"238 0 OFFCURVE",
"264 0 CURVE SMOOTH"
);
}
);
vertWidth = 0;
width = 483;
}
);
note = "";
unicode = 0034;
},
{
glyphname = five;
layers = (
{
layerId = m01;
paths = (
{
closed = 1;
nodes = (
"268 0 OFFCURVE",
"365 57 OFFCURVE",
"404 210 CURVE SMOOTH",
"428 306 OFFCURVE",
"381 390 OFFCURVE",
"252 390 CURVE SMOOTH",
"222 390 OFFCURVE",
"185 385 OFFCURVE",
"158 375 CURVE",
"175 355 LINE",
"282 633 LINE",
"245 605 LINE",
"466 605 LINE SMOOTH",
"486 605 OFFCURVE",
"492 615 OFFCURVE",
"492 627 CURVE SMOOTH",
"492 639 OFFCURVE",
"486 650 OFFCURVE",
"466 650 CURVE SMOOTH",
"281 650 LINE SMOOTH",
"246 650 OFFCURVE",
"235 643 OFFCURVE",
"224 614 CURVE SMOOTH",
"129 362 LINE SMOOTH",
"119 335 OFFCURVE",
"139 329 OFFCURVE",
"149 329 CURVE SMOOTH",
"158 329 OFFCURVE",
"165 332 OFFCURVE",
"177 336 CURVE SMOOTH",
"201 344 OFFCURVE",
"219 345 OFFCURVE",
"242 345 CURVE SMOOTH",
"341 345 OFFCURVE",
"378 301 OFFCURVE",
"354 208 CURVE SMOOTH",
"321 80 OFFCURVE",
"233 45 OFFCURVE",
"187 45 CURVE SMOOTH",
"134 45 OFFCURVE",
"99 78 OFFCURVE",
"83 141 CURVE SMOOTH",
"79 158 OFFCURVE",
"68 162 OFFCURVE",
"59 162 CURVE SMOOTH",
"42 162 OFFCURVE",
"30 145 OFFCURVE",
"37 121 CURVE SMOOTH",
"61 33 OFFCURVE",
"121 0 OFFCURVE",
"179 0 CURVE SMOOTH"
);
}
);
vertWidth = 0;
width = 442;
},
{
layerId = "6449507E-FEE0-4D4A-A81F-7CAB6A5803D5";
paths = (
{
closed = 1;
nodes = (
"291 0 OFFCURVE",
"392 55 OFFCURVE",
"433 213 CURVE SMOOTH",
"459 318 OFFCURVE",
"410 412 OFFCURVE",
"267 412 CURVE SMOOTH",
"236 412 OFFCURVE",
"199 407 OFFCURVE",
"171 397 CURVE",
"230 353 LINE",
"314 571 LINE",
"288 554 LINE",
"463 554 LINE SMOOTH",
"506 554 OFFCURVE",
"514 578 OFFCURVE",
"514 601 CURVE SMOOTH",
"514 625 OFFCURVE",
"505 650 OFFCURVE",
"463 650 CURVE SMOOTH",
"293 650 LINE SMOOTH",
"245 650 OFFCURVE",
"231 639 OFFCURVE",
"216 599 CURVE SMOOTH",
"129 369 LINE SMOOTH",
"107 309 OFFCURVE",
"153 301 OFFCURVE",
"173 301 CURVE SMOOTH",
"184 301 OFFCURVE",
"192 304 OFFCURVE",
"207 309 CURVE SMOOTH",
"226 315 OFFCURVE",
"240 316 OFFCURVE",
"258 316 CURVE SMOOTH",
"323 316 OFFCURVE",
"350 288 OFFCURVE",
"334 225 CURVE SMOOTH",
"309 128 OFFCURVE",
"243 96 OFFCURVE",
"207 96 CURVE SMOOTH",
"171 96 OFFCURVE",
"149 122 OFFCURVE",
"139 163 CURVE SMOOTH",
"131 197 OFFCURVE",
"108 203 OFFCURVE",
"90 203 CURVE SMOOTH",
"61 203 OFFCURVE",
"29 181 OFFCURVE",
"44 131 CURVE SMOOTH",
"70 34 OFFCURVE",
"137 0 OFFCURVE",
"200 0 CURVE SMOOTH"
);
}
);
vertWidth = 0;
width = 470;
}
);
note = "";
unicode = 0035;
},
{
glyphname = six;
layers = (
{
layerId = m01;
paths = (
{
closed = 1;
nodes = (
"271 0 OFFCURVE",
"368 120 OFFCURVE",
"368 237 CURVE SMOOTH",
"368 310 OFFCURVE",
"336 354 OFFCURVE",
"282 354 CURVE SMOOTH",
"245 354 OFFCURVE",
"198 330 OFFCURVE",
"175 314 CURVE SMOOTH",
"157 301 OFFCURVE",
"158 284 OFFCURVE",
"164 276 CURVE SMOOTH",
"170 268 OFFCURVE",
"183 264 OFFCURVE",
"200 276 CURVE SMOOTH",
"219 290 OFFCURVE",
"246 309 OFFCURVE",
"270 309 CURVE SMOOTH",
"302 309 OFFCURVE",
"318 274 OFFCURVE",
"318 231 CURVE SMOOTH",
"318 135 OFFCURVE",
"238 45 OFFCURVE",
"170 45 CURVE SMOOTH",
"124 45 OFFCURVE",
"92 72 OFFCURVE",
"92 144 CURVE SMOOTH",
"92 261 OFFCURVE",
"216 469 OFFCURVE",
"315 611 CURVE SMOOTH",
"328 630 OFFCURVE",
"318 650 OFFCURVE",
"302 650 CURVE SMOOTH",
"291 650 OFFCURVE",
"282 648 OFFCURVE",
"271 632 CURVE SMOOTH",
"179 499 OFFCURVE",
"42 266 OFFCURVE",
"42 143 CURVE SMOOTH",
"42 52 OFFCURVE",
"88 0 OFFCURVE",
"158 0 CURVE SMOOTH"
);
}
);
vertWidth = 0;
width = 406;
},
{
layerId = "6449507E-FEE0-4D4A-A81F-7CAB6A5803D5";
paths = (
{
closed = 1;
nodes = (
"297 0 OFFCURVE",
"400 122 OFFCURVE",
"400 245 CURVE SMOOTH",
"400 335 OFFCURVE",
"356 379 OFFCURVE",
"294 379 CURVE SMOOTH",
"254 379 OFFCURVE",
"204 355 OFFCURVE",
"180 338 CURVE SMOOTH",
"142 310 OFFCURVE",
"153 278 OFFCURVE",
"163 264 CURVE SMOOTH",
"175 249 OFFCURVE",
"197 232 OFFCURVE",
"234 258 CURVE SMOOTH",
"247 268 OFFCURVE",
"266 283 OFFCURVE",
"283 283 CURVE SMOOTH",
"301 283 OFFCURVE",
"299 254 OFFCURVE",
"299 239 CURVE SMOOTH",
"299 169 OFFCURVE",
"243 96 OFFCURVE",
"191 96 CURVE SMOOTH",
"162 96 OFFCURVE",
"147 119 OFFCURVE",
"147 159 CURVE SMOOTH",
"147 263 OFFCURVE",
"263 446 OFFCURVE",
"348 571 CURVE SMOOTH",
"380 617 OFFCURVE",
"342 650 OFFCURVE",
"312 650 CURVE SMOOTH",
"294 650 OFFCURVE",
"279 648 OFFCURVE",
"261 622 CURVE SMOOTH",
"174 496 OFFCURVE",
"46 275 OFFCURVE",
"46 158 CURVE SMOOTH",
"46 54 OFFCURVE",
"102 0 OFFCURVE",
"180 0 CURVE SMOOTH"
);
}
);
vertWidth = 0;
width = 436;
}
);
note = "";
unicode = 0036;
},
{
glyphname = seven;
layers = (
{
layerId = m01;
paths = (
{
closed = 1;
nodes = (
"122 0 OFFCURVE",
"130 6 OFFCURVE",
"140 24 CURVE SMOOTH",
"472 606 LINE",
"488 636 OFFCURVE",
"480 650 OFFCURVE",
"454 650 CURVE",
"184 650 LINE SMOOTH",
"166 650 OFFCURVE",
"157 639 OFFCURVE",
"157 628 CURVE SMOOTH",
"157 616 OFFCURVE",
"166 605 OFFCURVE",
"184 605 CURVE SMOOTH",
"450 605 LINE",
"431 632 LINE",
"96 44 LINE SMOOTH",
"77 11 OFFCURVE",
"97 0 OFFCURVE",
"110 0 CURVE SMOOTH"
);
}
);
vertWidth = 0;
width = 414;
},
{
layerId = "6449507E-FEE0-4D4A-A81F-7CAB6A5803D5";
paths = (
{
closed = 1;
nodes = (
"152 0 OFFCURVE",
"168 12 OFFCURVE",
"185 43 CURVE SMOOTH",
"483 565 LINE SMOOTH",
"520 630 OFFCURVE",
"487 644 OFFCURVE",
"443 644 CURVE SMOOTH",
"201 644 LINE SMOOTH",
"163 644 OFFCURVE",
"150 618 OFFCURVE",
"150 597 CURVE SMOOTH",
"150 574 OFFCURVE",
"164 550 OFFCURVE",
"201 550 CURVE SMOOTH",
"420 550 LINE",
"392 596 LINE",
"102 87 LINE SMOOTH",
"63 19 OFFCURVE",
"99 0 OFFCURVE",
"128 0 CURVE SMOOTH"
);
}
);
vertWidth = 0;
width = 438;
}
);
note = "";
unicode = 0037;
},
{
glyphname = eight;
layers = (
{
layerId = m01;
paths = (
{
closed = 1;
nodes = (
"238 0 OFFCURVE",
"314 70 OFFCURVE",
"337 164 CURVE SMOOTH",
"354 233 OFFCURVE",
"321 307 OFFCURVE",
"250 358 CURVE",
"220 319 LINE",
"274 281 OFFCURVE",
"299 224 OFFCURVE",
"286 168 CURVE SMOOTH",
"269 98 OFFCURVE",
"218 46 OFFCURVE",
"159 46 CURVE SMOOTH",
"106 46 OFFCURVE",
"76 91 OFFCURVE",
"89 152 CURVE SMOOTH",
"102 209 OFFCURVE",
"155 267 OFFCURVE",
"246 322 CURVE SMOOTH",
"337 378 OFFCURVE",
"392 439 OFFCURVE",
"408 503 CURVE SMOOTH",
"429 587 OFFCURVE",
"381 650 OFFCURVE",
"296 650 CURVE SMOOTH",
"223 650 OFFCURVE",
"158 611 OFFCURVE",
"136 524 CURVE SMOOTH",
"118 452 OFFCURVE",
"148 376 OFFCURVE",
"216 326 CURVE",
"246 363 LINE",
"195 399 OFFCURVE",
"173 459 OFFCURVE",
"187 521 CURVE SMOOTH",
"201 578 OFFCURVE",
"246 605 OFFCURVE",
"287 605 CURVE SMOOTH",
"342 605 OFFCURVE",
"372 561 OFFCURVE",
"358 503 CURVE SMOOTH",
"346 458 OFFCURVE",
"300 411 OFFCURVE",
"220 362 CURVE SMOOTH",
"116 299 OFFCURVE",
"55 228 OFFCURVE",
"38 151 CURVE SMOOTH",
"18 65 OFFCURVE",
"68 0 OFFCURVE",
"153 0 CURVE SMOOTH"
);
}
);
vertWidth = 0;
width = 386;
},
{
layerId = "6449507E-FEE0-4D4A-A81F-7CAB6A5803D5";
paths = (
{
closed = 1;
nodes = (
"264 0 OFFCURVE",
"346 71 OFFCURVE",
"370 171 CURVE SMOOTH",
"388 244 OFFCURVE",
"356 323 OFFCURVE",
"280 378 CURVE",
"220 297 LINE",
"260 270 OFFCURVE",
"279 229 OFFCURVE",
"270 187 CURVE SMOOTH",
"258 138 OFFCURVE",
"224 97 OFFCURVE",
"180 97 CURVE SMOOTH",
"148 97 OFFCURVE",
"136 128 OFFCURVE",
"143 161 CURVE SMOOTH",
"154 208 OFFCURVE",
"200 254 OFFCURVE",
"274 299 CURVE SMOOTH",
"366 355 OFFCURVE",
"419 417 OFFCURVE",
"435 481 CURVE SMOOTH",
"459 578 OFFCURVE",
"403 650 OFFCURVE",
"306 650 CURVE SMOOTH",
"227 650 OFFCURVE",
"157 608 OFFCURVE",
"133 514 CURVE SMOOTH",
"114 438 OFFCURVE",
"144 357 OFFCURVE",
"216 304 CURVE",
"276 382 LINE",
"238 409 OFFCURVE",
"223 453 OFFCURVE",
"233 498 CURVE SMOOTH",
"242 535 OFFCURVE",
"270 554 OFFCURVE",
"298 554 CURVE SMOOTH",
"330 554 OFFCURVE",
"344 526 OFFCURVE",
"336 494 CURVE SMOOTH",
"327 458 OFFCURVE",
"286 422 OFFCURVE",
"222 382 CURVE SMOOTH",
"118 320 OFFCURVE",
"60 248 OFFCURVE",
"43 172 CURVE SMOOTH",
"20 73 OFFCURVE",
"78 0 OFFCURVE",
"175 0 CURVE SMOOTH"
);
}
);
vertWidth = 0;
width = 417;
}
);
note = "";
unicode = 0038;
},
{
glyphname = nine;
layers = (
{
layerId = m01;
paths = (
{
closed = 1;
nodes = (
"317 0 OFFCURVE",
"323 13 OFFCURVE",
"325 23 CURVE SMOOTH",
"462 581 LINE SMOOTH",
"466 599 OFFCURVE",
"461 614 OFFCURVE",
"444 614 CURVE SMOOTH",
"425 614 OFFCURVE",
"417 605 OFFCURVE",
"413 589 CURVE SMOOTH",
"274 29 LINE SMOOTH",
"270 14 OFFCURVE",
"277 0 OFFCURVE",
"295 0 CURVE SMOOTH"
);
},
{
closed = 1;
nodes = (
"290 246 OFFCURVE",
"405 355 OFFCURVE",
"441 501 CURVE SMOOTH",
"461 580 OFFCURVE",
"431 650 OFFCURVE",
"359 650 CURVE SMOOTH",
"249 650 OFFCURVE",
"135 541 OFFCURVE",
"98 395 CURVE SMOOTH",
"75 303 OFFCURVE",
"107 246 OFFCURVE",
"180 246 CURVE SMOOTH"
);
},
{
closed = 1;
nodes = (
"149 291 OFFCURVE",
"134 331 OFFCURVE",
"150 395 CURVE SMOOTH",
"179 515 OFFCURVE",
"267 605 OFFCURVE",
"348 605 CURVE SMOOTH",
"394 605 OFFCURVE",
"402 556 OFFCURVE",
"389 501 CURVE SMOOTH",
"361 381 OFFCURVE",
"272 292 OFFCURVE",
"191 291 CURVE SMOOTH"
);
}
);
vertWidth = 0;
width = 453;
},
{
layerId = "6449507E-FEE0-4D4A-A81F-7CAB6A5803D5";
paths = (
{
closed = 1;
nodes = (
"347 0 OFFCURVE",
"357 25 OFFCURVE",
"361 43 CURVE SMOOTH",
"486 553 LINE SMOOTH",
"496 597 OFFCURVE",
"475 617 OFFCURVE",
"443 617 CURVE SMOOTH",
"410 617 OFFCURVE",
"395 602 OFFCURVE",
"388 573 CURVE SMOOTH",
"261 61 LINE SMOOTH",
"252 28 OFFCURVE",
"269 0 OFFCURVE",
"306 0 CURVE SMOOTH"
);
},
{
closed = 1;
nodes = (
"311 225 OFFCURVE",
"380 331 OFFCURVE",
"417 480 CURVE SMOOTH",
"442 578 OFFCURVE",
"446 650 OFFCURVE",
"365 650 CURVE SMOOTH",
"255 650 OFFCURVE",
"137 544 OFFCURVE",
"99 396 CURVE SMOOTH",
"71 282 OFFCURVE",
"119 225 OFFCURVE",
"201 225 CURVE SMOOTH"
);
},
{
closed = 1;
nodes = (
"185 321 OFFCURVE",
"196 365 OFFCURVE",
"200 382 CURVE SMOOTH",
"223 476 OFFCURVE",
"289 554 OFFCURVE",
"355 554 CURVE SMOOTH",
"384 554 OFFCURVE",
"371 507 OFFCURVE",
"368 492 CURVE SMOOTH",
"346 398 OFFCURVE",
"276 322 OFFCURVE",
"211 321 CURVE SMOOTH"
);
}
);
vertWidth = 0;
width = 485;
}
);
note = "";
unicode = 0039;
},
{
glyphname = .notdef;
layers = (
{
layerId = m01;
leftMetricsKey = N;
rightMetricsKey = N;
paths = (
{
closed = 1;
nodes = (
"413 0 LINE SMOOTH",
"424 0 OFFCURVE",
"435 12 OFFCURVE",
"439 27 CURVE SMOOTH",
"596 673 LINE SMOOTH",
"600 689 OFFCURVE",
"592 700 OFFCURVE",
"578 700 CURVE SMOOTH",
"239 700 LINE SMOOTH",
"222 700 OFFCURVE",
"212 689 OFFCURVE",
"208 673 CURVE SMOOTH",
"48 27 LINE SMOOTH",
"44 12 OFFCURVE",
"53 0 OFFCURVE",
"72 0 CURVE SMOOTH"
);
},
{
closed = 1;
nodes = (
"262 684 LINE",
"225 655 LINE",
"570 655 LINE",
"547 684 LINE",
"384 16 LINE",
"421 45 LINE",
"72 45 LINE",
"95 16 LINE"
);
}
);
vertWidth = 0;
width = 567;
},
{
layerId = "6449507E-FEE0-4D4A-A81F-7CAB6A5803D5";
leftMetricsKey = N;
rightMetricsKey = N;
paths = (
{
closed = 1;
nodes = (
"469 0 LINE SMOOTH",
"488 0 OFFCURVE",
"511 16 OFFCURVE",
"518 45 CURVE SMOOTH",
"667 641 LINE SMOOTH",
"677 679 OFFCURVE",
"654 700 OFFCURVE",
"624 700 CURVE SMOOTH",
"259 700 LINE SMOOTH",
"230 700 OFFCURVE",
"211 683 OFFCURVE",
"203 654 CURVE SMOOTH",
"55 59 LINE SMOOTH",
"47 29 OFFCURVE",
"61 0 OFFCURVE",
"104 0 CURVE SMOOTH"
);
},
{
closed = 1;
nodes = (
"301 624 LINE",
"274 603 LINE",
"590 603 LINE",
"564 638 LINE",
"422 76 LINE",
"449 97 LINE",
"132 97 LINE",
"158 62 LINE"
);
}
);
vertWidth = 0;
width = 642;
}
);
note = "";
},
{
glyphname = period;
layers = (
{
layerId = m01;
leftMetricsKey = n;
rightMetricsKey = n;
paths = (
{
closed = 1;
nodes = (
"108 0 OFFCURVE",
"126 18 OFFCURVE",
"126 39 CURVE SMOOTH",
"126 59 OFFCURVE",
"108 76 OFFCURVE",
"88 76 CURVE SMOOTH",
"67 76 OFFCURVE",
"51 59 OFFCURVE",
"51 39 CURVE SMOOTH",
"51 19 OFFCURVE",
"67 0 OFFCURVE",
"88 0 CURVE SMOOTH"
);
}
);
vertWidth = 0;
width = 252;
},
{
layerId = "6449507E-FEE0-4D4A-A81F-7CAB6A5803D5";
leftMetricsKey = n;
rightMetricsKey = n;
paths = (
{
closed = 1;
nodes = (
"126 0 OFFCURVE",
"156 30 OFFCURVE",
"156 65 CURVE SMOOTH",
"156 98 OFFCURVE",
"126 126 OFFCURVE",
"93 126 CURVE SMOOTH",
"58 126 OFFCURVE",
"31 98 OFFCURVE",
"31 65 CURVE SMOOTH",
"31 30 OFFCURVE",
"58 0 OFFCURVE",
"93 0 CURVE SMOOTH"
);
}
);
vertWidth = 0;
width = 219;
}
);
leftKerningGroup = period_left;
note = "";
rightKerningGroup = period_right;
unicode = 002E;
},
{
glyphname = comma;
layers = (
{
layerId = m01;
leftMetricsKey = n;
rightMetricsKey = n;
paths = (
{
closed = 1;
nodes = (
"77 -73 OFFCURVE",
"88 -67 OFFCURVE",
"93 -49 CURVE SMOOTH",
"117 46 LINE SMOOTH",
"122 67 OFFCURVE",
"108 76 OFFCURVE",
"95 76 CURVE SMOOTH",
"80 76 OFFCURVE",
"69 70 OFFCURVE",
"64 52 CURVE SMOOTH",
"40 -43 LINE SMOOTH",
"35 -64 OFFCURVE",
"49 -73 OFFCURVE",
"62 -73 CURVE SMOOTH"
);
}
);
vertWidth = 0;
width = 252;
},
{
layerId = "6449507E-FEE0-4D4A-A81F-7CAB6A5803D5";
leftMetricsKey = n;
rightMetricsKey = n;
paths = (
{
closed = 1;
nodes = (
"80 -79 OFFCURVE",
"101 -68 OFFCURVE",
"109 -37 CURVE SMOOTH",
"135 67 LINE SMOOTH",
"147 113 OFFCURVE",
"114 129 OFFCURVE",
"87 129 CURVE SMOOTH",
"61 129 OFFCURVE",
"41 119 OFFCURVE",
"33 87 CURVE SMOOTH",
"7 -17 LINE SMOOTH",
"-4 -62 OFFCURVE",
"28 -79 OFFCURVE",
"54 -79 CURVE SMOOTH"
);
}
);
vertWidth = 0;
width = 219;
}
);
leftKerningGroup = period_left;
note = "";
rightKerningGroup = period_right;
unicode = 002C;
},
{
glyphname = colon;
layers = (
{
layerId = m01;
leftMetricsKey = n;
rightMetricsKey = n;
paths = (
{
closed = 1;
nodes = (
"108 0 OFFCURVE",
"126 18 OFFCURVE",
"126 39 CURVE SMOOTH",
"126 59 OFFCURVE",
"108 76 OFFCURVE",
"88 76 CURVE SMOOTH",
"67 76 OFFCURVE",
"51 59 OFFCURVE",
"51 39 CURVE SMOOTH",
"51 19 OFFCURVE",
"67 0 OFFCURVE",
"88 0 CURVE SMOOTH"
);
},
{
closed = 1;
nodes = (
"176 273 OFFCURVE",
"194 291 OFFCURVE",
"194 312 CURVE SMOOTH",
"194 332 OFFCURVE",
"176 349 OFFCURVE",
"156 349 CURVE SMOOTH",
"135 349 OFFCURVE",
"119 332 OFFCURVE",
"119 312 CURVE SMOOTH",
"119 292 OFFCURVE",
"135 273 OFFCURVE",
"156 273 CURVE SMOOTH"
);
}
);
vertWidth = 0;
width = 252;
},
{
layerId = "6449507E-FEE0-4D4A-A81F-7CAB6A5803D5";
leftMetricsKey = n;
rightMetricsKey = n;
paths = (
{
closed = 1;
nodes = (
"126 0 OFFCURVE",
"156 30 OFFCURVE",
"156 65 CURVE SMOOTH",
"156 98 OFFCURVE",
"126 126 OFFCURVE",
"93 126 CURVE SMOOTH",
"58 126 OFFCURVE",
"31 98 OFFCURVE",
"31 65 CURVE SMOOTH",
"31 30 OFFCURVE",
"58 0 OFFCURVE",
"93 0 CURVE SMOOTH"
);
},
{
closed = 1;
nodes = (
"171 233 OFFCURVE",
"201 263 OFFCURVE",
"201 298 CURVE SMOOTH",
"201 331 OFFCURVE",
"171 359 OFFCURVE",
"138 359 CURVE SMOOTH",
"103 359 OFFCURVE",
"76 331 OFFCURVE",
"76 298 CURVE SMOOTH",
"76 263 OFFCURVE",
"103 233 OFFCURVE",
"138 233 CURVE SMOOTH"
);
}
);
vertWidth = 0;
width = 219;
}
);
leftKerningGroup = colon_left;
note = "";
rightKerningGroup = colon_right;
unicode = 003A;
},
{
glyphname = semicolon;
layers = (
{
layerId = m01;
leftMetricsKey = n;
rightMetricsKey = n;
paths = (
{
closed = 1;
nodes = (
"77 -73 OFFCURVE",
"88 -67 OFFCURVE",
"93 -49 CURVE SMOOTH",
"117 46 LINE SMOOTH",
"122 67 OFFCURVE",
"108 76 OFFCURVE",
"95 76 CURVE SMOOTH",
"80 76 OFFCURVE",
"69 70 OFFCURVE",
"64 52 CURVE SMOOTH",
"40 -43 LINE SMOOTH",
"35 -64 OFFCURVE",
"49 -73 OFFCURVE",
"62 -73 CURVE SMOOTH"
);
},
{
closed = 1;
nodes = (
"176 273 OFFCURVE",
"194 291 OFFCURVE",
"194 312 CURVE SMOOTH",
"194 332 OFFCURVE",
"176 349 OFFCURVE",
"156 349 CURVE SMOOTH",
"135 349 OFFCURVE",
"119 332 OFFCURVE",
"119 312 CURVE SMOOTH",
"119 292 OFFCURVE",
"135 273 OFFCURVE",
"156 273 CURVE SMOOTH"
);
}
);
vertWidth = 0;
width = 252;
},
{
layerId = "6449507E-FEE0-4D4A-A81F-7CAB6A5803D5";
leftMetricsKey = n;
rightMetricsKey = n;
paths = (
{
closed = 1;
nodes = (
"90 -79 OFFCURVE",
"111 -68 OFFCURVE",
"119 -37 CURVE SMOOTH",
"145 67 LINE SMOOTH",
"157 113 OFFCURVE",
"124 129 OFFCURVE",
"97 129 CURVE SMOOTH",
"71 129 OFFCURVE",
"51 119 OFFCURVE",
"43 87 CURVE SMOOTH",
"17 -17 LINE SMOOTH",
"6 -62 OFFCURVE",
"38 -79 OFFCURVE",
"64 -79 CURVE SMOOTH"
);
},
{
closed = 1;
nodes = (
"171 233 OFFCURVE",
"201 263 OFFCURVE",
"201 298 CURVE SMOOTH",
"201 331 OFFCURVE",
"171 359 OFFCURVE",
"138 359 CURVE SMOOTH",
"103 359 OFFCURVE",
"76 331 OFFCURVE",
"76 298 CURVE SMOOTH",
"76 263 OFFCURVE",
"103 233 OFFCURVE",
"138 233 CURVE SMOOTH"
);
}
);
vertWidth = 0;
width = 219;
}
);
leftKerningGroup = colon_left;
note = "";
rightKerningGroup = colon_right;
unicode = 003B;
},
{
glyphname = ellipsis;
layers = (
{
layerId = m01;
leftMetricsKey = n;
rightMetricsKey = n;
paths = (
{
closed = 1;
nodes = (
"108 0 OFFCURVE",
"126 18 OFFCURVE",
"126 39 CURVE SMOOTH",
"126 59 OFFCURVE",
"108 76 OFFCURVE",
"88 76 CURVE SMOOTH",
"67 76 OFFCURVE",
"51 59 OFFCURVE",
"51 39 CURVE SMOOTH",
"51 19 OFFCURVE",
"67 0 OFFCURVE",
"88 0 CURVE SMOOTH"
);
},
{
closed = 1;
nodes = (
"248 0 OFFCURVE",
"266 18 OFFCURVE",
"266 39 CURVE SMOOTH",
"266 59 OFFCURVE",
"248 76 OFFCURVE",
"228 76 CURVE SMOOTH",
"207 76 OFFCURVE",
"191 59 OFFCURVE",
"191 39 CURVE SMOOTH",
"191 19 OFFCURVE",
"207 0 OFFCURVE",
"228 0 CURVE SMOOTH"
);
},
{
closed = 1;
nodes = (
"388 0 OFFCURVE",
"406 18 OFFCURVE",
"406 39 CURVE SMOOTH",
"406 59 OFFCURVE",
"388 76 OFFCURVE",
"368 76 CURVE SMOOTH",
"347 76 OFFCURVE",
"331 59 OFFCURVE",
"331 39 CURVE SMOOTH",
"331 19 OFFCURVE",
"347 0 OFFCURVE",
"368 0 CURVE SMOOTH"
);
}
);
vertWidth = 0;
width = 532;
},
{
layerId = "6449507E-FEE0-4D4A-A81F-7CAB6A5803D5";
leftMetricsKey = n;
rightMetricsKey = n;
paths = (
{
closed = 1;
nodes = (
"113 0 OFFCURVE",
"143 30 OFFCURVE",
"143 65 CURVE SMOOTH",
"143 98 OFFCURVE",
"113 126 OFFCURVE",
"80 126 CURVE SMOOTH",
"45 126 OFFCURVE",
"18 98 OFFCURVE",
"18 65 CURVE SMOOTH",
"18 30 OFFCURVE",
"45 0 OFFCURVE",
"80 0 CURVE SMOOTH"
);
},
{
closed = 1;
nodes = (
"303 0 OFFCURVE",
"333 30 OFFCURVE",
"333 65 CURVE SMOOTH",
"333 98 OFFCURVE",
"303 126 OFFCURVE",
"270 126 CURVE SMOOTH",
"235 126 OFFCURVE",
"208 98 OFFCURVE",
"208 65 CURVE SMOOTH",
"208 30 OFFCURVE",
"235 0 OFFCURVE",
"270 0 CURVE SMOOTH"
);
},
{
closed = 1;
nodes = (
"493 0 OFFCURVE",
"523 30 OFFCURVE",
"523 65 CURVE SMOOTH",
"523 98 OFFCURVE",
"493 126 OFFCURVE",
"460 126 CURVE SMOOTH",
"425 126 OFFCURVE",
"398 98 OFFCURVE",
"398 65 CURVE SMOOTH",
"398 30 OFFCURVE",
"425 0 OFFCURVE",
"460 0 CURVE SMOOTH"
);
}
);
vertWidth = 0;
width = 599;
}
);
note = "";
unicode = 2026;
},
{
glyphname = exclam;
layers = (
{
layerId = m01;
leftMetricsKey = N;
rightMetricsKey = N;
paths = (
{
closed = 1;
nodes = (
"118 0 OFFCURVE",
"136 18 OFFCURVE",
"136 39 CURVE SMOOTH",
"136 59 OFFCURVE",
"118 76 OFFCURVE",
"98 76 CURVE SMOOTH",
"77 76 OFFCURVE",
"61 59 OFFCURVE",
"61 39 CURVE SMOOTH",
"61 19 OFFCURVE",
"77 0 OFFCURVE",
"98 0 CURVE SMOOTH"
);
},
{
closed = 1;
nodes = (
"147 175 OFFCURVE",
"160 181 OFFCURVE",
"165 200 CURVE SMOOTH",
"269 618 LINE SMOOTH",
"274 639 OFFCURVE",
"264 650 OFFCURVE",
"248 650 CURVE SMOOTH",
"237 650 OFFCURVE",
"224 644 OFFCURVE",
"219 625 CURVE SMOOTH",
"115 207 LINE SMOOTH",
"110 186 OFFCURVE",
"120 175 OFFCURVE",
"136 175 CURVE SMOOTH"
);
}
);
vertWidth = 0;
width = 272;
},
{
layerId = "6449507E-FEE0-4D4A-A81F-7CAB6A5803D5";
leftMetricsKey = N;
rightMetricsKey = N;
paths = (
{
closed = 1;
nodes = (
"153 0 OFFCURVE",
"183 30 OFFCURVE",
"183 65 CURVE SMOOTH",
"183 98 OFFCURVE",
"153 126 OFFCURVE",
"120 126 CURVE SMOOTH",
"85 126 OFFCURVE",
"58 98 OFFCURVE",
"58 65 CURVE SMOOTH",
"58 30 OFFCURVE",
"85 0 OFFCURVE",
"120 0 CURVE SMOOTH"
);
},
{
closed = 1;
nodes = (
"173 176 OFFCURVE",
"198 185 OFFCURVE",
"207 220 CURVE SMOOTH",
"298 587 LINE SMOOTH",
"309 633 OFFCURVE",
"283 650 OFFCURVE",
"252 650 CURVE SMOOTH",
"233 650 OFFCURVE",
"207 641 OFFCURVE",
"199 607 CURVE SMOOTH",
"108 240 LINE SMOOTH",
"96 193 OFFCURVE",
"123 176 OFFCURVE",
"154 176 CURVE SMOOTH"
);
}
);
vertWidth = 0;
width = 299;
}
);
note = "";
unicode = 0021;
},
{
glyphname = exclamdown;
layers = (
{
layerId = m01;
leftMetricsKey = N;
rightMetricsKey = N;
paths = (
{
closed = 1;
nodes = (
"262 574 OFFCURVE",
"278 591 OFFCURVE",
"278 611 CURVE SMOOTH",
"278 631 OFFCURVE",
"262 650 OFFCURVE",
"241 650 CURVE SMOOTH",
"221 650 OFFCURVE",
"203 632 OFFCURVE",
"203 611 CURVE SMOOTH",
"203 591 OFFCURVE",
"221 574 OFFCURVE",
"241 574 CURVE SMOOTH"
);
},
{
closed = 1;
nodes = (
"102 0 OFFCURVE",
"115 6 OFFCURVE",
"120 25 CURVE SMOOTH",
"224 443 LINE SMOOTH",
"229 464 OFFCURVE",
"219 475 OFFCURVE",
"203 475 CURVE SMOOTH",
"192 475 OFFCURVE",
"179 469 OFFCURVE",
"174 450 CURVE SMOOTH",
"70 32 LINE SMOOTH",
"65 11 OFFCURVE",
"75 0 OFFCURVE",
"91 0 CURVE SMOOTH"
);
}
);
vertWidth = 0;
width = 272;
},
{
layerId = "6449507E-FEE0-4D4A-A81F-7CAB6A5803D5";
leftMetricsKey = N;
rightMetricsKey = N;
paths = (
{
closed = 1;
nodes = (
"277 524 OFFCURVE",
"304 552 OFFCURVE",
"304 585 CURVE SMOOTH",
"304 620 OFFCURVE",
"277 650 OFFCURVE",
"242 650 CURVE SMOOTH",
"209 650 OFFCURVE",
"179 620 OFFCURVE",
"179 585 CURVE SMOOTH",
"179 552 OFFCURVE",
"209 524 OFFCURVE",
"242 524 CURVE SMOOTH"
);
},
{
closed = 1;
nodes = (
"129 0 OFFCURVE",
"155 9 OFFCURVE",
"163 43 CURVE SMOOTH",
"254 410 LINE SMOOTH",
"266 457 OFFCURVE",
"239 474 OFFCURVE",
"208 474 CURVE SMOOTH",
"189 474 OFFCURVE",
"164 465 OFFCURVE",
"155 430 CURVE SMOOTH",
"64 63 LINE SMOOTH",
"53 17 OFFCURVE",
"79 0 OFFCURVE",
"110 0 CURVE SMOOTH"
);
}
);
vertWidth = 0;
width = 299;
}
);
note = "";
unicode = 00A1;
},
{
glyphname = question;
layers = (
{
layerId = m01;
leftMetricsKey = O;
rightMetricsKey = O;
paths = (
{
closed = 1;
nodes = (
"183 0 OFFCURVE",
"201 18 OFFCURVE",
"201 39 CURVE SMOOTH",
"201 59 OFFCURVE",
"183 76 OFFCURVE",
"163 76 CURVE SMOOTH",
"142 76 OFFCURVE",
"126 59 OFFCURVE",
"126 39 CURVE SMOOTH",
"126 19 OFFCURVE",
"142 0 OFFCURVE",
"163 0 CURVE SMOOTH"
);
},
{
closed = 1;
nodes = (
"198 175 OFFCURVE",
"211 181 OFFCURVE",
"216 200 CURVE SMOOTH",
"240 298 LINE",
"219 280 LINE",
"352 280 OFFCURVE",
"455 379 OFFCURVE",
"454 512 CURVE SMOOTH",
"453 597 OFFCURVE",
"399 650 OFFCURVE",
"312 650 CURVE SMOOTH",
"224 650 OFFCURVE",
"148 589 OFFCURVE",
"122 489 CURVE SMOOTH",
"117 468 OFFCURVE",
"127 457 OFFCURVE",
"143 457 CURVE SMOOTH",
"154 457 OFFCURVE",
"167 463 OFFCURVE",
"172 482 CURVE SMOOTH",
"191 558 OFFCURVE",
"242 605 OFFCURVE",
"312 605 CURVE SMOOTH",
"370 605 OFFCURVE",
"406 567 OFFCURVE",
"406 506 CURVE SMOOTH",
"406 404 OFFCURVE",
"334 326 OFFCURVE",
"237 326 CURVE SMOOTH",
"206 326 OFFCURVE",
"194 316 OFFCURVE",
"188 293 CURVE SMOOTH",
"166 207 LINE SMOOTH",
"161 186 OFFCURVE",
"171 175 OFFCURVE",
"187 175 CURVE SMOOTH"
);
}
);
vertWidth = 0;
width = 424;
},
{
layerId = "6449507E-FEE0-4D4A-A81F-7CAB6A5803D5";
leftMetricsKey = O;
rightMetricsKey = O;
paths = (
{
closed = 1;
nodes = (
"212 0 OFFCURVE",
"242 30 OFFCURVE",
"242 65 CURVE SMOOTH",
"242 98 OFFCURVE",
"212 126 OFFCURVE",
"179 126 CURVE SMOOTH",
"144 126 OFFCURVE",
"117 98 OFFCURVE",
"117 65 CURVE SMOOTH",
"117 30 OFFCURVE",
"144 0 OFFCURVE",
"179 0 CURVE SMOOTH"
);
},
{
closed = 1;
nodes = (
"229 175 OFFCURVE",
"255 184 OFFCURVE",
"263 219 CURVE SMOOTH",
"277 277 LINE",
"251 256 LINE",
"359 256 OFFCURVE",
"449 332 OFFCURVE",
"477 447 CURVE SMOOTH",
"506 565 OFFCURVE",
"440 650 OFFCURVE",
"327 650 CURVE SMOOTH",
"227 650 OFFCURVE",
"147 587 OFFCURVE",
"120 482 CURVE SMOOTH",
"109 436 OFFCURVE",
"135 418 OFFCURVE",
"165 418 CURVE SMOOTH",
"185 418 OFFCURVE",
"209 427 OFFCURVE",
"219 462 CURVE SMOOTH",
"232 517 OFFCURVE",
"268 554 OFFCURVE",
"320 554 CURVE SMOOTH",
"368 554 OFFCURVE",
"389 512 OFFCURVE",
"377 463 CURVE SMOOTH",
"361 398 OFFCURVE",
"314 350 OFFCURVE",
"252 350 CURVE SMOOTH",
"203 350 OFFCURVE",
"188 336 OFFCURVE",
"180 303 CURVE SMOOTH",
"164 239 LINE SMOOTH",
"152 192 OFFCURVE",
"179 175 OFFCURVE",
"210 175 CURVE SMOOTH"
);
}
);
vertWidth = 0;
width = 456;
}
);
note = "";
unicode = 003F;
},
{
glyphname = questiondown;
layers = (
{
layerId = m01;
leftMetricsKey = O;
rightMetricsKey = O;
paths = (
{
closed = 1;
nodes = (
"272 0 OFFCURVE",
"348 61 OFFCURVE",
"374 161 CURVE SMOOTH",
"379 182 OFFCURVE",
"369 193 OFFCURVE",
"353 193 CURVE SMOOTH",
"342 193 OFFCURVE",
"329 187 OFFCURVE",
"324 168 CURVE SMOOTH",
"305 92 OFFCURVE",
"254 45 OFFCURVE",
"184 45 CURVE SMOOTH",
"126 45 OFFCURVE",
"90 83 OFFCURVE",
"90 144 CURVE SMOOTH",
"90 246 OFFCURVE",
"162 324 OFFCURVE",
"259 324 CURVE SMOOTH",
"290 324 OFFCURVE",
"302 334 OFFCURVE",
"308 357 CURVE SMOOTH",
"330 443 LINE SMOOTH",
"335 464 OFFCURVE",
"325 475 OFFCURVE",
"309 475 CURVE SMOOTH",
"298 475 OFFCURVE",
"285 469 OFFCURVE",
"280 450 CURVE SMOOTH",
"256 352 LINE",
"277 370 LINE",
"144 370 OFFCURVE",
"41 271 OFFCURVE",
"42 138 CURVE SMOOTH",
"43 53 OFFCURVE",
"97 0 OFFCURVE",
"184 0 CURVE SMOOTH"
);
},
{
closed = 1;
nodes = (
"354 574 OFFCURVE",
"370 591 OFFCURVE",
"370 611 CURVE SMOOTH",
"370 631 OFFCURVE",
"354 650 OFFCURVE",
"333 650 CURVE SMOOTH",
"313 650 OFFCURVE",
"295 632 OFFCURVE",
"295 611 CURVE SMOOTH",
"295 591 OFFCURVE",
"313 574 OFFCURVE",
"333 574 CURVE SMOOTH"
);
}
);
vertWidth = 0;
width = 424;
},
{
layerId = "6449507E-FEE0-4D4A-A81F-7CAB6A5803D5";
leftMetricsKey = O;
rightMetricsKey = O;
paths = (
{
closed = 1;
nodes = (
"301 0 OFFCURVE",
"381 63 OFFCURVE",
"408 168 CURVE SMOOTH",
"419 214 OFFCURVE",
"393 232 OFFCURVE",
"363 232 CURVE SMOOTH",
"343 232 OFFCURVE",
"319 223 OFFCURVE",
"309 188 CURVE SMOOTH",
"296 133 OFFCURVE",
"260 96 OFFCURVE",
"208 96 CURVE SMOOTH",
"160 96 OFFCURVE",
"139 138 OFFCURVE",
"151 187 CURVE SMOOTH",
"167 252 OFFCURVE",
"214 300 OFFCURVE",
"276 300 CURVE SMOOTH",
"325 300 OFFCURVE",
"340 314 OFFCURVE",
"348 347 CURVE SMOOTH",
"364 411 LINE SMOOTH",
"376 458 OFFCURVE",
"349 475 OFFCURVE",
"318 475 CURVE SMOOTH",
"299 475 OFFCURVE",
"273 466 OFFCURVE",
"265 431 CURVE SMOOTH",
"251 373 LINE",
"277 394 LINE",
"169 394 OFFCURVE",
"79 318 OFFCURVE",
"51 203 CURVE SMOOTH",
"22 85 OFFCURVE",
"88 0 OFFCURVE",
"201 0 CURVE SMOOTH"
);
},
{
closed = 1;
nodes = (
"384 524 OFFCURVE",
"411 552 OFFCURVE",
"411 585 CURVE SMOOTH",
"411 620 OFFCURVE",
"384 650 OFFCURVE",
"349 650 CURVE SMOOTH",
"316 650 OFFCURVE",
"286 620 OFFCURVE",
"286 585 CURVE SMOOTH",
"286 552 OFFCURVE",
"316 524 OFFCURVE",
"349 524 CURVE SMOOTH"
);
}
);
vertWidth = 0;
width = 456;
}
);
note = "";
unicode = 00BF;
},
{
glyphname = periodcentered;
layers = (
{
layerId = m01;
paths = (
{
closed = 1;
nodes = (
"152 176 OFFCURVE",
"170 194 OFFCURVE",
"170 215 CURVE SMOOTH",
"170 235 OFFCURVE",
"152 252 OFFCURVE",
"132 252 CURVE SMOOTH",
"111 252 OFFCURVE",
"95 235 OFFCURVE",
"95 215 CURVE SMOOTH",
"95 195 OFFCURVE",
"111 176 OFFCURVE",
"132 176 CURVE SMOOTH"
);
}
);
vertWidth = 0;
width = 252;
},
{
layerId = "6449507E-FEE0-4D4A-A81F-7CAB6A5803D5";
paths = (
{
closed = 1;
nodes = (
"150 149 OFFCURVE",
"180 179 OFFCURVE",
"180 214 CURVE SMOOTH",
"180 247 OFFCURVE",
"150 275 OFFCURVE",
"117 275 CURVE SMOOTH",
"82 275 OFFCURVE",
"55 247 OFFCURVE",
"55 214 CURVE SMOOTH",
"55 179 OFFCURVE",
"82 149 OFFCURVE",
"117 149 CURVE SMOOTH"
);
}
);
vertWidth = 0;
width = 219;
}
);
note = "";
unicode = 00B7;
},
{
glyphname = bullet;
layers = (
{
layerId = m01;
paths = (
{
closed = 1;
nodes = (
"244 278 OFFCURVE",
"281 314 OFFCURVE",
"281 355 CURVE SMOOTH",
"281 396 OFFCURVE",
"245 430 OFFCURVE",
"205 430 CURVE SMOOTH",
"163 430 OFFCURVE",
"131 395 OFFCURVE",
"131 355 CURVE SMOOTH",
"131 316 OFFCURVE",
"162 278 OFFCURVE",
"204 278 CURVE SMOOTH"
);
}
);
vertWidth = 0;
width = 330;
},
{
layerId = "6449507E-FEE0-4D4A-A81F-7CAB6A5803D5";
paths = (
{
closed = 1;
nodes = (
"259 258 OFFCURVE",
"306 304 OFFCURVE",
"306 355 CURVE SMOOTH",
"306 407 OFFCURVE",
"260 450 OFFCURVE",
"210 450 CURVE SMOOTH",
"157 450 OFFCURVE",
"116 406 OFFCURVE",
"116 355 CURVE SMOOTH",
"116 305 OFFCURVE",
"157 258 OFFCURVE",
"210 258 CURVE SMOOTH"
);
}
);
vertWidth = 0;
width = 330;
}
);
note = "";
unicode = 2022;
},
{
glyphname = asterisk;
layers = (
{
layerId = m01;
leftMetricsKey = N;
rightMetricsKey = N;
paths = (
{
closed = 1;
nodes = (
"285 380 OFFCURVE",
"289 392 OFFCURVE",
"289 412 CURVE SMOOTH",
"289 648 LINE SMOOTH",
"289 668 OFFCURVE",
"285 680 OFFCURVE",
"270 680 CURVE SMOOTH",
"253 680 OFFCURVE",
"250 668 OFFCURVE",
"250 648 CURVE SMOOTH",
"250 412 LINE SMOOTH",
"250 392 OFFCURVE",
"254 380 OFFCURVE",
"269 380 CURVE SMOOTH"
);
},
{
closed = 1;
nodes = (
"392 618 OFFCURVE",
"380 615 OFFCURVE",
"363 605 CURVE SMOOTH",
"158 487 LINE SMOOTH",
"141 477 OFFCURVE",
"133 468 OFFCURVE",
"140 455 CURVE SMOOTH",
"149 440 OFFCURVE",
"160 444 OFFCURVE",
"178 454 CURVE SMOOTH",
"382 572 LINE SMOOTH",
"400 582 OFFCURVE",
"408 591 OFFCURVE",
"400 604 CURVE SMOOTH"
);
},
{
closed = 1;
nodes = (
"133 592 OFFCURVE",
"141 583 OFFCURVE",
"158 573 CURVE SMOOTH",
"363 455 LINE SMOOTH",
"380 445 OFFCURVE",
"392 442 OFFCURVE",
"400 455 CURVE SMOOTH",
"408 470 OFFCURVE",
"400 478 OFFCURVE",
"382 488 CURVE SMOOTH",
"178 606 LINE SMOOTH",
"160 616 OFFCURVE",
"148 619 OFFCURVE",
"141 606 CURVE SMOOTH"
);
}
);
vertWidth = 0;
width = 367;
},
{
layerId = "6449507E-FEE0-4D4A-A81F-7CAB6A5803D5";
leftMetricsKey = N;
rightMetricsKey = N;
paths = (
{
closed = 1;
nodes = (
"295 380 OFFCURVE",
"301 390 OFFCURVE",
"301 432 CURVE SMOOTH",
"301 628 LINE SMOOTH",
"301 671 OFFCURVE",
"294 680 OFFCURVE",
"270 680 CURVE SMOOTH",
"243 680 OFFCURVE",
"238 670 OFFCURVE",
"238 628 CURVE SMOOTH",
"238 432 LINE SMOOTH",
"238 389 OFFCURVE",
"245 380 OFFCURVE",
"269 380 CURVE SMOOTH"
);
},
{
closed = 1;
nodes = (
"387.40381 626.65064 OFFCURVE",
"375.74356 626.84679 OFFCURVE",
"339.37049 605.84679 CURVE SMOOTH",
"169.62951 507.84679 LINE SMOOTH",
"132.39042 486.34679 OFFCURVE",
"128.09619 475.78461 OFFCURVE",
"140.09619 455 CURVE SMOOTH",
"153.59619 431.61731 OFFCURVE",
"164.75644 432.28719 OFFCURVE",
"201.12951 453.28719 CURVE SMOOTH",
"370.87049 551.28719 LINE SMOOTH",
"408.10958 572.78719 OFFCURVE",
"412.40381 583.34936 OFFCURVE",
"400.40381 604.13397 CURVE SMOOTH"
);
},
{
closed = 1;
nodes = (
"127.59619 583.34936 OFFCURVE",
"133.25644 573.15321 OFFCURVE",
"169.62951 552.15321 CURVE SMOOTH",
"339.37049 454.15321 LINE SMOOTH",
"376.60958 432.65321 OFFCURVE",
"387.90381 434.21539 OFFCURVE",
"399.90381 455 CURVE SMOOTH",
"413.40381 478.38269 OFFCURVE",
"407.24356 487.71281 OFFCURVE",
"370.87049 508.71281 CURVE SMOOTH",
"201.12951 606.71281 LINE SMOOTH",
"163.89042 628.21281 OFFCURVE",
"152.59619 626.65064 OFFCURVE",
"140.59619 605.86603 CURVE SMOOTH"
);
}
);
vertWidth = 0;
width = 367;
}
);
note = "";
unicode = 002A;
},
{
glyphname = numbersign;
layers = (
{
layerId = m01;
paths = (
{
closed = 1;
nodes = (
"651 214 LINE SMOOTH",
"668 214 OFFCURVE",
"677 226 OFFCURVE",
"677 237 CURVE SMOOTH",
"677 248 OFFCURVE",
"669 259 OFFCURVE",
"651 259 CURVE SMOOTH",
"126 259 LINE SMOOTH",
"108 259 OFFCURVE",
"100 248 OFFCURVE",
"100 237 CURVE SMOOTH",
"100 226 OFFCURVE",
"109 214 OFFCURVE",
"126 214 CURVE SMOOTH"
);
},
{
closed = 1;
nodes = (
"694 391 LINE SMOOTH",
"712 391 OFFCURVE",
"721 402 OFFCURVE",
"721 413 CURVE SMOOTH",
"721 424 OFFCURVE",
"712 436 OFFCURVE",
"694 436 CURVE SMOOTH",
"171 436 LINE SMOOTH",
"153 436 OFFCURVE",
"144 424 OFFCURVE",
"144 413 CURVE SMOOTH",
"144 402 OFFCURVE",
"153 391 OFFCURVE",
"171 391 CURVE SMOOTH"
);
},
{
closed = 1;
nodes = (
"239 0 OFFCURVE",
"244 13 OFFCURVE",
"247 23 CURVE SMOOTH",
"433 617 LINE SMOOTH",
"439 635 OFFCURVE",
"432 650 OFFCURVE",
"415 650 CURVE SMOOTH",
"396 650 OFFCURVE",
"389 641 OFFCURVE",
"384 625 CURVE SMOOTH",
"196 29 LINE SMOOTH",
"191 14 OFFCURVE",
"199 0 OFFCURVE",
"217 0 CURVE SMOOTH"
);
},
{
closed = 1;
nodes = (
"429 0 OFFCURVE",
"434 13 OFFCURVE",
"437 23 CURVE SMOOTH",
"623 617 LINE SMOOTH",
"629 635 OFFCURVE",
"622 650 OFFCURVE",
"605 650 CURVE SMOOTH",
"586 650 OFFCURVE",
"579 641 OFFCURVE",
"574 625 CURVE SMOOTH",
"386 29 LINE SMOOTH",
"381 14 OFFCURVE",
"389 0 OFFCURVE",
"407 0 CURVE SMOOTH"
);
}
);
vertWidth = 0;
width = 754;
},
{
layerId = "6449507E-FEE0-4D4A-A81F-7CAB6A5803D5";
paths = (
{
closed = 1;
nodes = (
"625 196 LINE SMOOTH",
"661 196 OFFCURVE",
"676 223 OFFCURVE",
"676 244 CURVE SMOOTH",
"676 266 OFFCURVE",
"664 292 OFFCURVE",
"625 292 CURVE SMOOTH",
"144 292 LINE SMOOTH",
"105 292 OFFCURVE",
"93 266 OFFCURVE",
"93 244 CURVE",
"93 223 OFFCURVE",
"108 196 OFFCURVE",
"144 196 CURVE SMOOTH"
);
},
{
closed = 1;
nodes = (
"664 358 LINE SMOOTH",
"703 358 OFFCURVE",
"716 384 OFFCURVE",
"716 406 CURVE SMOOTH",
"716 427 OFFCURVE",
"702 454 OFFCURVE",
"664 454 CURVE SMOOTH",
"185 454 LINE SMOOTH",
"147 454 OFFCURVE",
"133 427 OFFCURVE",
"133 406 CURVE SMOOTH",
"133 384 OFFCURVE",
"146 358 OFFCURVE",
"185 358 CURVE SMOOTH"
);
},
{
closed = 1;
nodes = (
"283 0 OFFCURVE",
"292 25 OFFCURVE",
"296 43 CURVE SMOOTH",
"429 586 LINE SMOOTH",
"439 630 OFFCURVE",
"418 650 OFFCURVE",
"386 650 CURVE SMOOTH",
"353 650 OFFCURVE",
"338 635 OFFCURVE",
"331 606 CURVE SMOOTH",
"196 61 LINE SMOOTH",
"187 28 OFFCURVE",
"204 0 OFFCURVE",
"242 0 CURVE SMOOTH"
);
},
{
closed = 1;
nodes = (
"465 0 OFFCURVE",
"474 25 OFFCURVE",
"478 43 CURVE SMOOTH",
"611 586 LINE SMOOTH",
"621 630 OFFCURVE",
"600 650 OFFCURVE",
"568 650 CURVE SMOOTH",
"535 650 OFFCURVE",
"520 635 OFFCURVE",
"513 606 CURVE SMOOTH",
"378 61 LINE SMOOTH",
"369 28 OFFCURVE",
"386 0 OFFCURVE",
"424 0 CURVE SMOOTH"
);
}
);
vertWidth = 0;
width = 737;
}
);
note = "";
unicode = 0023;
},
{
glyphname = slash;
layers = (
{
layerId = m01;
leftMetricsKey = N;
rightMetricsKey = N;
paths = (
{
closed = 1;
nodes = (
"84 0 OFFCURVE",
"93 10 OFFCURVE",
"101 23 CURVE SMOOTH",
"441 606 LINE SMOOTH",
"455 629 OFFCURVE",
"446 650 OFFCURVE",
"425 650 CURVE SMOOTH",
"412 650 OFFCURVE",
"403 640 OFFCURVE",
"395 627 CURVE SMOOTH",
"55 44 LINE SMOOTH",
"41 21 OFFCURVE",
"50 0 OFFCURVE",
"71 0 CURVE SMOOTH"
);
}
);
vertWidth = 0;
width = 403;
},
{
layerId = "6449507E-FEE0-4D4A-A81F-7CAB6A5803D5";
leftMetricsKey = N;
rightMetricsKey = N;
paths = (
{
closed = 1;
nodes = (
"93 0 OFFCURVE",
"110 12 OFFCURVE",
"124 34 CURVE SMOOTH",
"435 568 LINE SMOOTH",
"468 623 OFFCURVE",
"433 650 OFFCURVE",
"397 650 CURVE SMOOTH",
"377 650 OFFCURVE",
"360 638 OFFCURVE",
"346 616 CURVE SMOOTH",
"35 82 LINE SMOOTH",
"2 27 OFFCURVE",
"37 0 OFFCURVE",
"73 0 CURVE SMOOTH"
);
}
);
vertWidth = 0;
width = 403;
}
);
note = "";
unicode = 002F;
},
{
glyphname = backslash;
layers = (
{
layerId = m01;
leftMetricsKey = N;
rightMetricsKey = N;
paths = (
{
closed = 1;
nodes = (
"319 0 OFFCURVE",
"329 15 OFFCURVE",
"325 34 CURVE SMOOTH",
"188 627 LINE SMOOTH",
"185 639 OFFCURVE",
"181 650 OFFCURVE",
"164 650 CURVE SMOOTH",
"147 650 OFFCURVE",
"137 635 OFFCURVE",
"141 616 CURVE SMOOTH",
"278 23 LINE SMOOTH",
"281 11 OFFCURVE",
"285 0 OFFCURVE",
"302 0 CURVE SMOOTH"
);
}
);
vertWidth = 0;
width = 403;
},
{
layerId = "6449507E-FEE0-4D4A-A81F-7CAB6A5803D5";
leftMetricsKey = N;
rightMetricsKey = N;
paths = (
{
closed = 1;
nodes = (
"329 0 OFFCURVE",
"353 25 OFFCURVE",
"345 64 CURVE SMOOTH",
"220 608 LINE SMOOTH",
"213 632 OFFCURVE",
"202 650 OFFCURVE",
"171 650 CURVE SMOOTH",
"139 650 OFFCURVE",
"115 625 OFFCURVE",
"123 586 CURVE SMOOTH",
"248 42 LINE SMOOTH",
"255 18 OFFCURVE",
"266 0 OFFCURVE",
"297 0 CURVE SMOOTH"
);
}
);
vertWidth = 0;
width = 403;
}
);
note = "";
unicode = 005C;
},
{
glyphname = hyphen;
layers = (
{
layerId = m01;
paths = (
{
closed = 1;
nodes = (
"248 177 LINE SMOOTH",
"267 177 OFFCURVE",
"279 185 OFFCURVE",
"279 200 CURVE SMOOTH",
"279 215 OFFCURVE",
"268 223 OFFCURVE",
"250 223 CURVE SMOOTH",
"102 223 LINE SMOOTH",
"83 223 OFFCURVE",
"71 215 OFFCURVE",
"71 200 CURVE SMOOTH",
"71 185 OFFCURVE",
"82 177 OFFCURVE",
"100 177 CURVE SMOOTH"
);
}
);
vertWidth = 0;
width = 338;
},
{
layerId = "6449507E-FEE0-4D4A-A81F-7CAB6A5803D5";
paths = (
{
closed = 1;
nodes = (
"265 154 LINE SMOOTH",
"301 154 OFFCURVE",
"323 172 OFFCURVE",
"323 200 CURVE SMOOTH",
"323 227 OFFCURVE",
"304 244 OFFCURVE",
"274 244 CURVE SMOOTH",
"129 244 LINE SMOOTH",
"93 244 OFFCURVE",
"71 226 OFFCURVE",
"71 198 CURVE SMOOTH",
"71 171 OFFCURVE",
"90 154 OFFCURVE",
"120 154 CURVE SMOOTH"
);
}
);
vertWidth = 0;
width = 382;
}
);
leftKerningGroup = hyphen_left;
note = "";
rightKerningGroup = hyphen_right;
unicode = 002D;
},
{
glyphname = endash;
layers = (
{
layerId = m01;
paths = (
{
closed = 1;
nodes = (
"298 177 LINE SMOOTH",
"317 177 OFFCURVE",
"329 185 OFFCURVE",
"329 200 CURVE SMOOTH",
"329 215 OFFCURVE",
"318 223 OFFCURVE",
"300 223 CURVE SMOOTH",
"102 223 LINE SMOOTH",
"83 223 OFFCURVE",
"71 215 OFFCURVE",
"71 200 CURVE SMOOTH",
"71 185 OFFCURVE",
"82 177 OFFCURVE",
"100 177 CURVE SMOOTH"
);
}
);
vertWidth = 0;
width = 388;
},
{
layerId = "6449507E-FEE0-4D4A-A81F-7CAB6A5803D5";
paths = (
{
closed = 1;
nodes = (
"346 154 LINE SMOOTH",
"382 154 OFFCURVE",
"404 172 OFFCURVE",
"404 200 CURVE SMOOTH",
"404 227 OFFCURVE",
"385 244 OFFCURVE",
"355 244 CURVE SMOOTH",
"129 244 LINE SMOOTH",
"93 244 OFFCURVE",
"71 226 OFFCURVE",
"71 198 CURVE SMOOTH",
"71 171 OFFCURVE",
"90 154 OFFCURVE",
"120 154 CURVE SMOOTH"
);
}
);
vertWidth = 0;
width = 463;
}
);
leftKerningGroup = hyphen_left;
note = "";
rightKerningGroup = hyphen_right;
unicode = 2013;
},
{
glyphname = emdash;
layers = (
{
layerId = m01;
paths = (
{
closed = 1;
nodes = (
"448 177 LINE SMOOTH",
"467 177 OFFCURVE",
"479 185 OFFCURVE",
"479 200 CURVE SMOOTH",
"479 215 OFFCURVE",
"468 223 OFFCURVE",
"450 223 CURVE SMOOTH",
"102 223 LINE SMOOTH",
"83 223 OFFCURVE",
"71 215 OFFCURVE",
"71 200 CURVE SMOOTH",
"71 185 OFFCURVE",
"82 177 OFFCURVE",
"100 177 CURVE SMOOTH"
);
}
);
vertWidth = 0;
width = 538;
},
{
layerId = "6449507E-FEE0-4D4A-A81F-7CAB6A5803D5";
paths = (
{
closed = 1;
nodes = (
"438 154 LINE SMOOTH",
"474 154 OFFCURVE",
"496 172 OFFCURVE",
"496 200 CURVE SMOOTH",
"496 227 OFFCURVE",
"477 244 OFFCURVE",
"447 244 CURVE SMOOTH",
"129 244 LINE SMOOTH",
"93 244 OFFCURVE",
"71 226 OFFCURVE",
"71 198 CURVE SMOOTH",
"71 171 OFFCURVE",
"90 154 OFFCURVE",
"120 154 CURVE SMOOTH"
);
}
);
vertWidth = 0;
width = 555;
}
);
leftKerningGroup = hyphen_left;
note = "";
rightKerningGroup = hyphen_right;
unicode = 2014;
},
{
glyphname = underscore;
layers = (
{
layerId = m01;
paths = (
{
closed = 1;
nodes = (
"301 -80 LINE SMOOTH",
"320 -80 OFFCURVE",
"332 -72 OFFCURVE",
"332 -57 CURVE SMOOTH",
"332 -42 OFFCURVE",
"321 -34 OFFCURVE",
"303 -34 CURVE SMOOTH",
"55 -34 LINE SMOOTH",
"36 -34 OFFCURVE",
"24 -42 OFFCURVE",
"24 -57 CURVE SMOOTH",
"24 -72 OFFCURVE",
"35 -80 OFFCURVE",
"53 -80 CURVE SMOOTH"
);
}
);
vertWidth = 0;
width = 438;
},
{
layerId = "6449507E-FEE0-4D4A-A81F-7CAB6A5803D5";
paths = (
{
closed = 1;
nodes = (
"300 -98 LINE SMOOTH",
"336 -98 OFFCURVE",
"358 -80 OFFCURVE",
"358 -52 CURVE SMOOTH",
"358 -25 OFFCURVE",
"339 -8 OFFCURVE",
"309 -8 CURVE SMOOTH",
"83 -8 LINE SMOOTH",
"47 -8 OFFCURVE",
"25 -26 OFFCURVE",
"25 -54 CURVE SMOOTH",
"25 -81 OFFCURVE",
"44 -98 OFFCURVE",
"74 -98 CURVE SMOOTH"
);
}
);
vertWidth = 0;
width = 464;
}
);
leftKerningGroup = hyphen_left;
note = "";
rightKerningGroup = hyphen_right;
unicode = 005F;
},
{
glyphname = parenleft;
layers = (
{
layerId = m01;
leftMetricsKey = N;
rightMetricsKey = N;
paths = (
{
closed = 1;
nodes = (
"174 -193 OFFCURVE",
"181 -179 OFFCURVE",
"171 -161 CURVE SMOOTH",
"133 -89 OFFCURVE",
"115 -9 OFFCURVE",
"115 79 CURVE SMOOTH",
"115 272 OFFCURVE",
"222 481 OFFCURVE",
"363 607 CURVE SMOOTH",
"377 619 OFFCURVE",
"380 633 OFFCURVE",
"371 643 CURVE SMOOTH",
"363 652 OFFCURVE",
"347 651 OFFCURVE",
"332 638 CURVE SMOOTH",
"181 508 OFFCURVE",
"65 293 OFFCURVE",
"65 79 CURVE SMOOTH",
"65 -9 OFFCURVE",
"85 -97 OFFCURVE",
"130 -179 CURVE SMOOTH",
"139 -196 OFFCURVE",
"150 -203 OFFCURVE",
"162 -198 CURVE SMOOTH"
);
}
);
vertWidth = 0;
width = 358;
},
{
layerId = "6449507E-FEE0-4D4A-A81F-7CAB6A5803D5";
leftMetricsKey = N;
rightMetricsKey = N;
paths = (
{
closed = 1;
nodes = (
"193 -185 OFFCURVE",
"214 -160 OFFCURVE",
"192 -121 CURVE SMOOTH",
"159 -59 OFFCURVE",
"143 12 OFFCURVE",
"143 89 CURVE SMOOTH",
"143 261 OFFCURVE",
"239 448 OFFCURVE",
"365 560 CURVE SMOOTH",
"396 587 OFFCURVE",
"392 614 OFFCURVE",
"375 633 CURVE SMOOTH",
"360 649 OFFCURVE",
"332 660 OFFCURVE",
"299 631 CURVE SMOOTH",
"153 505 OFFCURVE",
"41 296 OFFCURVE",
"41 89 CURVE SMOOTH",
"41 2 OFFCURVE",
"60 -84 OFFCURVE",
"105 -165 CURVE SMOOTH",
"124 -202 OFFCURVE",
"148 -204 OFFCURVE",
"170 -195 CURVE SMOOTH"
);
}
);
vertWidth = 0;
width = 341;
}
);
note = "";
unicode = 0028;
},
{
glyphname = parenright;
layers = (
{
layerId = m01;
leftMetricsKey = N;
rightMetricsKey = N;
paths = (
{
closed = 1;
nodes = (
"178 -59 OFFCURVE",
"294 156 OFFCURVE",
"294 370 CURVE SMOOTH",
"294 458 OFFCURVE",
"274 546 OFFCURVE",
"229 628 CURVE SMOOTH",
"220 645 OFFCURVE",
"209 652 OFFCURVE",
"197 647 CURVE SMOOTH",
"185 642 OFFCURVE",
"178 628 OFFCURVE",
"188 610 CURVE SMOOTH",
"226 538 OFFCURVE",
"244 458 OFFCURVE",
"244 370 CURVE SMOOTH",
"244 177 OFFCURVE",
"137 -32 OFFCURVE",
"-4 -158 CURVE SMOOTH",
"-18 -170 OFFCURVE",
"-21 -184 OFFCURVE",
"-12 -194 CURVE SMOOTH",
"-4 -203 OFFCURVE",
"12 -202 OFFCURVE",
"27 -189 CURVE SMOOTH"
);
}
);
vertWidth = 0;
width = 358;
},
{
layerId = "6449507E-FEE0-4D4A-A81F-7CAB6A5803D5";
leftMetricsKey = N;
rightMetricsKey = N;
paths = (
{
closed = 1;
nodes = (
"200 -56 OFFCURVE",
"312 153 OFFCURVE",
"312 360 CURVE SMOOTH",
"312 447 OFFCURVE",
"293 533 OFFCURVE",
"248 614 CURVE SMOOTH",
"229 651 OFFCURVE",
"205 653 OFFCURVE",
"183 644 CURVE SMOOTH",
"160 634 OFFCURVE",
"139 609 OFFCURVE",
"161 570 CURVE SMOOTH",
"194 508 OFFCURVE",
"210 437 OFFCURVE",
"210 360 CURVE SMOOTH",
"210 188 OFFCURVE",
"114 1 OFFCURVE",
"-12 -111 CURVE SMOOTH",
"-43 -138 OFFCURVE",
"-39 -165 OFFCURVE",
"-22 -184 CURVE SMOOTH",
"-7 -200 OFFCURVE",
"21 -211 OFFCURVE",
"54 -182 CURVE SMOOTH"
);
}
);
vertWidth = 0;
width = 341;
}
);
note = "";
unicode = 0029;
},
{
glyphname = braceleft;
layers = (
{
guideLines = (
{
name = " [#dLwT1o6isy]";
position = "{286, 246}";
}
);
layerId = m01;
leftMetricsKey = N;
rightMetricsKey = N;
paths = (
{
closed = 1;
nodes = (
"148 -208 OFFCURVE",
"161 -210 OFFCURVE",
"170 -201 CURVE SMOOTH",
"180 -191 OFFCURVE",
"180 -179 OFFCURVE",
"168 -168 CURVE SMOOTH",
"122 -124 OFFCURVE",
"93 -75 OFFCURVE",
"93 -41 CURVE SMOOTH",
"93 11 OFFCURVE",
"143 73 OFFCURVE",
"143 121 CURVE SMOOTH",
"143 156 OFFCURVE",
"131 194 OFFCURVE",
"95 246 CURVE",
"87 204 LINE",
"165 256 OFFCURVE",
"197 314 OFFCURVE",
"197 371 CURVE SMOOTH",
"197 434 OFFCURVE",
"210 493 OFFCURVE",
"232 524 CURVE SMOOTH",
"254 557 OFFCURVE",
"298 584 OFFCURVE",
"359 608 CURVE SMOOTH",
"372 613 OFFCURVE",
"378 623 OFFCURVE",
"374 636 CURVE SMOOTH",
"370 648 OFFCURVE",
"359 652 OFFCURVE",
"343 646 CURVE SMOOTH",
"273 622 OFFCURVE",
"219 584 OFFCURVE",
"191 544 CURVE SMOOTH",
"164 504 OFFCURVE",
"147 440 OFFCURVE",
"147 378 CURVE SMOOTH",
"147 339 OFFCURVE",
"131 289 OFFCURVE",
"92 260 CURVE SMOOTH",
"76 248 OFFCURVE",
"65 240 OFFCURVE",
"62 228 CURVE SMOOTH",
"60 218 OFFCURVE",
"64 208 OFFCURVE",
"76 192 CURVE SMOOTH",
"88 175 OFFCURVE",
"94 149 OFFCURVE",
"94 126 CURVE SMOOTH",
"94 79 OFFCURVE",
"43 18 OFFCURVE",
"43 -36 CURVE SMOOTH",
"43 -86 OFFCURVE",
"78 -148 OFFCURVE",
"135 -197 CURVE SMOOTH"
);
}
);
vertWidth = 0;
width = 358;
},
{
guideLines = (
{
name = " [#dLwT1o6isy]";
position = "{286, 246}";
}
);
layerId = "6449507E-FEE0-4D4A-A81F-7CAB6A5803D5";
leftMetricsKey = N;
rightMetricsKey = N;
paths = (
{
closed = 1;
nodes = (
"164 -214 OFFCURVE",
"188 -209 OFFCURVE",
"205 -192 CURVE SMOOTH",
"227 -171 OFFCURVE",
"229 -145 OFFCURVE",
"203 -121 CURVE SMOOTH",
"168 -87 OFFCURVE",
"142 -50 OFFCURVE",
"142 -23 CURVE SMOOTH",
"142 25 OFFCURVE",
"188 83 OFFCURVE",
"188 128 CURVE SMOOTH",
"188 166 OFFCURVE",
"175 198 OFFCURVE",
"154 227 CURVE",
"147 208 LINE",
"205 246 OFFCURVE",
"239 299 OFFCURVE",
"239 361 CURVE SMOOTH",
"239 413 OFFCURVE",
"248 462 OFFCURVE",
"266 487 CURVE SMOOTH",
"285 515 OFFCURVE",
"322 536 OFFCURVE",
"372 556 CURVE SMOOTH",
"400 567 OFFCURVE",
"412 589 OFFCURVE",
"403 616 CURVE SMOOTH",
"395 641 OFFCURVE",
"375 658 OFFCURVE",
"337 643 CURVE SMOOTH",
"266 619 OFFCURVE",
"211 579 OFFCURVE",
"182 538 CURVE SMOOTH",
"154 497 OFFCURVE",
"136 431 OFFCURVE",
"136 367 CURVE SMOOTH",
"136 339 OFFCURVE",
"125 301 OFFCURVE",
"96 280 CURVE SMOOTH",
"74 263 OFFCURVE",
"62 250 OFFCURVE",
"58 234 CURVE SMOOTH",
"55 218 OFFCURVE",
"58 202 OFFCURVE",
"76 177 CURVE SMOOTH",
"84 166 OFFCURVE",
"87 148 OFFCURVE",
"87 132 CURVE SMOOTH",
"87 89 OFFCURVE",
"39 32 OFFCURVE",
"39 -19 CURVE SMOOTH",
"39 -71 OFFCURVE",
"74 -138 OFFCURVE",
"135 -190 CURVE SMOOTH"
);
}
);
vertWidth = 0;
width = 362;
}
);
note = "";
unicode = 007B;
},
{
glyphname = braceright;
layers = (
{
layerId = m01;
leftMetricsKey = N;
rightMetricsKey = N;
paths = (
{
closed = 1;
nodes = (
"88 -180 OFFCURVE",
"142 -142 OFFCURVE",
"170 -102 CURVE SMOOTH",
"197 -62 OFFCURVE",
"214 2 OFFCURVE",
"214 64 CURVE SMOOTH",
"214 103 OFFCURVE",
"230 153 OFFCURVE",
"269 182 CURVE SMOOTH",
"285 194 OFFCURVE",
"296 202 OFFCURVE",
"299 214 CURVE SMOOTH",
"301 224 OFFCURVE",
"297 234 OFFCURVE",
"285 250 CURVE SMOOTH",
"273 267 OFFCURVE",
"267 293 OFFCURVE",
"267 316 CURVE SMOOTH",
"267 363 OFFCURVE",
"318 424 OFFCURVE",
"318 478 CURVE SMOOTH",
"318 528 OFFCURVE",
"283 590 OFFCURVE",
"226 639 CURVE SMOOTH",
"213 650 OFFCURVE",
"200 652 OFFCURVE",
"191 643 CURVE SMOOTH",
"181 633 OFFCURVE",
"181 621 OFFCURVE",
"193 610 CURVE SMOOTH",
"239 566 OFFCURVE",
"268 517 OFFCURVE",
"268 483 CURVE SMOOTH",
"268 431 OFFCURVE",
"218 369 OFFCURVE",
"218 321 CURVE SMOOTH",
"218 286 OFFCURVE",
"230 248 OFFCURVE",
"266 196 CURVE",
"274 238 LINE",
"196 186 OFFCURVE",
"164 128 OFFCURVE",
"164 71 CURVE SMOOTH",
"164 8 OFFCURVE",
"151 -51 OFFCURVE",
"129 -82 CURVE SMOOTH",
"107 -115 OFFCURVE",
"63 -142 OFFCURVE",
"2 -166 CURVE SMOOTH",
"-11 -171 OFFCURVE",
"-17 -181 OFFCURVE",
"-13 -194 CURVE SMOOTH",
"-9 -206 OFFCURVE",
"2 -210 OFFCURVE",
"18 -204 CURVE SMOOTH"
);
}
);
vertWidth = 0;
width = 358;
},
{
layerId = "6449507E-FEE0-4D4A-A81F-7CAB6A5803D5";
leftMetricsKey = N;
rightMetricsKey = N;
paths = (
{
closed = 1;
nodes = (
"107 -176 OFFCURVE",
"162 -137 OFFCURVE",
"191 -96 CURVE SMOOTH",
"219 -55 OFFCURVE",
"237 11 OFFCURVE",
"237 75 CURVE SMOOTH",
"237 103 OFFCURVE",
"248 141 OFFCURVE",
"277 162 CURVE SMOOTH",
"299 179 OFFCURVE",
"312 192 OFFCURVE",
"315 208 CURVE SMOOTH",
"318 223 OFFCURVE",
"315 240 OFFCURVE",
"297 265 CURVE SMOOTH",
"289 276 OFFCURVE",
"286 294 OFFCURVE",
"286 310 CURVE SMOOTH",
"286 353 OFFCURVE",
"334 410 OFFCURVE",
"334 461 CURVE SMOOTH",
"334 513 OFFCURVE",
"299 580 OFFCURVE",
"238 632 CURVE SMOOTH",
"209 656 OFFCURVE",
"185 651 OFFCURVE",
"168 634 CURVE SMOOTH",
"146 613 OFFCURVE",
"144 587 OFFCURVE",
"170 563 CURVE SMOOTH",
"205 529 OFFCURVE",
"231 492 OFFCURVE",
"231 465 CURVE SMOOTH",
"231 417 OFFCURVE",
"185 359 OFFCURVE",
"185 314 CURVE SMOOTH",
"185 276 OFFCURVE",
"198 244 OFFCURVE",
"219 215 CURVE",
"226 234 LINE",
"168 196 OFFCURVE",
"134 143 OFFCURVE",
"134 81 CURVE SMOOTH",
"134 29 OFFCURVE",
"125 -20 OFFCURVE",
"107 -45 CURVE SMOOTH",
"88 -73 OFFCURVE",
"51 -94 OFFCURVE",
"1 -114 CURVE SMOOTH",
"-27 -125 OFFCURVE",
"-39 -147 OFFCURVE",
"-30 -174 CURVE SMOOTH",
"-21 -200 OFFCURVE",
"-3 -216 OFFCURVE",
"35 -202 CURVE SMOOTH"
);
}
);
vertWidth = 0;
width = 363;
}
);
note = "";
unicode = 007D;
},
{
glyphname = bracketleft;
layers = (
{
layerId = m01;
leftMetricsKey = N;
rightMetricsKey = N;
paths = (
{
closed = 1;
nodes = (
"154 -199 LINE SMOOTH",
"171 -199 OFFCURVE",
"180 -187 OFFCURVE",
"180 -176 CURVE SMOOTH",
"180 -165 OFFCURVE",
"172 -154 OFFCURVE",
"154 -154 CURVE SMOOTH",
"9 -154 LINE",
"32 -183 LINE",
"236 634 LINE",
"199 605 LINE",
"353 605 LINE SMOOTH",
"370 605 OFFCURVE",
"379 616 OFFCURVE",
"380 627 CURVE SMOOTH",
"381 638 OFFCURVE",
"372 650 OFFCURVE",
"353 650 CURVE SMOOTH",
"215 650 LINE SMOOTH",
"195 650 OFFCURVE",
"186 641 OFFCURVE",
"182 625 CURVE SMOOTH",
"-17 -171 LINE SMOOTH",
"-20 -185 OFFCURVE",
"-14 -199 OFFCURVE",
"5 -199 CURVE SMOOTH"
);
}
);
vertWidth = 0;
width = 358;
},
{
layerId = "6449507E-FEE0-4D4A-A81F-7CAB6A5803D5";
leftMetricsKey = N;
rightMetricsKey = N;
paths = (
{
closed = 1;
nodes = (
"153 -199 LINE SMOOTH",
"189 -199 OFFCURVE",
"205 -172 OFFCURVE",
"205 -149 CURVE SMOOTH",
"205 -127 OFFCURVE",
"193 -101 OFFCURVE",
"153 -101 CURVE SMOOTH",
"45 -101 LINE",
"73 -136 LINE",
"250 573 LINE",
"223 552 LINE",
"339 552 LINE SMOOTH",
"374 552 OFFCURVE",
"390 576 OFFCURVE",
"392 598 CURVE SMOOTH",
"394 620 OFFCURVE",
"382 650 OFFCURVE",
"339 650 CURVE SMOOTH",
"210 650 LINE SMOOTH",
"174 650 OFFCURVE",
"159 634 OFFCURVE",
"152 605 CURVE SMOOTH",
"-34 -138 LINE SMOOTH",
"-41 -169 OFFCURVE",
"-27 -199 OFFCURVE",
"14 -199 CURVE SMOOTH"
);
}
);
vertWidth = 0;
width = 344;
}
);
note = "";
unicode = 005B;
},
{
glyphname = bracketright;
layers = (
{
layerId = m01;
leftMetricsKey = N;
rightMetricsKey = N;
paths = (
{
closed = 1;
nodes = (
"148 -199 LINE SMOOTH",
"168 -199 OFFCURVE",
"177 -190 OFFCURVE",
"181 -174 CURVE SMOOTH",
"380 622 LINE SMOOTH",
"383 636 OFFCURVE",
"377 650 OFFCURVE",
"358 650 CURVE SMOOTH",
"209 650 LINE SMOOTH",
"192 650 OFFCURVE",
"183 638 OFFCURVE",
"183 627 CURVE SMOOTH",
"183 616 OFFCURVE",
"191 605 OFFCURVE",
"209 605 CURVE SMOOTH",
"354 605 LINE",
"331 634 LINE",
"127 -183 LINE",
"164 -154 LINE",
"10 -154 LINE SMOOTH",
"-7 -154 OFFCURVE",
"-16 -165 OFFCURVE",
"-17 -176 CURVE SMOOTH",
"-18 -187 OFFCURVE",
"-9 -199 OFFCURVE",
"10 -199 CURVE SMOOTH"
);
}
);
vertWidth = 0;
width = 358;
},
{
layerId = "6449507E-FEE0-4D4A-A81F-7CAB6A5803D5";
leftMetricsKey = N;
rightMetricsKey = N;
paths = (
{
closed = 1;
nodes = (
"146 -199 LINE SMOOTH",
"182 -199 OFFCURVE",
"197 -183 OFFCURVE",
"204 -154 CURVE SMOOTH",
"390 589 LINE SMOOTH",
"397 620 OFFCURVE",
"383 650 OFFCURVE",
"342 650 CURVE SMOOTH",
"203 650 LINE SMOOTH",
"167 650 OFFCURVE",
"151 623 OFFCURVE",
"151 600 CURVE SMOOTH",
"151 578 OFFCURVE",
"163 552 OFFCURVE",
"203 552 CURVE SMOOTH",
"311 552 LINE",
"283 587 LINE",
"106 -122 LINE",
"133 -101 LINE",
"17 -101 LINE SMOOTH",
"-18 -101 OFFCURVE",
"-34 -125 OFFCURVE",
"-36 -147 CURVE SMOOTH",
"-38 -169 OFFCURVE",
"-26 -199 OFFCURVE",
"17 -199 CURVE SMOOTH"
);
}
);
vertWidth = 0;
width = 343;
}
);
note = "";
unicode = 005D;
},
{
glyphname = quotedbl;
layers = (
{
layerId = m01;
leftMetricsKey = N;
rightMetricsKey = N;
paths = (
{
closed = 1;
nodes = (
"194 452 OFFCURVE",
"207 458 OFFCURVE",
"211 474 CURVE SMOOTH",
"248 619 LINE SMOOTH",
"253 638 OFFCURVE",
"239 650 OFFCURVE",
"226 650 CURVE SMOOTH",
"214 650 OFFCURVE",
"201 643 OFFCURVE",
"197 626 CURVE SMOOTH",
"160 482 LINE SMOOTH",
"155 464 OFFCURVE",
"169 452 OFFCURVE",
"182 452 CURVE SMOOTH"
);
},
{
closed = 1;
nodes = (
"334 452 OFFCURVE",
"347 458 OFFCURVE",
"351 474 CURVE SMOOTH",
"388 619 LINE SMOOTH",
"393 638 OFFCURVE",
"379 650 OFFCURVE",
"366 650 CURVE SMOOTH",
"354 650 OFFCURVE",
"341 643 OFFCURVE",
"337 626 CURVE SMOOTH",
"300 482 LINE SMOOTH",
"295 464 OFFCURVE",
"309 452 OFFCURVE",
"322 452 CURVE SMOOTH"
);
}
);
vertWidth = 0;
width = 369;
},
{
layerId = "6449507E-FEE0-4D4A-A81F-7CAB6A5803D5";
leftMetricsKey = N;
rightMetricsKey = N;
paths = (
{
closed = 1;
nodes = (
"213 405 OFFCURVE",
"232 420 OFFCURVE",
"238 439 CURVE SMOOTH",
"278 597 LINE SMOOTH",
"286 627 OFFCURVE",
"270 650 OFFCURVE",
"234 650 CURVE SMOOTH",
"209 650 OFFCURVE",
"190 635 OFFCURVE",
"184 614 CURVE SMOOTH",
"144 457 LINE SMOOTH",
"137 427 OFFCURVE",
"153 405 OFFCURVE",
"188 405 CURVE SMOOTH"
);
},
{
closed = 1;
nodes = (
"375 405 OFFCURVE",
"394 420 OFFCURVE",
"400 439 CURVE SMOOTH",
"441 597 LINE SMOOTH",
"449 627 OFFCURVE",
"433 650 OFFCURVE",
"397 650 CURVE SMOOTH",
"372 650 OFFCURVE",
"353 635 OFFCURVE",
"347 614 CURVE SMOOTH",
"307 457 LINE SMOOTH",
"300 427 OFFCURVE",
"316 405 OFFCURVE",
"351 405 CURVE SMOOTH"
);
}
);
vertWidth = 0;
width = 412;
}
);
leftKerningGroup = quote_left;
note = "";
rightKerningGroup = quote_right;
unicode = 0022;
},
{
glyphname = quotesingle;
layers = (
{
layerId = m01;
paths = (
{
closed = 1;
nodes = (
"194 452 OFFCURVE",
"207 458 OFFCURVE",
"211 474 CURVE SMOOTH",
"248 619 LINE SMOOTH",
"253 638 OFFCURVE",
"239 650 OFFCURVE",
"226 650 CURVE SMOOTH",
"214 650 OFFCURVE",
"201 643 OFFCURVE",
"197 626 CURVE SMOOTH",
"160 482 LINE SMOOTH",
"155 464 OFFCURVE",
"169 452 OFFCURVE",
"182 452 CURVE SMOOTH"
);
}
);
vertWidth = 0;
width = 229;
},
{
layerId = "6449507E-FEE0-4D4A-A81F-7CAB6A5803D5";
paths = (
{
closed = 1;
nodes = (
"213 405 OFFCURVE",
"232 420 OFFCURVE",
"238 439 CURVE SMOOTH",
"278 597 LINE SMOOTH",
"286 627 OFFCURVE",
"270 650 OFFCURVE",
"234 650 CURVE SMOOTH",
"209 650 OFFCURVE",
"190 635 OFFCURVE",
"184 614 CURVE SMOOTH",
"144 457 LINE SMOOTH",
"137 427 OFFCURVE",
"153 405 OFFCURVE",
"188 405 CURVE SMOOTH"
);
}
);
vertWidth = 0;
width = 249;
}
);
leftKerningGroup = quote_left;
note = "";
rightKerningGroup = quote_right;
unicode = 0027;
},
{
glyphname = at;
layers = (
{
layerId = m01;
leftMetricsKey = o;
rightMetricsKey = o;
paths = (
{
closed = 1;
nodes = (
"349 52 OFFCURVE",
"396 126 OFFCURVE",
"423 234 CURVE SMOOTH",
"449 338 OFFCURVE",
"436 406 OFFCURVE",
"369 406 CURVE SMOOTH",
"289 406 OFFCURVE",
"222 332 OFFCURVE",
"195 224 CURVE SMOOTH",
"169 120 OFFCURVE",
"202 52 OFFCURVE",
"269 52 CURVE SMOOTH"
);
},
{
closed = 1;
nodes = (
"240 97 OFFCURVE",
"226 137 OFFCURVE",
"245 215 CURVE SMOOTH",
"266 300 OFFCURVE",
"310 361 OFFCURVE",
"358 361 CURVE SMOOTH",
"398 361 OFFCURVE",
"412 321 OFFCURVE",
"393 243 CURVE SMOOTH",
"372 158 OFFCURVE",
"328 97 OFFCURVE",
"280 97 CURVE SMOOTH"
);
},
{
closed = 1;
nodes = (
"306 -80 OFFCURVE",
"355 -68 OFFCURVE",
"385 -60 CURVE SMOOTH",
"405 -55 OFFCURVE",
"409 -41 OFFCURVE",
"406 -29 CURVE SMOOTH",
"401 -13 OFFCURVE",
"382 -12 OFFCURVE",
"370 -16 CURVE SMOOTH",
"340 -25 OFFCURVE",
"297 -35 OFFCURVE",
"262 -35 CURVE SMOOTH",
"141 -35 OFFCURVE",
"72 77 OFFCURVE",
"106 214 CURVE SMOOTH",
"148 382 OFFCURVE",
"258 481 OFFCURVE",
"388 481 CURVE SMOOTH",
"510 481 OFFCURVE",
"579 385 OFFCURVE",
"547 250 CURVE SMOOTH",
"528 172 OFFCURVE",
"474 97 OFFCURVE",
"434 97 CURVE SMOOTH",
"418 97 OFFCURVE",
"416 131 OFFCURVE",
"430 185 CURVE SMOOTH",
"478 374 LINE SMOOTH",
"482 390 OFFCURVE",
"478 402 OFFCURVE",
"461 402 CURVE SMOOTH",
"442 402 OFFCURVE",
"432 395 OFFCURVE",
"427 377 CURVE SMOOTH",
"381 196 LINE SMOOTH",
"358 107 OFFCURVE",
"378 52 OFFCURVE",
"429 52 CURVE SMOOTH",
"492 52 OFFCURVE",
"571 146 OFFCURVE",
"597 251 CURVE SMOOTH",
"636 409 OFFCURVE",
"547 526 OFFCURVE",
"390 526 CURVE SMOOTH",
"233 526 OFFCURVE",
"103 410 OFFCURVE",
"56 223 CURVE SMOOTH",
"13 49 OFFCURVE",
"105 -80 OFFCURVE",
"265 -80 CURVE SMOOTH"
);
}
);
vertWidth = 0;
width = 624;
},
{
layerId = "6449507E-FEE0-4D4A-A81F-7CAB6A5803D5";
leftMetricsKey = o;
rightMetricsKey = o;
paths = (
{
closed = 1;
nodes = (
"382 49 OFFCURVE",
"413 124 OFFCURVE",
"441 229 CURVE SMOOTH",
"470 337 OFFCURVE",
"474 408 OFFCURVE",
"405 408 CURVE SMOOTH",
"328 408 OFFCURVE",
"256 341 OFFCURVE",
"229 233 CURVE SMOOTH",
"201 119 OFFCURVE",
"236 49 OFFCURVE",
"316 49 CURVE SMOOTH"
);
},
{
closed = 1;
nodes = (
"316 139 OFFCURVE",
"310 167 OFFCURVE",
"322 213 CURVE SMOOTH",
"338 278 OFFCURVE",
"369 318 OFFCURVE",
"403 318 CURVE SMOOTH",
"423 318 OFFCURVE",
"429 292 OFFCURVE",
"418 249 CURVE SMOOTH",
"401 181 OFFCURVE",
"370 139 OFFCURVE",
"337 139 CURVE SMOOTH"
);
},
{
closed = 1;
nodes = (
"341 -120 OFFCURVE",
"399 -111 OFFCURVE",
"447 -98 CURVE SMOOTH",
"484 -88 OFFCURVE",
"501 -64 OFFCURVE",
"492 -33 CURVE SMOOTH",
"483 -4 OFFCURVE",
"453 6 OFFCURVE",
"412 -8 CURVE SMOOTH",
"382 -18 OFFCURVE",
"338 -25 OFFCURVE",
"309 -25 CURVE SMOOTH",
"188 -25 OFFCURVE",
"124 78 OFFCURVE",
"158 215 CURVE SMOOTH",
"201 384 OFFCURVE",
"309 489 OFFCURVE",
"441 489 CURVE SMOOTH",
"558 489 OFFCURVE",
"622 395 OFFCURVE",
"593 268 CURVE SMOOTH",
"575 192 OFFCURVE",
"533 136 OFFCURVE",
"502 136 CURVE SMOOTH",
"487 136 OFFCURVE",
"492 164 OFFCURVE",
"496 179 CURVE SMOOTH",
"540 354 LINE SMOOTH",
"549 390 OFFCURVE",
"534 408 OFFCURVE",
"502 408 CURVE SMOOTH",
"472 408 OFFCURVE",
"456 397 OFFCURVE",
"449 369 CURVE SMOOTH",
"406 200 LINE SMOOTH",
"375 80 OFFCURVE",
"418 49 OFFCURVE",
"470 49 CURVE",
"569 49 OFFCURVE",
"664 137 OFFCURVE",
"693 254 CURVE SMOOTH",
"741 443 OFFCURVE",
"634 584 OFFCURVE",
"444 584 CURVE SMOOTH",
"260 584 OFFCURVE",
"113 453 OFFCURVE",
"60 240 CURVE SMOOTH",
"9 34 OFFCURVE",
"116 -120 OFFCURVE",
"311 -120 CURVE SMOOTH"
);
}
);
vertWidth = 0;
width = 720;
}
);
note = "";
unicode = 0040;
},
{
glyphname = ampersand;
layers = (
{
guideLines = (
{
angle = 76;
name = " [#5Q9LBHOic4]";
position = "{284, 422}";
}
);
layerId = m01;
leftMetricsKey = O;
rightMetricsKey = n;
paths = (
{
closed = 1;
nodes = (
"304 0 OFFCURVE",
"429 111 OFFCURVE",
"537 290 CURVE",
"545 302 OFFCURVE",
"540 316 OFFCURVE",
"528 322 CURVE SMOOTH",
"516 328 OFFCURVE",
"502 324 OFFCURVE",
"493 311 CURVE",
"395 147 OFFCURVE",
"283 45 OFFCURVE",
"203 45 CURVE SMOOTH",
"157 45 OFFCURVE",
"128 79 OFFCURVE",
"128 135 CURVE SMOOTH",
"128 203 OFFCURVE",
"182 275 OFFCURVE",
"289 347 CURVE SMOOTH",
"408 426 OFFCURVE",
"468 496 OFFCURVE",
"468 556 CURVE SMOOTH",
"468 614 OFFCURVE",
"424 650 OFFCURVE",
"354 650 CURVE SMOOTH",
"268 650 OFFCURVE",
"203 588 OFFCURVE",
"203 505 CURVE SMOOTH",
"203 463 OFFCURVE",
"229 413 OFFCURVE",
"261 355 CURVE SMOOTH",
"448 14 LINE SMOOTH",
"453 4 OFFCURVE",
"473 -7 OFFCURVE",
"488 4 CURVE SMOOTH",
"501 14 OFFCURVE",
"497 29 OFFCURVE",
"490 41 CURVE SMOOTH",
"302 383 LINE SMOOTH",
"275 432 OFFCURVE",
"253 470 OFFCURVE",
"253 514 CURVE SMOOTH",
"253 566 OFFCURVE",
"291 605 OFFCURVE",
"343 605 CURVE SMOOTH",
"392 605 OFFCURVE",
"418 583 OFFCURVE",
"418 549 CURVE SMOOTH",
"418 509 OFFCURVE",
"369 454 OFFCURVE",
"264 384 CURVE SMOOTH",
"142 304 OFFCURVE",
"78 217 OFFCURVE",
"78 127 CURVE SMOOTH",
"78 48 OFFCURVE",
"123 0 OFFCURVE",
"192 0 CURVE SMOOTH"
);
}
);
vertWidth = 0;
width = 627;
},
{
guideLines = (
{
angle = 76;
name = " [#5Q9LBHOic4]";
position = "{284, 422}";
}
);
layerId = "6449507E-FEE0-4D4A-A81F-7CAB6A5803D5";
leftMetricsKey = O;
rightMetricsKey = n;
paths = (
{
closed = 1;
nodes = (
"313 0 OFFCURVE",
"437 102 OFFCURVE",
"544 279 CURVE SMOOTH",
"560 303 OFFCURVE",
"550 334 OFFCURVE",
"524 347 CURVE SMOOTH",
"502 358 OFFCURVE",
"473 354 OFFCURVE",
"457 328 CURVE SMOOTH",
"372 190 OFFCURVE",
"282 96 OFFCURVE",
"214 96 CURVE SMOOTH",
"186 96 OFFCURVE",
"173 120 OFFCURVE",
"173 151 CURVE SMOOTH",
"173 207 OFFCURVE",
"222 264 OFFCURVE",
"308 322 CURVE SMOOTH",
"430 403 OFFCURVE",
"484 476 OFFCURVE",
"484 537 CURVE SMOOTH",
"484 604 OFFCURVE",
"437 650 OFFCURVE",
"352 650 CURVE SMOOTH",
"257 650 OFFCURVE",
"186 581 OFFCURVE",
"186 490 CURVE SMOOTH",
"186 448 OFFCURVE",
"211 397 OFFCURVE",
"243 339 CURVE SMOOTH",
"414 27 LINE SMOOTH",
"424 8 OFFCURVE",
"462 -12 OFFCURVE",
"491 9 CURVE SMOOTH",
"515 27 OFFCURVE",
"515 54 OFFCURVE",
"501 79 CURVE SMOOTH",
"329 391 LINE SMOOTH",
"307 431 OFFCURVE",
"287 462 OFFCURVE",
"287 498 CURVE SMOOTH",
"287 530 OFFCURVE",
"310 554 OFFCURVE",
"342 554 CURVE SMOOTH",
"363 554 OFFCURVE",
"383 549 OFFCURVE",
"383 530 CURVE SMOOTH",
"383 498 OFFCURVE",
"336 456 OFFCURVE",
"255 402 CURVE SMOOTH",
"132 322 OFFCURVE",
"72 233 OFFCURVE",
"72 144 CURVE SMOOTH",
"72 52 OFFCURVE",
"126 0 OFFCURVE",
"204 0 CURVE SMOOTH"
);
}
);
vertWidth = 0;
width = 620;
}
);
note = "";
unicode = 0026;
},
{
glyphname = degree;
layers = (
{
guideLines = (
{
name = " [#a8lJXTlcRe]";
position = "{323, 516}";
}
);
layerId = m01;
leftMetricsKey = N;
rightMetricsKey = N;
paths = (
{
closed = 1;
nodes = (
"373 391 OFFCURVE",
"428 447 OFFCURVE",
"428 521 CURVE SMOOTH",
"428 595 OFFCURVE",
"374 650 OFFCURVE",
"301 650 CURVE SMOOTH",
"228 650 OFFCURVE",
"174 595 OFFCURVE",
"174 521 CURVE SMOOTH",
"174 447 OFFCURVE",
"228 391 OFFCURVE",
"300 391 CURVE SMOOTH"
);
},
{
closed = 1;
nodes = (
"255 436 OFFCURVE",
"223 472 OFFCURVE",
"224 521 CURVE SMOOTH",
"224 569 OFFCURVE",
"257 605 OFFCURVE",
"301 605 CURVE SMOOTH",
"344 605 OFFCURVE",
"376 569 OFFCURVE",
"376 521 CURVE SMOOTH",
"376 472 OFFCURVE",
"344 436 OFFCURVE",
"300 436 CURVE SMOOTH"
);
}
);
vertWidth = 0;
width = 438;
},
{
guideLines = (
{
name = " [#a8lJXTlcRe]";
position = "{323, 516}";
}
);
layerId = "6449507E-FEE0-4D4A-A81F-7CAB6A5803D5";
leftMetricsKey = N;
rightMetricsKey = N;
paths = (
{
closed = 1;
nodes = (
"373 372 OFFCURVE",
"436 430 OFFCURVE",
"436 511 CURVE SMOOTH",
"436 592 OFFCURVE",
"374 650 OFFCURVE",
"300 650 CURVE SMOOTH",
"225 650 OFFCURVE",
"162 592 OFFCURVE",
"162 511 CURVE SMOOTH",
"162 430 OFFCURVE",
"225 372 OFFCURVE",
"299 372 CURVE SMOOTH"
);
},
{
closed = 1;
nodes = (
"273 458 OFFCURVE",
"252 483 OFFCURVE",
"252 511 CURVE SMOOTH",
"252 539 OFFCURVE",
"274 564 OFFCURVE",
"300 564 CURVE SMOOTH",
"324 564 OFFCURVE",
"344 538 OFFCURVE",
"344 511 CURVE SMOOTH",
"344 484 OFFCURVE",
"324 458 OFFCURVE",
"299 458 CURVE SMOOTH"
);
}
);
vertWidth = 0;
width = 433;
}
);
note = "";
unicode = 00B0;
},
{
glyphname = bar;
layers = (
{
layerId = m01;
leftMetricsKey = N;
rightMetricsKey = N;
paths = (
{
closed = 1;
nodes = (
"27 -299 OFFCURVE",
"33 -286 OFFCURVE",
"35 -276 CURVE SMOOTH",
"267 667 LINE SMOOTH",
"271 685 OFFCURVE",
"266 700 OFFCURVE",
"249 700 CURVE SMOOTH",
"230 700 OFFCURVE",
"222 691 OFFCURVE",
"218 675 CURVE SMOOTH",
"-16 -270 LINE SMOOTH",
"-20 -285 OFFCURVE",
"-13 -299 OFFCURVE",
"5 -299 CURVE SMOOTH"
);
}
);
vertWidth = 0;
width = 249;
},
{
layerId = "6449507E-FEE0-4D4A-A81F-7CAB6A5803D5";
leftMetricsKey = N;
rightMetricsKey = N;
paths = (
{
closed = 1;
nodes = (
"72 -299 OFFCURVE",
"82 -273 OFFCURVE",
"86 -255 CURVE SMOOTH",
"304 634 LINE SMOOTH",
"315 679 OFFCURVE",
"293 700 OFFCURVE",
"260 700 CURVE SMOOTH",
"226 700 OFFCURVE",
"211 684 OFFCURVE",
"203 655 CURVE SMOOTH",
"-17 -237 LINE SMOOTH",
"-26 -270 OFFCURVE",
"-9 -299 OFFCURVE",
"30 -299 CURVE SMOOTH"
);
}
);
vertWidth = 0;
width = 280;
}
);
note = "";
unicode = 007C;
},
{
glyphname = brokenbar;
layers = (
{
layerId = m01;
leftMetricsKey = N;
rightMetricsKey = N;
paths = (
{
closed = 1;
nodes = (
"166 260 OFFCURVE",
"172 273 OFFCURVE",
"174 283 CURVE SMOOTH",
"267 667 LINE SMOOTH",
"271 685 OFFCURVE",
"266 700 OFFCURVE",
"249 700 CURVE SMOOTH",
"230 700 OFFCURVE",
"222 691 OFFCURVE",
"218 675 CURVE SMOOTH",
"123 289 LINE SMOOTH",
"119 274 OFFCURVE",
"126 260 OFFCURVE",
"144 260 CURVE SMOOTH"
);
},
{
closed = 1;
nodes = (
"27 -299 OFFCURVE",
"33 -286 OFFCURVE",
"35 -276 CURVE SMOOTH",
"128 108 LINE SMOOTH",
"132 126 OFFCURVE",
"127 141 OFFCURVE",
"110 141 CURVE SMOOTH",
"91 141 OFFCURVE",
"83 132 OFFCURVE",
"79 116 CURVE SMOOTH",
"-16 -270 LINE SMOOTH",
"-20 -285 OFFCURVE",
"-13 -299 OFFCURVE",
"5 -299 CURVE SMOOTH"
);
}
);
vertWidth = 0;
width = 249;
},
{
layerId = "6449507E-FEE0-4D4A-A81F-7CAB6A5803D5";
leftMetricsKey = N;
rightMetricsKey = N;
paths = (
{
closed = 1;
nodes = (
"211 260 OFFCURVE",
"220 286 OFFCURVE",
"225 305 CURVE SMOOTH",
"304 634 LINE SMOOTH",
"315 679 OFFCURVE",
"293 700 OFFCURVE",
"260 700 CURVE SMOOTH",
"226 700 OFFCURVE",
"210 684 OFFCURVE",
"203 655 CURVE SMOOTH",
"122 323 LINE SMOOTH",
"114 290 OFFCURVE",
"130 260 OFFCURVE",
"169 260 CURVE SMOOTH"
);
},
{
closed = 1;
nodes = (
"72 -299 OFFCURVE",
"82 -273 OFFCURVE",
"86 -255 CURVE SMOOTH",
"165 75 LINE SMOOTH",
"176 120 OFFCURVE",
"154 141 OFFCURVE",
"121 141 CURVE SMOOTH",
"87 141 OFFCURVE",
"71 125 OFFCURVE",
"64 96 CURVE SMOOTH",
"-17 -237 LINE SMOOTH",
"-25 -270 OFFCURVE",
"-9 -299 OFFCURVE",
"30 -299 CURVE SMOOTH"
);
}
);
vertWidth = 0;
width = 280;
}
);
note = "";
unicode = 00A6;
},
{
glyphname = dollar;
layers = (
{
layerId = m01;
leftMetricsKey = S;
rightMetricsKey = S;
paths = (
{
closed = 1;
nodes = (
"349 0 OFFCURVE",
"412 63 OFFCURVE",
"438 164 CURVE SMOOTH",
"465 278 OFFCURVE",
"426 338 OFFCURVE",
"304 370 CURVE SMOOTH",
"232 389 OFFCURVE",
"212 424 OFFCURVE",
"225 473 CURVE SMOOTH",
"243 546 OFFCURVE",
"300 591 OFFCURVE",
"369 591 CURVE SMOOTH",
"411 591 OFFCURVE",
"433 560 OFFCURVE",
"454 496 CURVE SMOOTH",
"458 483 OFFCURVE",
"472 479 OFFCURVE",
"484 481 CURVE SMOOTH",
"500 484 OFFCURVE",
"506 499 OFFCURVE",
"503 509 CURVE SMOOTH",
"479 594 OFFCURVE",
"442 637 OFFCURVE",
"374 637 CURVE SMOOTH",
"279 637 OFFCURVE",
"199 579 OFFCURVE",
"176 484 CURVE SMOOTH",
"157 403 OFFCURVE",
"190 348 OFFCURVE",
"295 320 CURVE SMOOTH",
"380 297 OFFCURVE",
"407 254 OFFCURVE",
"388 172 CURVE SMOOTH",
"370 94 OFFCURVE",
"327 46 OFFCURVE",
"259 46 CURVE SMOOTH",
"194 46 OFFCURVE",
"140 93 OFFCURVE",
"132 168 CURVE SMOOTH",
"131 182 OFFCURVE",
"121 188 OFFCURVE",
"105 187 CURVE SMOOTH",
"89 186 OFFCURVE",
"81 178 OFFCURVE",
"82 163 CURVE SMOOTH",
"93 62 OFFCURVE",
"166 0 OFFCURVE",
"256 0 CURVE SMOOTH"
);
},
{
closed = 1;
nodes = (
"224 -96 OFFCURVE",
"230 -83 OFFCURVE",
"232 -73 CURVE SMOOTH",
"414 667 LINE SMOOTH",
"418 685 OFFCURVE",
"413 700 OFFCURVE",
"396 700 CURVE SMOOTH",
"377 700 OFFCURVE",
"369 691 OFFCURVE",
"365 675 CURVE SMOOTH",
"181 -67 LINE SMOOTH",
"177 -82 OFFCURVE",
"184 -96 OFFCURVE",
"202 -96 CURVE SMOOTH"
);
}
);
vertWidth = 0;
width = 532;
},
{
layerId = "6449507E-FEE0-4D4A-A81F-7CAB6A5803D5";
leftMetricsKey = S;
rightMetricsKey = S;
paths = (
{
closed = 1;
nodes = (
"374 -7 OFFCURVE",
"464 58 OFFCURVE",
"492 167 CURVE SMOOTH",
"521 291 OFFCURVE",
"461 357 OFFCURVE",
"327 392 CURVE SMOOTH",
"286 403 OFFCURVE",
"255 422 OFFCURVE",
"264 454 CURVE SMOOTH",
"277 508 OFFCURVE",
"329 543 OFFCURVE",
"381 543 CURVE SMOOTH",
"410 543 OFFCURVE",
"440 513 OFFCURVE",
"453 474 CURVE SMOOTH",
"461 449 OFFCURVE",
"487 437 OFFCURVE",
"512 441 CURVE SMOOTH",
"548 448 OFFCURVE",
"558 482 OFFCURVE",
"552 503 CURVE SMOOTH",
"525 599 OFFCURVE",
"460 641 OFFCURVE",
"385 641 CURVE SMOOTH",
"284 641 OFFCURVE",
"189 579 OFFCURVE",
"164 478 CURVE SMOOTH",
"143 388 OFFCURVE",
"185 324 OFFCURVE",
"305 292 CURVE SMOOTH",
"364 276 OFFCURVE",
"405 246 OFFCURVE",
"391 187 CURVE SMOOTH",
"378 131 OFFCURVE",
"329 92 OFFCURVE",
"278 92 CURVE SMOOTH",
"231 92 OFFCURVE",
"184 127 OFFCURVE",
"178 180 CURVE SMOOTH",
"176 208 OFFCURVE",
"160 225 OFFCURVE",
"123 223 CURVE SMOOTH",
"89 221 OFFCURVE",
"74 202 OFFCURVE",
"76 171 CURVE SMOOTH",
"88 60 OFFCURVE",
"178 -7 OFFCURVE",
"276 -7 CURVE SMOOTH"
);
},
{
closed = 1;
nodes = (
"267 -96 OFFCURVE",
"276 -71 OFFCURVE",
"281 -52 CURVE SMOOTH",
"450 635 LINE SMOOTH",
"460 679 OFFCURVE",
"438 700 OFFCURVE",
"406 700 CURVE SMOOTH",
"372 700 OFFCURVE",
"357 684 OFFCURVE",
"350 656 CURVE SMOOTH",
"179 -34 LINE SMOOTH",
"171 -67 OFFCURVE",
"187 -96 OFFCURVE",
"225 -96 CURVE SMOOTH"
);
}
);
vertWidth = 0;
width = 570;
}
);
note = "";
unicode = 0024;
},
{
glyphname = plus;
layers = (
{
layerId = m01;
leftMetricsKey = n;
rightMetricsKey = n;
paths = (
{
closed = 1;
nodes = (
"211 88 OFFCURVE",
"221 94 OFFCURVE",
"225 110 CURVE SMOOTH",
"280 331 LINE SMOOTH",
"284 349 OFFCURVE",
"273 361 OFFCURVE",
"261 362 CURVE SMOOTH",
"251 363 OFFCURVE",
"241 356 OFFCURVE",
"236 341 CURVE SMOOTH",
"182 120 LINE SMOOTH",
"178 101 OFFCURVE",
"189 89 OFFCURVE",
"201 88 CURVE SMOOTH"
);
},
{
closed = 1;
nodes = (
"344 205 LINE SMOOTH",
"362 205 OFFCURVE",
"371 217 OFFCURVE",
"371 228 CURVE SMOOTH",
"371 239 OFFCURVE",
"362 250 OFFCURVE",
"344 250 CURVE SMOOTH",
"117 250 LINE SMOOTH",
"99 250 OFFCURVE",
"90 239 OFFCURVE",
"90 228 CURVE SMOOTH",
"90 216 OFFCURVE",
"99 205 OFFCURVE",
"117 205 CURVE SMOOTH"
);
}
);
vertWidth = 0;
width = 426;
},
{
layerId = "6449507E-FEE0-4D4A-A81F-7CAB6A5803D5";
leftMetricsKey = n;
rightMetricsKey = n;
paths = (
{
closed = 1;
nodes = (
"213 68 OFFCURVE",
"233 76 OFFCURVE",
"240 105 CURVE SMOOTH",
"294 327 LINE SMOOTH",
"302 362 OFFCURVE",
"278 382 OFFCURVE",
"257 382 CURVE SMOOTH",
"240 382 OFFCURVE",
"218 377 OFFCURVE",
"211 348 CURVE SMOOTH",
"157 125 LINE",
"149 87 OFFCURVE",
"174 68 OFFCURVE",
"195 68 CURVE SMOOTH"
);
},
{
closed = 1;
nodes = (
"337 184 LINE SMOOTH",
"371 184 OFFCURVE",
"383 208 OFFCURVE",
"383 227 CURVE SMOOTH",
"383 247 OFFCURVE",
"371 270 OFFCURVE",
"337 270 CURVE SMOOTH",
"110 270 LINE SMOOTH",
"76 270 OFFCURVE",
"64 247 OFFCURVE",
"64 227 CURVE SMOOTH",
"64 207 OFFCURVE",
"76 184 OFFCURVE",
"110 184 CURVE SMOOTH"
);
}
);
vertWidth = 0;
width = 426;
}
);
note = "";
unicode = 002B;
},
{
glyphname = minus;
layers = (
{
layerId = m01;
leftMetricsKey = n;
rightMetricsKey = n;
paths = (
{
closed = 1;
nodes = (
"344 205 LINE SMOOTH",
"362 205 OFFCURVE",
"371 217 OFFCURVE",
"371 228 CURVE SMOOTH",
"371 239 OFFCURVE",
"362 250 OFFCURVE",
"344 250 CURVE SMOOTH",
"117 250 LINE SMOOTH",
"99 250 OFFCURVE",
"90 239 OFFCURVE",
"90 228 CURVE SMOOTH",
"90 216 OFFCURVE",
"99 205 OFFCURVE",
"117 205 CURVE SMOOTH"
);
}
);
vertWidth = 0;
width = 426;
},
{
layerId = "6449507E-FEE0-4D4A-A81F-7CAB6A5803D5";
leftMetricsKey = n;
rightMetricsKey = n;
paths = (
{
closed = 1;
nodes = (
"337 184 LINE SMOOTH",
"371 184 OFFCURVE",
"383 208 OFFCURVE",
"383 227 CURVE SMOOTH",
"383 247 OFFCURVE",
"371 270 OFFCURVE",
"337 270 CURVE SMOOTH",
"110 270 LINE SMOOTH",
"76 270 OFFCURVE",
"64 247 OFFCURVE",
"64 227 CURVE SMOOTH",
"64 207 OFFCURVE",
"76 184 OFFCURVE",
"110 184 CURVE SMOOTH"
);
}
);
vertWidth = 0;
width = 426;
}
);
note = "";
unicode = 2212;
},
{
glyphname = multiply;
layers = (
{
layerId = m01;
leftMetricsKey = o;
rightMetricsKey = o;
paths = (
{
closed = 1;
nodes = (
"371 327 LINE SMOOTH",
"385 339 OFFCURVE",
"385 352 OFFCURVE",
"376 360 CURVE SMOOTH",
"367 369 OFFCURVE",
"353 370 OFFCURVE",
"339 358 CURVE SMOOTH",
"71 123 LINE SMOOTH",
"59 113 OFFCURVE",
"59 100 OFFCURVE",
"67 91 CURVE SMOOTH",
"76 82 OFFCURVE",
"89 79 OFFCURVE",
"105 93 CURVE SMOOTH"
);
},
{
closed = 1;
nodes = (
"302 79 OFFCURVE",
"315 80 OFFCURVE",
"324 87 CURVE SMOOTH",
"335 95 OFFCURVE",
"338 107 OFFCURVE",
"328 121 CURVE SMOOTH",
"156 353 LINE SMOOTH",
"145 368 OFFCURVE",
"131 370 OFFCURVE",
"122 363 CURVE SMOOTH",
"112 355 OFFCURVE",
"109 340 OFFCURVE",
"118 327 CURVE SMOOTH",
"291 93 LINE SMOOTH"
);
}
);
vertWidth = 0;
width = 426;
},
{
layerId = "6449507E-FEE0-4D4A-A81F-7CAB6A5803D5";
leftMetricsKey = o;
rightMetricsKey = o;
paths = (
{
closed = 1;
nodes = (
"371 300 LINE SMOOTH",
"401 327 OFFCURVE",
"392 348 OFFCURVE",
"376 364 CURVE SMOOTH",
"362 378 OFFCURVE",
"338 385 OFFCURVE",
"313 363 CURVE SMOOTH",
"73 150 LINE SMOOTH",
"50 130 OFFCURVE",
"53 105 OFFCURVE",
"68 89 CURVE SMOOTH",
"83 73 OFFCURVE",
"104 63 OFFCURVE",
"133 88 CURVE SMOOTH"
);
},
{
closed = 1;
nodes = (
"291 65 OFFCURVE",
"316 70 OFFCURVE",
"332 82 CURVE SMOOTH",
"351 96 OFFCURVE",
"359 118 OFFCURVE",
"340 144 CURVE",
"179 354 LINE SMOOTH",
"156 385 OFFCURVE",
"131 379 OFFCURVE",
"116 368 CURVE SMOOTH",
"98 354 OFFCURVE",
"91 327 OFFCURVE",
"108 305 CURVE SMOOTH",
"270 92 LINE SMOOTH"
);
}
);
vertWidth = 0;
width = 426;
}
);
note = "";
unicode = 00D7;
},
{
glyphname = divide;
layers = (
{
layerId = m01;
leftMetricsKey = n;
rightMetricsKey = n;
paths = (
{
closed = 1;
nodes = (
"220 87 OFFCURVE",
"236 103 OFFCURVE",
"236 120 CURVE SMOOTH",
"236 138 OFFCURVE",
"219 152 OFFCURVE",
"202 152 CURVE SMOOTH",
"183 152 OFFCURVE",
"171 136 OFFCURVE",
"171 120 CURVE SMOOTH",
"171 103 OFFCURVE",
"184 87 OFFCURVE",
"202 87 CURVE SMOOTH"
);
},
{
closed = 1;
nodes = (
"344 205 LINE SMOOTH",
"362 205 OFFCURVE",
"371 217 OFFCURVE",
"371 228 CURVE SMOOTH",
"371 239 OFFCURVE",
"362 250 OFFCURVE",
"344 250 CURVE SMOOTH",
"117 250 LINE SMOOTH",
"99 250 OFFCURVE",
"90 239 OFFCURVE",
"90 228 CURVE SMOOTH",
"90 217 OFFCURVE",
"99 205 OFFCURVE",
"117 205 CURVE SMOOTH"
);
},
{
closed = 1;
nodes = (
"274 303 OFFCURVE",
"290 319 OFFCURVE",
"290 336 CURVE SMOOTH",
"290 353 OFFCURVE",
"274 368 OFFCURVE",
"257 368 CURVE SMOOTH",
"239 368 OFFCURVE",
"225 352 OFFCURVE",
"225 336 CURVE SMOOTH",
"225 320 OFFCURVE",
"239 303 OFFCURVE",
"257 303 CURVE SMOOTH"
);
}
);
vertWidth = 0;
width = 426;
},
{
layerId = "6449507E-FEE0-4D4A-A81F-7CAB6A5803D5";
leftMetricsKey = n;
rightMetricsKey = n;
paths = (
{
closed = 1;
nodes = (
"228 48 OFFCURVE",
"255 75 OFFCURVE",
"255 106 CURVE SMOOTH",
"255 135 OFFCURVE",
"228 160 OFFCURVE",
"199 160 CURVE SMOOTH",
"168 160 OFFCURVE",
"144 135 OFFCURVE",
"144 106 CURVE SMOOTH",
"144 75 OFFCURVE",
"168 48 OFFCURVE",
"199 48 CURVE SMOOTH"
);
},
{
closed = 1;
nodes = (
"337 184 LINE SMOOTH",
"371 184 OFFCURVE",
"383 208 OFFCURVE",
"383 227 CURVE SMOOTH",
"383 247 OFFCURVE",
"371 270 OFFCURVE",
"337 270 CURVE SMOOTH",
"110 270 LINE SMOOTH",
"76 270 OFFCURVE",
"64 247 OFFCURVE",
"64 227 CURVE SMOOTH",
"64 207 OFFCURVE",
"76 184 OFFCURVE",
"110 184 CURVE SMOOTH"
);
},
{
closed = 1;
nodes = (
"267 294 OFFCURVE",
"294 321 OFFCURVE",
"294 352 CURVE SMOOTH",
"294 381 OFFCURVE",
"267 406 OFFCURVE",
"238 406 CURVE SMOOTH",
"207 406 OFFCURVE",
"183 381 OFFCURVE",
"183 352 CURVE SMOOTH",
"183 321 OFFCURVE",
"207 294 OFFCURVE",
"238 294 CURVE SMOOTH"
);
}
);
vertWidth = 0;
width = 426;
}
);
note = "";
unicode = 00F7;
},
{
glyphname = equal;
layers = (
{
layerId = m01;
leftMetricsKey = n;
rightMetricsKey = n;
paths = (
{
closed = 1;
nodes = (
"323 129 LINE SMOOTH",
"341 129 OFFCURVE",
"350 141 OFFCURVE",
"350 152 CURVE SMOOTH",
"350 163 OFFCURVE",
"341 174 OFFCURVE",
"323 174 CURVE SMOOTH",
"96 174 LINE SMOOTH",
"78 174 OFFCURVE",
"69 162 OFFCURVE",
"69 151 CURVE SMOOTH",
"69 140 OFFCURVE",
"78 129 OFFCURVE",
"96 129 CURVE SMOOTH"
);
},
{
closed = 1;
nodes = (
"360 280 LINE SMOOTH",
"378 280 OFFCURVE",
"387 292 OFFCURVE",
"387 303 CURVE SMOOTH",
"387 314 OFFCURVE",
"378 325 OFFCURVE",
"360 325 CURVE SMOOTH",
"133 325 LINE SMOOTH",
"115 325 OFFCURVE",
"106 313 OFFCURVE",
"106 302 CURVE SMOOTH",
"106 291 OFFCURVE",
"115 280 OFFCURVE",
"133 280 CURVE SMOOTH"
);
}
);
vertWidth = 0;
width = 426;
},
{
layerId = "6449507E-FEE0-4D4A-A81F-7CAB6A5803D5";
leftMetricsKey = n;
rightMetricsKey = n;
paths = (
{
closed = 1;
nodes = (
"315 120 LINE SMOOTH",
"349 120 OFFCURVE",
"361 144 OFFCURVE",
"361 163 CURVE SMOOTH",
"361 183 OFFCURVE",
"349 206 OFFCURVE",
"315 206 CURVE SMOOTH",
"88 206 LINE SMOOTH",
"54 206 OFFCURVE",
"42 183 OFFCURVE",
"42 163 CURVE SMOOTH",
"42 143 OFFCURVE",
"54 120 OFFCURVE",
"88 120 CURVE SMOOTH"
);
},
{
closed = 1;
nodes = (
"348 251 LINE SMOOTH",
"382 251 OFFCURVE",
"394 275 OFFCURVE",
"394 294 CURVE SMOOTH",
"394 314 OFFCURVE",
"382 337 OFFCURVE",
"348 337 CURVE SMOOTH",
"121 337 LINE SMOOTH",
"87 337 OFFCURVE",
"75 314 OFFCURVE",
"75 294 CURVE SMOOTH",
"75 274 OFFCURVE",
"87 251 OFFCURVE",
"121 251 CURVE SMOOTH"
);
}
);
vertWidth = 0;
width = 426;
}
);
note = "";
unicode = 003D;
},
{
glyphname = notequal;
layers = (
{
layerId = m01;
leftMetricsKey = n;
rightMetricsKey = n;
paths = (
{
closed = 1;
nodes = (
"323 129 LINE SMOOTH",
"341 129 OFFCURVE",
"350 141 OFFCURVE",
"350 152 CURVE SMOOTH",
"350 163 OFFCURVE",
"341 174 OFFCURVE",
"323 174 CURVE SMOOTH",
"96 174 LINE SMOOTH",
"78 174 OFFCURVE",
"69 162 OFFCURVE",
"69 151 CURVE SMOOTH",
"69 140 OFFCURVE",
"78 129 OFFCURVE",
"96 129 CURVE SMOOTH"
);
},
{
closed = 1;
nodes = (
"360 280 LINE SMOOTH",
"378 280 OFFCURVE",
"387 292 OFFCURVE",
"387 303 CURVE SMOOTH",
"387 314 OFFCURVE",
"378 325 OFFCURVE",
"360 325 CURVE SMOOTH",
"133 325 LINE SMOOTH",
"115 325 OFFCURVE",
"106 313 OFFCURVE",
"106 302 CURVE SMOOTH",
"106 291 OFFCURVE",
"115 280 OFFCURVE",
"133 280 CURVE SMOOTH"
);
},
{
closed = 1;
nodes = (
"309 338 LINE SMOOTH",
"323 362 OFFCURVE",
"309 377 OFFCURVE",
"295 377 CURVE SMOOTH",
"285 377 OFFCURVE",
"278 373 OFFCURVE",
"271 362 CURVE SMOOTH",
"132 110 LINE SMOOTH",
"123 92 OFFCURVE",
"130 80 OFFCURVE",
"141 75 CURVE SMOOTH",
"150 71 OFFCURVE",
"164 73 OFFCURVE",
"173 89 CURVE SMOOTH"
);
}
);
vertWidth = 0;
width = 426;
},
{
layerId = "6449507E-FEE0-4D4A-A81F-7CAB6A5803D5";
leftMetricsKey = n;
rightMetricsKey = n;
paths = (
{
closed = 1;
nodes = (
"315 120 LINE SMOOTH",
"349 120 OFFCURVE",
"361 144 OFFCURVE",
"361 163 CURVE SMOOTH",
"361 183 OFFCURVE",
"349 206 OFFCURVE",
"315 206 CURVE SMOOTH",
"88 206 LINE SMOOTH",
"54 206 OFFCURVE",
"42 183 OFFCURVE",
"42 163 CURVE SMOOTH",
"42 143 OFFCURVE",
"54 120 OFFCURVE",
"88 120 CURVE SMOOTH"
);
},
{
closed = 1;
nodes = (
"348 251 LINE SMOOTH",
"382 251 OFFCURVE",
"394 275 OFFCURVE",
"394 294 CURVE SMOOTH",
"394 314 OFFCURVE",
"382 337 OFFCURVE",
"348 337 CURVE SMOOTH",
"121 337 LINE SMOOTH",
"87 337 OFFCURVE",
"75 314 OFFCURVE",
"75 294 CURVE SMOOTH",
"75 274 OFFCURVE",
"87 251 OFFCURVE",
"121 251 CURVE SMOOTH"
);
},
{
closed = 1;
nodes = (
"336 337 LINE SMOOTH",
"370 393 OFFCURVE",
"326 407 OFFCURVE",
"303 407 CURVE SMOOTH",
"286 407 OFFCURVE",
"274 402 OFFCURVE",
"262 383 CURVE SMOOTH",
"96 111 LINE SMOOTH",
"77 80 OFFCURVE",
"96 56 OFFCURVE",
"115 47 CURVE SMOOTH",
"131 40 OFFCURVE",
"158 43 OFFCURVE",
"174 69 CURVE SMOOTH"
);
}
);
vertWidth = 0;
width = 426;
}
);
note = "";
unicode = 2260;
},
{
glyphname = greater;
layers = (
{
guideLines = (
{
name = " [#GqRMvt6B8x]";
position = "{131, 333}";
}
);
layerId = m01;
leftMetricsKey = n;
rightMetricsKey = n;
paths = (
{
closed = 1;
nodes = (
"352 198 LINE SMOOTH",
"360 202 OFFCURVE",
"366 210 OFFCURVE",
"366 218 CURVE SMOOTH",
"366 225 OFFCURVE",
"363 231 OFFCURVE",
"356 237 CURVE SMOOTH",
"187 362 LINE SMOOTH",
"172 373 OFFCURVE",
"159 373 OFFCURVE",
"150 364 CURVE SMOOTH",
"141 353 OFFCURVE",
"143 338 OFFCURVE",
"158 327 CURVE SMOOTH",
"323 205 LINE",
"326 235 LINE",
"108 139 LINE SMOOTH",
"88 130 OFFCURVE",
"84 120 OFFCURVE",
"87 108 CURVE SMOOTH",
"90 98 OFFCURVE",
"101 88 OFFCURVE",
"120 96 CURVE SMOOTH"
);
}
);
vertWidth = 0;
width = 426;
},
{
guideLines = (
{
name = " [#GqRMvt6B8x]";
position = "{131, 333}";
}
);
layerId = "6449507E-FEE0-4D4A-A81F-7CAB6A5803D5";
leftMetricsKey = n;
rightMetricsKey = n;
paths = (
{
closed = 1;
nodes = (
"350 182 LINE SMOOTH",
"366 188 OFFCURVE",
"376 206 OFFCURVE",
"376 221 CURVE SMOOTH",
"376 233 OFFCURVE",
"374 246 OFFCURVE",
"359 255 CURVE SMOOTH",
"190 358 LINE SMOOTH",
"162 375 OFFCURVE",
"143 372 OFFCURVE",
"127 356 CURVE SMOOTH",
"109 338 OFFCURVE",
"108 307 OFFCURVE",
"137 290 CURVE SMOOTH",
"282 205 LINE",
"287 247 LINE",
"101 178 LINE SMOOTH",
"65 165 OFFCURVE",
"65 144 OFFCURVE",
"70 125 CURVE SMOOTH",
"75 106 OFFCURVE",
"92 82 OFFCURVE",
"130 98 CURVE SMOOTH"
);
}
);
vertWidth = 0;
width = 426;
}
);
note = "";
unicode = 003E;
},
{
glyphname = less;
layers = (
{
layerId = m01;
leftMetricsKey = n;
rightMetricsKey = n;
paths = (
{
closed = 1;
nodes = (
"293 91 OFFCURVE",
"306 91 OFFCURVE",
"315 100 CURVE SMOOTH",
"324 111 OFFCURVE",
"322 126 OFFCURVE",
"307 137 CURVE SMOOTH",
"142 259 LINE",
"139 229 LINE",
"357 325 LINE SMOOTH",
"377 334 OFFCURVE",
"381 344 OFFCURVE",
"378 356 CURVE SMOOTH",
"375 366 OFFCURVE",
"364 376 OFFCURVE",
"345 368 CURVE",
"113 266 LINE SMOOTH",
"105 262 OFFCURVE",
"99 254 OFFCURVE",
"99 246 CURVE SMOOTH",
"99 239 OFFCURVE",
"102 233 OFFCURVE",
"109 227 CURVE SMOOTH",
"278 102 LINE SMOOTH"
);
}
);
vertWidth = 0;
width = 426;
},
{
layerId = "6449507E-FEE0-4D4A-A81F-7CAB6A5803D5";
leftMetricsKey = n;
rightMetricsKey = n;
paths = (
{
closed = 1;
nodes = (
"281 93 OFFCURVE",
"308 94 OFFCURVE",
"322 108 CURVE SMOOTH",
"341 126 OFFCURVE",
"341 157 OFFCURVE",
"312 174 CURVE SMOOTH",
"167 259 LINE",
"162 217 LINE",
"348 286 LINE SMOOTH",
"384 299 OFFCURVE",
"384 320 OFFCURVE",
"379 339 CURVE SMOOTH",
"374 358 OFFCURVE",
"357 381 OFFCURVE",
"319 366 CURVE SMOOTH",
"99 282 LINE SMOOTH",
"83 276 OFFCURVE",
"73 258 OFFCURVE",
"73 243 CURVE SMOOTH",
"73 231 OFFCURVE",
"75 218 OFFCURVE",
"90 209 CURVE SMOOTH",
"259 106 LINE SMOOTH"
);
}
);
vertWidth = 0;
width = 426;
}
);
note = "";
unicode = 003C;
},
{
glyphname = greaterequal;
layers = (
{
layerId = m01;
leftMetricsKey = n;
rightMetricsKey = n;
paths = (
{
closed = 1;
nodes = (
"320 129 LINE SMOOTH",
"338 129 OFFCURVE",
"347 140 OFFCURVE",
"347 152 CURVE SMOOTH",
"347 163 OFFCURVE",
"338 174 OFFCURVE",
"320 174 CURVE SMOOTH",
"93 174 LINE SMOOTH",
"75 174 OFFCURVE",
"66 162 OFFCURVE",
"66 151 CURVE SMOOTH",
"66 140 OFFCURVE",
"75 129 OFFCURVE",
"93 129 CURVE SMOOTH"
);
},
{
closed = 1;
nodes = (
"346 234 LINE SMOOTH",
"364 234 OFFCURVE",
"373 245 OFFCURVE",
"373 257 CURVE SMOOTH",
"373 263 OFFCURVE",
"370 270 OFFCURVE",
"364 274 CURVE SMOOTH",
"178 392 LINE SMOOTH",
"162 402 OFFCURVE",
"149 401 OFFCURVE",
"141 391 CURVE SMOOTH",
"133 380 OFFCURVE",
"136 366 OFFCURVE",
"151 356 CURVE SMOOTH",
"297 263 LINE",
"302 279 LINE",
"119 279 LINE SMOOTH",
"101 279 OFFCURVE",
"92 267 OFFCURVE",
"92 256 CURVE SMOOTH",
"92 245 OFFCURVE",
"101 234 OFFCURVE",
"119 234 CURVE SMOOTH"
);
}
);
vertWidth = 0;
width = 426;
},
{
layerId = "6449507E-FEE0-4D4A-A81F-7CAB6A5803D5";
leftMetricsKey = n;
rightMetricsKey = n;
paths = (
{
closed = 1;
nodes = (
"315 106 LINE SMOOTH",
"349 106 OFFCURVE",
"361 130 OFFCURVE",
"361 149 CURVE SMOOTH",
"361 169 OFFCURVE",
"349 192 OFFCURVE",
"315 192 CURVE SMOOTH",
"88 192 LINE SMOOTH",
"54 192 OFFCURVE",
"42 169 OFFCURVE",
"42 149 CURVE SMOOTH",
"42 129 OFFCURVE",
"54 106 OFFCURVE",
"88 106 CURVE SMOOTH"
);
},
{
closed = 1;
nodes = (
"323 221 LINE SMOOTH",
"356 221 OFFCURVE",
"369 244 OFFCURVE",
"369 264 CURVE SMOOTH",
"369 277 OFFCURVE",
"364 290 OFFCURVE",
"351 299 CURVE SMOOTH",
"179 415 LINE SMOOTH",
"150 435 OFFCURVE",
"129 425 OFFCURVE",
"116 409 CURVE",
"102 389 OFFCURVE",
"99 362 OFFCURVE",
"130 345 CURVE SMOOTH",
"229 292 LINE",
"242 307 LINE",
"118 307 LINE SMOOTH",
"84 307 OFFCURVE",
"71 283 OFFCURVE",
"71 264 CURVE",
"71 245 OFFCURVE",
"83 221 OFFCURVE",
"118 221 CURVE SMOOTH"
);
}
);
vertWidth = 0;
width = 426;
}
);
note = "";
unicode = 2265;
},
{
glyphname = lessequal;
layers = (
{
layerId = m01;
leftMetricsKey = n;
rightMetricsKey = n;
paths = (
{
closed = 1;
nodes = (
"320 129 LINE SMOOTH",
"338 129 OFFCURVE",
"347 140 OFFCURVE",
"347 152 CURVE SMOOTH",
"347 163 OFFCURVE",
"338 174 OFFCURVE",
"320 174 CURVE SMOOTH",
"93 174 LINE SMOOTH",
"75 174 OFFCURVE",
"66 162 OFFCURVE",
"66 151 CURVE SMOOTH",
"66 140 OFFCURVE",
"75 129 OFFCURVE",
"93 129 CURVE SMOOTH"
);
},
{
closed = 1;
nodes = (
"346 234 LINE SMOOTH",
"364 234 OFFCURVE",
"373 245 OFFCURVE",
"373 257 CURVE SMOOTH",
"373 268 OFFCURVE",
"364 279 OFFCURVE",
"346 279 CURVE SMOOTH",
"179 279 LINE",
"182 265 LINE",
"358 356 LINE SMOOTH",
"374 364 OFFCURVE",
"376 380 OFFCURVE",
"368 391 CURVE SMOOTH",
"360 401 OFFCURVE",
"348 401 OFFCURVE",
"331 392 CURVE SMOOTH",
"105 276 LINE SMOOTH",
"96 271 OFFCURVE",
"92 264 OFFCURVE",
"92 256 CURVE SMOOTH",
"92 245 OFFCURVE",
"101 234 OFFCURVE",
"119 234 CURVE SMOOTH"
);
}
);
vertWidth = 0;
width = 426;
},
{
layerId = "6449507E-FEE0-4D4A-A81F-7CAB6A5803D5";
leftMetricsKey = n;
rightMetricsKey = n;
paths = (
{
closed = 1;
nodes = (
"315 106 LINE SMOOTH",
"349 106 OFFCURVE",
"361 130 OFFCURVE",
"361 149 CURVE SMOOTH",
"361 169 OFFCURVE",
"349 192 OFFCURVE",
"315 192 CURVE SMOOTH",
"88 192 LINE SMOOTH",
"54 192 OFFCURVE",
"42 169 OFFCURVE",
"42 149 CURVE SMOOTH",
"42 129 OFFCURVE",
"54 106 OFFCURVE",
"88 106 CURVE SMOOTH"
);
},
{
closed = 1;
nodes = (
"323 221 LINE SMOOTH",
"356 221 OFFCURVE",
"369 244 OFFCURVE",
"369 264 CURVE SMOOTH",
"369 283 OFFCURVE",
"357 307 OFFCURVE",
"323 307 CURVE SMOOTH",
"191 307 LINE",
"202 281 LINE",
"344 343 LINE SMOOTH",
"375 356 OFFCURVE",
"375 388 OFFCURVE",
"360 408 CURVE SMOOTH",
"347 425 OFFCURVE",
"328 432 OFFCURVE",
"299 416 CURVE SMOOTH",
"95 302 LINE SMOOTH",
"77 292 OFFCURVE",
"71 278 OFFCURVE",
"71 264 CURVE SMOOTH",
"71 245 OFFCURVE",
"83 221 OFFCURVE",
"117 221 CURVE SMOOTH"
);
}
);
vertWidth = 0;
width = 426;
}
);
note = "";
unicode = 2264;
},
{
glyphname = plusminus;
layers = (
{
layerId = m01;
leftMetricsKey = n;
rightMetricsKey = n;
paths = (
{
closed = 1;
nodes = (
"232 186 OFFCURVE",
"242 192 OFFCURVE",
"246 208 CURVE SMOOTH",
"279 340 LINE SMOOTH",
"284 358 OFFCURVE",
"272 371 OFFCURVE",
"259 371 CURVE",
"250 371 OFFCURVE",
"239 365 OFFCURVE",
"235 350 CURVE SMOOTH",
"203 218 LINE SMOOTH",
"198 199 OFFCURVE",
"210 186 OFFCURVE",
"222 186 CURVE SMOOTH"
);
},
{
closed = 1;
nodes = (
"354 257 LINE SMOOTH",
"372 257 OFFCURVE",
"381 269 OFFCURVE",
"381 280 CURVE SMOOTH",
"381 291 OFFCURVE",
"372 302 OFFCURVE",
"354 302 CURVE SMOOTH",
"127 302 LINE SMOOTH",
"109 302 OFFCURVE",
"100 291 OFFCURVE",
"100 280 CURVE SMOOTH",
"100 268 OFFCURVE",
"109 257 OFFCURVE",
"127 257 CURVE SMOOTH"
);
},
{
closed = 1;
nodes = (
"323 129 LINE SMOOTH",
"341 129 OFFCURVE",
"350 141 OFFCURVE",
"350 152 CURVE SMOOTH",
"350 163 OFFCURVE",
"341 174 OFFCURVE",
"323 174 CURVE SMOOTH",
"96 174 LINE SMOOTH",
"78 174 OFFCURVE",
"69 163 OFFCURVE",
"69 152 CURVE SMOOTH",
"69 140 OFFCURVE",
"78 129 OFFCURVE",
"96 129 CURVE SMOOTH"
);
}
);
vertWidth = 0;
width = 426;
},
{
layerId = "6449507E-FEE0-4D4A-A81F-7CAB6A5803D5";
leftMetricsKey = n;
rightMetricsKey = n;
paths = (
{
closed = 1;
nodes = (
"247 206 OFFCURVE",
"267 214 OFFCURVE",
"274 243 CURVE SMOOTH",
"328 465 LINE SMOOTH",
"336 500 OFFCURVE",
"312 520 OFFCURVE",
"291 520 CURVE SMOOTH",
"274 520 OFFCURVE",
"252 515 OFFCURVE",
"245 486 CURVE SMOOTH",
"191 263 LINE",
"183 225 OFFCURVE",
"208 206 OFFCURVE",
"229 206 CURVE SMOOTH"
);
},
{
closed = 1;
nodes = (
"371 322 LINE SMOOTH",
"405 322 OFFCURVE",
"417 346 OFFCURVE",
"417 365 CURVE SMOOTH",
"417 385 OFFCURVE",
"405 408 OFFCURVE",
"371 408 CURVE SMOOTH",
"144 408 LINE SMOOTH",
"110 408 OFFCURVE",
"98 385 OFFCURVE",
"98 365 CURVE SMOOTH",
"98 345 OFFCURVE",
"110 322 OFFCURVE",
"144 322 CURVE SMOOTH"
);
},
{
closed = 1;
nodes = (
"327 100 LINE SMOOTH",
"361 100 OFFCURVE",
"373 124 OFFCURVE",
"373 143 CURVE SMOOTH",
"373 163 OFFCURVE",
"361 186 OFFCURVE",
"327 186 CURVE SMOOTH",
"100 186 LINE SMOOTH",
"66 186 OFFCURVE",
"54 163 OFFCURVE",
"54 143 CURVE SMOOTH",
"54 123 OFFCURVE",
"66 100 OFFCURVE",
"100 100 CURVE SMOOTH"
);
}
);
vertWidth = 0;
width = 426;
}
);
note = "";
unicode = 00B1;
},
{
glyphname = approxequal;
layers = (
{
layerId = m01;
leftMetricsKey = n;
rightMetricsKey = n;
paths = (
{
closed = 1;
nodes = (
"119 138 OFFCURVE",
"137 145 OFFCURVE",
"150 145 CURVE SMOOTH",
"191 145 OFFCURVE",
"225 117 OFFCURVE",
"263 117 CURVE SMOOTH",
"289 117 OFFCURVE",
"315 127 OFFCURVE",
"333 134 CURVE SMOOTH",
"348 140 OFFCURVE",
"355 151 OFFCURVE",
"350 164 CURVE SMOOTH",
"345 177 OFFCURVE",
"333 181 OFFCURVE",
"317 175 CURVE SMOOTH",
"302 169 OFFCURVE",
"284 162 OFFCURVE",
"271 162 CURVE SMOOTH",
"233 162 OFFCURVE",
"199 190 OFFCURVE",
"158 190 CURVE SMOOTH",
"132 190 OFFCURVE",
"106 180 OFFCURVE",
"88 173 CURVE SMOOTH",
"73 167 OFFCURVE",
"66 156 OFFCURVE",
"71 143 CURVE SMOOTH",
"76 130 OFFCURVE",
"88 126 OFFCURVE",
"104 132 CURVE SMOOTH"
);
},
{
closed = 1;
nodes = (
"157 289 OFFCURVE",
"175 296 OFFCURVE",
"188 296 CURVE SMOOTH",
"229 296 OFFCURVE",
"263 268 OFFCURVE",
"301 268 CURVE SMOOTH",
"327 268 OFFCURVE",
"353 278 OFFCURVE",
"371 285 CURVE SMOOTH",
"386 291 OFFCURVE",
"393 302 OFFCURVE",
"388 315 CURVE SMOOTH",
"383 328 OFFCURVE",
"371 332 OFFCURVE",
"355 326 CURVE SMOOTH",
"340 320 OFFCURVE",
"322 313 OFFCURVE",
"309 313 CURVE SMOOTH",
"271 313 OFFCURVE",
"237 341 OFFCURVE",
"196 341 CURVE SMOOTH",
"170 341 OFFCURVE",
"144 331 OFFCURVE",
"126 324 CURVE SMOOTH",
"111 318 OFFCURVE",
"104 307 OFFCURVE",
"109 294 CURVE SMOOTH",
"114 281 OFFCURVE",
"126 277 OFFCURVE",
"142 283 CURVE SMOOTH"
);
}
);
vertWidth = 0;
width = 426;
},
{
layerId = "6449507E-FEE0-4D4A-A81F-7CAB6A5803D5";
leftMetricsKey = n;
rightMetricsKey = n;
paths = (
{
closed = 1;
nodes = (
"124 124 OFFCURVE",
"136 131 OFFCURVE",
"146 131 CURVE SMOOTH",
"179 131 OFFCURVE",
"214 109 OFFCURVE",
"249 109 CURVE SMOOTH",
"276 109 OFFCURVE",
"303 116 OFFCURVE",
"323 124 CURVE SMOOTH",
"354 137 OFFCURVE",
"362 162 OFFCURVE",
"353 183 CURVE SMOOTH",
"343 205 OFFCURVE",
"322 215 OFFCURVE",
"288 201 CURVE SMOOTH",
"278 197 OFFCURVE",
"265 192 OFFCURVE",
"256 192 CURVE SMOOTH",
"221 192 OFFCURVE",
"190 214 OFFCURVE",
"153 214 CURVE SMOOTH",
"125 214 OFFCURVE",
"98 205 OFFCURVE",
"79 196 CURVE SMOOTH",
"47 181 OFFCURVE",
"38 157 OFFCURVE",
"48 136 CURVE SMOOTH",
"58 114 OFFCURVE",
"80 104 OFFCURVE",
"113 119 CURVE SMOOTH"
);
},
{
closed = 1;
nodes = (
"159 264 OFFCURVE",
"171 271 OFFCURVE",
"181 271 CURVE SMOOTH",
"214 271 OFFCURVE",
"249 249 OFFCURVE",
"284 249 CURVE SMOOTH",
"311 249 OFFCURVE",
"338 256 OFFCURVE",
"358 264 CURVE SMOOTH",
"389 277 OFFCURVE",
"397 302 OFFCURVE",
"388 323 CURVE SMOOTH",
"378 345 OFFCURVE",
"357 355 OFFCURVE",
"323 341 CURVE SMOOTH",
"313 337 OFFCURVE",
"300 332 OFFCURVE",
"291 332 CURVE SMOOTH",
"256 332 OFFCURVE",
"225 354 OFFCURVE",
"188 354 CURVE SMOOTH",
"160 354 OFFCURVE",
"133 345 OFFCURVE",
"114 336 CURVE SMOOTH",
"82 321 OFFCURVE",
"73 297 OFFCURVE",
"83 276 CURVE SMOOTH",
"93 254 OFFCURVE",
"115 244 OFFCURVE",
"148 259 CURVE SMOOTH"
);
}
);
vertWidth = 0;
width = 426;
}
);
note = "";
unicode = 2248;
},
{
glyphname = asciicircum;
layers = (
{
layerId = m01;
leftMetricsKey = N;
rightMetricsKey = N;
paths = (
{
closed = 1;
nodes = (
"298 409 LINE",
"256 413 LINE",
"354 296 LINE SMOOTH",
"365 283 OFFCURVE",
"380 285 OFFCURVE",
"389 293 CURVE SMOOTH",
"399 302 OFFCURVE",
"402 317 OFFCURVE",
"392 329 CURVE SMOOTH",
"299 439 LINE SMOOTH",
"291 449 OFFCURVE",
"274 451 OFFCURVE",
"260 439 CURVE SMOOTH",
"127 328 LINE SMOOTH",
"115 318 OFFCURVE",
"116 304 OFFCURVE",
"124 295 CURVE SMOOTH",
"133 286 OFFCURVE",
"145 281 OFFCURVE",
"161 294 CURVE SMOOTH"
);
}
);
vertWidth = 0;
width = 456;
},
{
layerId = "6449507E-FEE0-4D4A-A81F-7CAB6A5803D5";
leftMetricsKey = N;
rightMetricsKey = N;
paths = (
{
closed = 1;
nodes = (
"299 388 LINE",
"269 390 LINE",
"359 284 LINE SMOOTH",
"377 262 OFFCURVE",
"401 267 OFFCURVE",
"415 279 CURVE SMOOTH",
"430 292 OFFCURVE",
"435 316 OFFCURVE",
"419 335 CURVE SMOOTH",
"319 454 LINE SMOOTH",
"306 469 OFFCURVE",
"283 475 OFFCURVE",
"260 456 CURVE SMOOTH",
"124 342 LINE SMOOTH",
"104 325 OFFCURVE",
"107 302 OFFCURVE",
"120 287 CURVE",
"134 273 OFFCURVE",
"153 264 OFFCURVE",
"177 284 CURVE SMOOTH"
);
}
);
vertWidth = 0;
width = 473;
}
);
note = "";
unicode = 005E;
},
